<svg width="30" height="30" viewBox="0 0 30 30" fill="none" xmlns="http://www.w3.org/2000/svg">
<circle cx="15" cy="15" r="15" fill="#DA5C34"/>
<circle r="4" transform="matrix(-1 0 0 1 15 10)" stroke="white" stroke-width="1.5"/>
<path d="M18.8184 23.0455L18.7123 23.7879L18.8184 23.0455ZM11.1816 23.0455L11.0756 22.303L11.1816 23.0455ZM21.25 19.9347V21.2502H22.75V19.9347H21.25ZM8.75 21.2502V19.9347H7.25V21.2502H8.75ZM19.8789 22.4394L18.9244 22.303L18.7123 23.7879L19.6667 23.9243L19.8789 22.4394ZM11.0756 22.303L10.1211 22.4394L10.3333 23.9243L11.2877 23.7879L11.0756 22.303ZM18.9244 22.303C16.3214 21.9312 13.6786 21.9312 11.0756 22.303L11.2877 23.7879C13.7501 23.4362 16.2499 23.4362 18.7123 23.7879L18.9244 22.303ZM9.60334 18.7238C13.0932 17.4774 16.9068 17.4774 20.3967 18.7238L20.9012 17.3112C17.0851 15.9483 12.9149 15.9483 9.09884 17.3112L9.60334 18.7238ZM7.25 21.2502C7.25 22.894 8.70594 24.1568 10.3333 23.9243L10.1211 22.4394C9.39746 22.5427 8.75 21.9812 8.75 21.2502H7.25ZM21.25 21.2502C21.25 21.9812 20.6025 22.5427 19.8789 22.4394L19.6667 23.9243C21.2941 24.1568 22.75 22.894 22.75 21.2502H21.25ZM22.75 19.9347C22.75 18.7574 22.0099 17.7071 20.9012 17.3112L20.3967 18.7238C20.9084 18.9065 21.25 19.3913 21.25 19.9347H22.75ZM8.75 19.9347C8.75 19.3913 9.0916 18.9065 9.60334 18.7238L9.09884 17.3112C7.99011 17.7071 7.25 18.7574 7.25 19.9347H8.75Z" fill="white"/>
</svg>
