<svg width="40" height="40" viewBox="0 0 40 40" fill="none" xmlns="http://www.w3.org/2000/svg">
<path d="M26.6667 8.33398C25.1346 8.33398 23.6175 8.63575 22.202 9.22206C20.7866 9.80836 19.5004 10.6677 18.4171 11.7511C17.3337 12.8344 16.4744 14.1205 15.8881 15.536C15.3018 16.9515 15 18.4686 15 20.0007C15 21.5327 15.3018 23.0498 15.8881 24.4653C16.4744 25.8808 17.3337 27.1669 18.4171 28.2502C19.5004 29.3336 20.7866 30.1929 22.202 30.7792C23.6175 31.3656 25.1346 31.6673 26.6667 31.6673C28.1988 31.6673 29.7158 31.3656 31.1313 30.7792C32.5468 30.1929 33.8329 29.3336 34.9162 28.2502C35.9996 27.1669 36.859 25.8808 37.4453 24.4653C38.0316 23.0498 38.3333 21.5327 38.3333 20.0007C38.3333 18.4686 38.0316 16.9515 37.4453 15.536C36.859 14.1205 35.9996 12.8344 34.9162 11.7511C33.8329 10.6677 32.5468 9.80836 31.1313 9.22206C29.7158 8.63575 28.1988 8.33398 26.6667 8.33398Z" fill="#FF9800"/>
<path d="M13.3346 8.33398C11.8025 8.33398 10.2855 8.63575 8.87 9.22206C7.45453 9.80836 6.16841 10.6677 5.08506 11.7511C4.00171 12.8344 3.14235 14.1205 2.55604 15.536C1.96974 16.9515 1.66797 18.4686 1.66797 20.0007C1.66797 21.5327 1.96974 23.0498 2.55604 24.4653C3.14235 25.8808 4.00171 27.1669 5.08506 28.2502C6.16841 29.3336 7.45453 30.1929 8.87 30.7792C10.2855 31.3656 11.8025 31.6673 13.3346 31.6673C14.8667 31.6673 16.3838 31.3656 17.7993 30.7792C19.2147 30.1929 20.5009 29.3336 21.5842 28.2502C22.6676 27.1669 23.5269 25.8808 24.1132 24.4653C24.6995 23.0498 25.0013 21.5327 25.0013 20.0007C25.0013 18.4686 24.6995 16.9515 24.1132 15.536C23.5269 14.1205 22.6676 12.8344 21.5842 11.7511C20.5009 10.6677 19.2147 9.80836 17.7993 9.22206C16.3838 8.63575 14.8667 8.33398 13.3346 8.33398Z" fill="#D50000"/>
<path d="M15 20.0003C15 23.9628 16.98 27.4586 20 29.5669C23.02 27.4586 25 23.9628 25 20.0003C25 16.0378 23.02 12.5419 20 10.4336C16.98 12.5419 15 16.0378 15 20.0003Z" fill="#FF3D00"/>
</svg>
