<svg width="105" height="20" viewBox="0 0 105 20" fill="none" xmlns="http://www.w3.org/2000/svg">
<path d="M3.83631 18.4354C3.42618 18.6598 2.96081 18.2665 3.04369 17.7645L3.92556 12.404L0.182381 8.60066C-0.16718 8.24481 0.0145067 7.5943 0.483068 7.52403L5.68718 6.73526L8.00767 1.83149C8.21698 1.3895 8.7833 1.3895 8.99261 1.83149L11.3131 6.73526L16.5172 7.52403C16.9858 7.5943 17.1675 8.24481 16.8168 8.60066L13.0747 12.404L13.9566 17.7645C14.0395 18.2665 13.5741 18.6598 13.164 18.4354L8.49855 15.8787L3.83525 18.4354H3.83631Z" fill="#545454"/>
<path d="M25.8363 18.4354C25.4262 18.6598 24.9608 18.2665 25.0437 17.7645L25.9256 12.404L22.1824 8.60066C21.8328 8.24481 22.0145 7.5943 22.4831 7.52403L27.6872 6.73526L30.0077 1.83149C30.217 1.3895 30.7833 1.3895 30.9926 1.83149L33.3131 6.73526L38.5172 7.52403C38.9858 7.5943 39.1675 8.24481 38.8168 8.60066L35.0747 12.404L35.9566 17.7645C36.0395 18.2665 35.5741 18.6598 35.164 18.4354L30.4985 15.8787L25.8352 18.4354H25.8363Z" fill="#545454"/>
<path d="M47.8363 18.4354C47.4262 18.6598 46.9608 18.2665 47.0437 17.7645L47.9256 12.404L44.1824 8.60066C43.8328 8.24481 44.0145 7.5943 44.4831 7.52403L49.6872 6.73526L52.0077 1.83149C52.217 1.3895 52.7833 1.3895 52.9926 1.83149L55.3131 6.73526L60.5172 7.52403C60.9858 7.5943 61.1675 8.24481 60.8168 8.60066L57.0747 12.404L57.9566 17.7645C58.0395 18.2665 57.5741 18.6598 57.164 18.4354L52.4985 15.8787L47.8352 18.4354H47.8363Z" fill="#545454"/>
<path d="M69.8363 18.4354C69.4262 18.6598 68.9608 18.2665 69.0437 17.7645L69.9256 12.404L66.1824 8.60066C65.8328 8.24481 66.0145 7.5943 66.4831 7.52403L71.6872 6.73526L74.0077 1.83149C74.217 1.3895 74.7833 1.3895 74.9926 1.83149L77.3131 6.73526L82.5172 7.52403C82.9858 7.5943 83.1675 8.24481 82.8168 8.60066L79.0747 12.404L79.9566 17.7645C80.0395 18.2665 79.5741 18.6598 79.164 18.4354L74.4985 15.8787L69.8352 18.4354H69.8363Z" fill="#545454"/>
<path d="M93.6872 6.73473L96.0076 1.83092C96.0521 1.73227 96.1218 1.64895 96.2086 1.59045C96.2953 1.53194 96.3958 1.5006 96.4984 1.5C96.6929 1.5 96.8873 1.60993 96.9925 1.83092L99.3128 6.73473L104.517 7.52351C104.646 7.54526 104.765 7.61408 104.853 7.71834C104.94 7.8226 104.992 7.95593 104.998 8.09583C105.005 8.18897 104.993 8.2827 104.962 8.37002C104.93 8.45734 104.881 8.53601 104.817 8.60015L101.074 12.4035L101.956 17.7641C102.039 18.2661 101.574 18.6594 101.164 18.435L96.4984 15.8782L91.8354 18.435C91.7866 18.462 91.7343 18.4811 91.6803 18.4916C91.3169 18.5596 90.9706 18.2038 91.0428 17.7641L91.9246 12.4035L88.1828 8.60015C88.1246 8.54144 88.0783 8.47061 88.0469 8.39204C88.0155 8.31347 87.9995 8.22885 88 8.14343C88.0001 8.02266 88.0313 7.90424 88.0903 7.80117C88.1322 7.72645 88.1892 7.66271 88.2573 7.61466C88.3253 7.5666 88.4026 7.53545 88.4834 7.52351L93.6872 6.73473ZM96.4984 14.5636C96.5842 14.5632 96.6688 14.585 96.7449 14.6271L100.661 16.7735L99.9237 12.2891C99.9063 12.1859 99.9129 12.0798 99.9429 11.98C99.9729 11.8802 100.025 11.7898 100.096 11.7167L103.184 8.57749L98.8793 7.9247C98.7902 7.91034 98.7057 7.87315 98.6329 7.8163C98.5602 7.75946 98.5015 7.68466 98.4618 7.59831L96.4995 3.45268L96.4984 3.45608V14.5625V14.5636Z" fill="#545454"/>
</svg>
