<svg width="23" height="22" viewBox="0 0 23 22" fill="none" xmlns="http://www.w3.org/2000/svg">
<path d="M1.5 5.16667L1.21154 4.47436C0.932053 4.59081 0.75 4.86389 0.75 5.16667H1.5ZM11.5 21L11.2115 21.6923C11.3962 21.7692 11.6038 21.7692 11.7885 21.6923L11.5 21ZM21.5 5.16667H22.25C22.25 4.86389 22.0679 4.59081 21.7885 4.47436L21.5 5.16667ZM6.5 7.25L6.21154 7.94231L6.5 7.25ZM10.7308 1.32051L10.4423 0.628205L10.7308 1.32051ZM2.11538 17.0897L1.82692 17.7821L2.11538 17.0897ZM2.25 16.1667V5.16667H0.75V16.1667H2.25ZM10.75 9.33333V21H12.25V9.33333H10.75ZM11.7885 20.3077L2.40385 16.3974L1.82692 17.7821L11.2115 21.6923L11.7885 20.3077ZM11.7885 21.6923L21.1731 17.7821L20.5962 16.3974L11.2115 20.3077L11.7885 21.6923ZM22.25 16.1667V5.16667H20.75V16.1667H22.25ZM21.2115 4.47436L11.2115 8.64103L11.7885 10.0256L21.7885 5.85897L21.2115 4.47436ZM10.4423 0.628205L1.21154 4.47436L1.78846 5.85897L11.0192 2.01282L10.4423 0.628205ZM1.21154 5.85897L6.21154 7.94231L6.78846 6.55769L1.78846 4.47436L1.21154 5.85897ZM6.21154 7.94231L11.2115 10.0256L11.7885 8.64103L6.78846 6.55769L6.21154 7.94231ZM21.7885 4.47436L16.7885 2.39103L16.2115 3.77564L21.2115 5.85897L21.7885 4.47436ZM16.7885 2.39103L12.5577 0.628205L11.9808 2.01282L16.2115 3.77564L16.7885 2.39103ZM6.78846 7.94231L16.7885 3.77564L16.2115 2.39103L6.21154 6.55769L6.78846 7.94231ZM11.0192 2.01282C11.3269 1.88462 11.6731 1.88462 11.9808 2.01282L12.5577 0.628205C11.8808 0.346153 11.1192 0.346154 10.4423 0.628205L11.0192 2.01282ZM21.1731 17.7821C21.8252 17.5103 22.25 16.8731 22.25 16.1667H20.75C20.75 16.2676 20.6893 16.3586 20.5962 16.3974L21.1731 17.7821ZM0.75 16.1667C0.75 16.8731 1.17479 17.5103 1.82692 17.7821L2.40385 16.3974C2.31068 16.3586 2.25 16.2676 2.25 16.1667H0.75Z" fill="#545454"/>
</svg>
