<svg width="23" height="17" viewBox="0 0 23 17" fill="none" xmlns="http://www.w3.org/2000/svg">
<circle r="3.40426" transform="matrix(-1 0 0 1 11.7129 4.40426)" stroke="#545454" stroke-width="1.5"/>
<path d="M5.75586 12.8594C5.75586 12.1272 6.21616 11.474 6.90572 11.2277V11.2277C10.0146 10.1174 13.412 10.1174 16.5209 11.2277V11.2277C17.2105 11.474 17.6708 12.1272 17.6708 12.8594V13.979C17.6708 14.9896 16.7757 15.7659 15.7753 15.6229L15.4417 15.5753C12.9687 15.222 10.458 15.222 7.98491 15.5753L7.65136 15.6229C6.65093 15.7659 5.75586 14.9896 5.75586 13.979V12.8594Z" stroke="#545454" stroke-width="1.5"/>
<path d="M16.8174 7.90228C18.2946 7.90228 19.4921 6.70474 19.4921 5.22751C19.4921 3.75027 18.2946 2.55273 16.8174 2.55273" stroke="#545454" stroke-width="1.5" stroke-linecap="round"/>
<path d="M19.747 14.0046L20.0091 14.042C20.7952 14.1543 21.4984 13.5444 21.4984 12.7503V11.8707C21.4984 11.2953 21.1368 10.7821 20.595 10.5886C20.0545 10.3956 19.503 10.2453 18.9453 10.1377" stroke="#545454" stroke-width="1.5" stroke-linecap="round"/>
<path d="M6.18454 7.90228C4.7073 7.90228 3.50977 6.70474 3.50977 5.22751C3.50977 3.75027 4.7073 2.55273 6.18454 2.55273" stroke="#545454" stroke-width="1.5" stroke-linecap="round"/>
<path d="M3.25484 14.0046L2.99277 14.042C2.20672 14.1543 1.50345 13.5444 1.50345 12.7503V11.8707C1.50345 11.2953 1.86511 10.7821 2.40691 10.5886C2.94736 10.3956 3.49891 10.2453 4.05664 10.1377" stroke="#545454" stroke-width="1.5" stroke-linecap="round"/>
</svg>
