<svg width="65" height="60" viewBox="0 0 65 60" fill="none" xmlns="http://www.w3.org/2000/svg">
<path fill-rule="evenodd" clip-rule="evenodd" d="M2.0064 7.2962C14.3021 9.44702 14.2921 5.7864 25.2951 3.6358C36.9953 1.34915 37.6537 6.26082 49.6397 0.19388C50.8736 -0.430788 52.4095 0.518053 52.2191 2.12213C50.7488 14.5175 54.2509 14.6148 55.7301 25.6897C57.2044 36.7281 54.0173 38.8598 59.27 50.1025C59.8019 51.241 59.2129 52.9885 57.3559 52.7007C44.867 50.7666 44.3655 54.7785 33.2021 56.3202C22.1754 57.8431 20.9579 54.4733 9.72258 59.8032C8.59233 60.3392 7.06376 59.8088 7.14304 57.8749C7.59608 46.8139 4.668 43.3756 3.33496 33.3327C2.04529 23.6166 3.68414 19.9275 0.0921008 9.89453C-0.331661 8.71085 0.775718 7.08094 2.0064 7.2962Z" fill="#F20D0D"/>
<path fill-rule="evenodd" clip-rule="evenodd" d="M43.5625 25.7456C46.2507 26.9149 48.86 26.5046 51.0754 25.2042C51.4199 25.2309 51.7531 25.3935 51.9845 25.6821C52.776 26.6701 51.795 28.0443 50.6195 27.7111C51.9533 28.472 53.3996 26.8279 52.4317 25.6201C52.1876 25.3153 51.8392 25.1386 51.4767 25.0999C52.5353 25.0531 53.9759 25.7654 53.706 27.049C53.6416 27.3549 53.4655 27.614 53.2156 27.8088C53.6399 27.6147 53.9521 27.2821 54.0466 26.8621C54.2303 26.0455 53.5233 25.1999 52.4731 24.9797C52.1057 24.9027 51.7436 24.9126 51.4203 24.9924C51.5389 24.9165 51.6561 24.8381 51.7722 24.7572C52.0112 24.7195 52.2714 24.7139 52.5351 24.7408C52.5342 24.7466 52.5331 24.7524 52.5321 24.7585C52.5334 24.7524 52.5344 24.7468 52.5357 24.741C53.6392 24.854 54.7967 25.5349 54.6565 26.7909C54.6153 27.1577 54.4376 27.4819 54.1666 27.7387C54.6424 27.4631 54.9717 27.0376 55.035 26.5332C55.1583 25.5534 54.232 24.639 52.9734 24.498C52.8742 24.487 52.7756 24.4812 52.6779 24.4801C52.6998 24.3378 52.7284 24.2014 52.7637 24.0711C52.6935 24.2018 52.6363 24.3387 52.594 24.4803C52.4161 24.4834 52.2428 24.503 52.0771 24.537C52.3152 24.3587 52.5474 24.1704 52.7741 23.9726C52.7632 23.9965 52.7528 24.0206 52.7429 24.0451C52.739 24.0451 52.7349 24.0451 52.731 24.0453C52.7349 24.0455 52.7388 24.0458 52.7424 24.0458C52.6857 24.1822 52.6363 24.3271 52.5953 24.4803C52.6222 24.4799 52.6493 24.4799 52.6764 24.4801C52.6959 24.332 52.7331 24.1876 52.786 24.0479C53.9194 24.1065 55.0194 24.6827 55.6566 25.4763C55.4828 25.5032 55.2978 25.494 55.1074 25.4402C55.3145 25.5583 55.5244 25.6186 55.7277 25.6315C55.7615 25.9497 55.6908 26.2962 55.4826 26.6589C55.7532 26.504 55.9307 26.2992 56.0241 26.0702C56.3558 26.8083 56.2912 27.6502 55.5754 28.4189C56.8671 28.029 57.0372 26.6624 56.2514 25.559C56.998 25.2994 57.4916 24.4128 57.092 23.618C57.0192 23.3438 56.8912 23.1109 56.7226 22.9208C56.9263 23.1072 57.1089 23.346 57.2602 23.643C57.243 23.4271 57.1971 23.2317 57.1278 23.0567C57.232 23.1886 57.3278 23.3382 57.4142 23.5068C57.3956 23.2773 57.3449 23.0713 57.268 22.8877C57.9234 23.7771 58.0196 24.9014 56.9965 25.7559C59.1413 25.3904 58.4746 21.8768 55.0333 21.4775C55.0421 21.4756 55.0512 21.4737 55.0601 21.4717C57.3741 21.6523 59.4966 23.9622 57.7513 25.8358C60.0107 25.1541 58.8405 21.4829 55.1193 21.4605C57.4445 21.0264 59.827 22.8782 58.7532 25.3185C59.5724 24.3079 59.5432 23.0543 58.9196 22.1621C59.3835 22.7516 59.57 23.55 59.2756 24.4853C59.6717 23.8701 59.777 23.2048 59.6554 22.6029C59.5503 22.0828 59.276 21.6104 58.8722 21.2584C58.8108 21.0991 58.7292 20.9566 58.6314 20.8303C58.6453 20.8387 58.6592 20.8473 58.6728 20.8559C58.8323 21.0238 58.9768 21.2263 59.1005 21.4687C59.0908 21.348 59.0721 21.2337 59.0457 21.1256C59.112 21.1816 59.1766 21.2406 59.2381 21.3021C59.2435 21.3122 59.2489 21.3224 59.2539 21.3327C59.2539 21.3273 59.2531 21.3219 59.2526 21.3165C59.8357 21.9072 60.1828 22.7536 60.0831 23.8593C60.2274 23.5836 60.3206 23.3109 60.3698 23.0455C60.4012 23.2011 60.4241 23.3627 60.4384 23.5298C60.4569 23.7517 60.9023 23.3976 60.8841 23.643C61.0793 23.1746 61.1396 22.7095 61.0915 22.2697C61.168 22.5837 61.2087 22.9273 61.2065 23.302C61.3391 22.9706 61.4106 22.6472 61.4308 22.3368C61.3222 21.2511 60.5749 20.4846 59.6376 20.0623C59.6372 20.062 59.6368 20.0616 59.6359 20.0612C59.5287 20.013 59.4186 19.9693 59.307 19.9301C59.3057 19.9297 59.3046 19.9294 59.3035 19.9288C59.2442 19.9081 59.1846 19.8888 59.1244 19.8705C59.1226 19.87 59.1205 19.8694 59.1185 19.8687C59.0906 19.8606 59.0626 19.8524 59.0344 19.8444C59.0329 19.844 59.0314 19.8436 59.0303 19.8431C59.0282 19.8427 59.0264 19.8425 59.0247 19.8416C58.9961 19.8339 58.9677 19.8263 58.9391 19.819C58.9385 19.8188 58.9378 19.8186 58.9372 19.8184C58.9367 19.8184 58.9367 19.8184 58.9363 19.8184C58.8765 19.8031 58.8165 19.7891 58.7562 19.7764C58.7541 19.776 58.7521 19.7753 58.7497 19.7749C58.7491 19.7749 58.748 19.7747 58.7471 19.7745C58.7465 19.7745 58.7463 19.7742 58.7458 19.7742C58.5608 19.7355 58.3743 19.7088 58.1884 19.694C58.1851 19.6937 58.1823 19.6935 58.1795 19.6933C58.0564 19.6836 57.934 19.6795 57.8129 19.6804C57.809 19.6804 57.8055 19.6804 57.8018 19.6804C57.7994 19.6804 57.7971 19.6808 57.7949 19.6808C57.588 19.6399 57.3707 19.6285 57.1507 19.6475C58.9593 19.0921 60.6571 20.1298 61.3099 21.3378C61.1199 20.745 60.7286 20.2396 60.2168 19.8709C61.0566 20.2921 61.717 21.0854 61.9254 22.3254C61.998 22.0101 62.0199 21.7109 61.9993 21.4306C62.0721 21.5792 62.138 21.7361 62.1963 21.9007C62.2738 22.1197 62.6292 21.6465 62.6753 21.8986C62.7485 21.3757 62.6864 20.8912 62.5215 20.4607C62.6814 20.7571 62.8135 21.0929 62.9102 21.4709C62.9563 21.1024 62.9427 20.7577 62.8814 20.4396C62.8517 20.3604 62.8187 20.2835 62.7832 20.2097C62.866 17.894 60.4014 16.9135 58.3883 17.8372C58.3918 17.8234 58.3955 17.809 58.399 17.795C60.4785 16.6625 63.1899 17.6695 63.0235 20.1514C62.552 18.755 61.5447 18.0903 60.4493 17.9534C59.9826 17.5786 58.8641 17.7868 57.8118 18.4758C57.7199 18.5363 57.6309 18.5985 57.5455 18.662C57.5455 18.6625 57.5455 18.6625 57.5455 18.6627C57.5919 18.6278 57.6393 18.5934 57.6876 18.5598C57.8787 18.3852 58.0941 18.2358 58.3272 18.1133C58.3264 18.1194 58.3255 18.1254 58.3246 18.1312C58.3255 18.1252 58.3266 18.1192 58.3279 18.1131C59.8424 17.3171 62.1018 17.6632 63.2155 19.7082C63.3221 19.9038 63.5873 19.4019 63.6696 19.6339C63.638 18.0817 62.4604 17.0633 61.0793 16.8511C60.1009 16.8392 59.0916 17.1815 58.4126 17.7433C58.4215 17.71 58.4308 17.6764 58.4403 17.6428C59.8831 16.2086 61.9919 16.4675 63.1281 17.3528C62.6523 16.8149 61.9789 16.4895 61.2514 16.3965C62.2116 16.4772 63.1591 16.9622 63.8899 18.0143C63.8546 17.8533 64.146 17.6917 64.0927 17.5483C64.0641 17.4712 64.0321 17.3974 63.9983 17.3253C64.0791 17.4224 64.1577 17.5253 64.234 17.635C63.7695 15.5092 61.6643 14.9218 59.8931 15.6915C61.6832 14.7917 64.1369 15.252 64.2581 17.457C65.3145 15.4147 61.9074 13.6044 59.3152 16C59.3111 16.0028 59.307 16.0054 59.3029 16.0079C59.3053 16.0017 59.3085 15.995 59.3111 15.989C60.9541 14.3834 63.8046 13.6078 64.8565 16.2225C64.8561 15.9109 64.8069 15.6317 64.7174 15.3843C64.7696 15.4879 64.8197 15.5972 64.8669 15.7126C64.7703 14.3602 63.677 13.5624 62.3497 13.5762C63.3114 13.4346 64.2678 13.8328 65.0006 15.0651C64.7934 14.1376 64.1428 13.5504 63.3208 13.3528C63.8135 13.3982 64.3209 13.5443 64.8331 13.8115C64.1632 13.2228 63.4867 12.9177 62.7966 12.9289C63.2984 12.8564 63.813 12.9188 64.3239 13.1532C63.2295 12.1697 62.0461 12.3312 60.7056 13.9165C60.6681 13.9415 60.6308 13.9673 60.5938 13.9938C60.8909 13.6117 61.2189 13.2303 61.5523 12.8848C62.3081 12.4003 63.1639 12.2188 64.0602 12.5225C63.506 12.12 62.9583 11.9661 62.4134 12.089C62.6965 11.863 62.9659 11.6884 63.2031 11.5892C62.7093 11.7046 62.367 11.8632 62.0439 12.0804L62.7219 11.1966L62.4905 10.7717L62.13 11.3726C62.2149 11.1546 62.2892 10.9333 62.3074 10.7867C62.3267 10.6343 62.1282 10.5205 62.1202 10.3409C62.0918 10.5196 62.0225 10.7389 61.922 10.9852C61.9423 10.7499 61.9332 10.5004 61.8856 10.2079C61.883 10.319 61.7547 10.3926 61.7287 10.5254C61.7053 10.6449 61.6741 10.7729 61.6364 10.9075C61.6262 10.6879 61.5915 10.4546 61.5242 10.1872C61.5549 10.582 61.4589 11.1275 61.2854 11.7233C61.2921 11.6744 61.298 11.6256 61.3027 11.5769C61.3467 11.1227 61.3216 10.7114 61.1428 10.158C61.1892 10.4781 61.1576 10.904 61.0718 11.3795C61.0479 10.8845 60.7572 10.0953 60.4391 10.0062C60.6174 10.1687 60.7266 10.5252 60.7697 10.9792C60.5617 10.5118 60.1507 10.1715 59.5534 9.94336C60.4675 10.6625 60.7262 11.728 60.557 12.8646C60.7019 11.284 59.6465 9.87792 58.3621 10.305C60.0693 10.7366 60.4965 12.4676 60.0209 13.9019C60.3247 11.7052 58.8271 9.99028 56.9694 10.5245C58.9541 10.5908 59.7419 11.7877 59.7406 13.2462C59.5458 11.6232 58.3933 10.4044 56.639 10.8175C59.3129 11.2097 59.595 13.6813 58.7736 15.7415C58.7482 15.7787 58.7235 15.8168 58.6984 15.8551C59.9787 12.9625 57.6259 10.353 55.7223 11.5201C58.3907 10.9968 59.1961 13.8272 58.5508 15.893C58.9781 13.7415 57.9856 11.5539 55.685 11.8199C58.4182 12.6956 58.7157 15.06 57.8816 16.9697C57.8826 16.9626 57.8842 16.9555 57.8855 16.9484C59.1627 13.6703 56.21 11.1983 54.6918 12.9289C56.7974 12.2251 58.1359 14.3158 57.9591 16.2998C58.0211 14.3817 56.6927 12.6588 54.5343 13.0172C54.6656 13.0469 54.7915 13.0816 54.9128 13.1201C54.8324 13.1156 54.7507 13.1132 54.6678 13.1156C54.5139 13.1194 54.4708 13.4479 54.3072 13.4753C54.4476 13.5069 54.582 13.5444 54.7111 13.5861C54.4654 13.584 54.2058 13.6132 53.9339 13.678C53.8223 13.8149 53.8719 14.0134 53.5851 14.2282C53.6702 14.2448 53.7528 14.2637 53.834 14.2835C54.5503 14.1623 55.3359 14.6096 55.8928 15.3505C55.8932 15.351 55.8934 15.3514 55.8939 15.3521C55.9088 15.3719 55.9235 15.3919 55.9383 15.4121C55.9415 15.4166 55.9448 15.4214 55.9478 15.4259C56.5746 16.455 56.6422 17.8673 56.1998 19.085C56.1844 19.0958 56.169 19.1065 56.1536 19.1171C56.2342 18.9072 56.2964 18.6833 56.3395 18.4515C56.3398 18.4498 56.3402 18.4481 56.3404 18.4463C56.3512 18.3871 56.3608 18.3273 56.3694 18.2672C56.3697 18.2657 56.3699 18.2644 56.3699 18.2627C56.3781 18.2044 56.3848 18.1458 56.3905 18.0869C56.3911 18.0806 56.3918 18.0744 56.3924 18.0681C56.3946 18.0432 56.3965 18.018 56.3985 17.9928C56.3989 17.9872 56.3991 17.9814 56.3998 17.9758C56.4015 17.9497 56.403 17.9239 56.4043 17.8979C56.4048 17.8918 56.405 17.8858 56.4054 17.8796C56.4065 17.8529 56.4076 17.826 56.4084 17.7991C56.4087 17.7963 56.4087 17.7935 56.4089 17.7907C56.4095 17.7616 56.41 17.7323 56.4102 17.7033C56.4104 17.7009 56.4104 17.6985 56.4102 17.6962C56.411 17.5711 56.4065 17.4456 56.3965 17.3203C56.3967 17.3199 56.3965 17.3195 56.3965 17.3191C56.3965 17.3186 56.3965 17.3184 56.3965 17.3178C56.3913 17.2549 56.3848 17.1918 56.377 17.129C56.377 17.1288 56.377 17.1288 56.377 17.1288C56.369 17.0657 56.3599 17.0028 56.3495 16.9402C56.3495 16.9398 56.3495 16.9396 56.3493 16.9393C56.3333 16.8457 56.3144 16.7525 56.2919 16.6604C56.2917 16.6597 56.2914 16.6591 56.2914 16.6584C56.2862 16.6367 56.2808 16.6152 56.2752 16.5934C56.275 16.5928 56.2748 16.5921 56.2743 16.5917C56.0163 15.6018 55.384 14.7392 54.3258 14.4473C54.0143 14.4138 53.6813 14.4286 53.3301 14.5016C53.7018 14.5636 54.0357 14.6624 54.3339 14.7909C53.9059 14.6686 53.4347 14.648 52.9366 14.7588C53.1836 14.7829 52.7561 15.1583 52.973 15.2147C53.1363 15.2569 53.2923 15.3073 53.4414 15.3645C53.1697 15.3673 52.8835 15.4117 52.5854 15.5057C52.8566 15.5281 53.1086 15.574 53.3409 15.6401C53.0696 15.6429 52.7843 15.687 52.4868 15.7808C52.9641 15.8202 53.3794 15.9317 53.7376 16.0992C53.2124 15.9171 52.6053 15.9115 51.9507 16.1522C52.7784 16.2208 52.0313 16.5967 52.287 16.6195C54.7046 16.8352 55.4644 18.7544 55.071 20.4275C55.0185 20.4592 54.9663 20.4921 54.9143 20.5266C55.3468 18.2573 53.6208 16.0372 51.3059 16.8885C54.1701 16.9899 54.965 19.7742 54.1878 21.7492C54.1854 21.7507 54.1831 21.752 54.1807 21.7533C54.9282 19.667 53.9963 17.0659 51.517 17.076C51.2752 17.0769 51.1796 17.3735 50.9175 17.4702C53.9278 17.5765 54.6123 20.5926 53.6106 22.5493C53.5894 22.5633 53.5688 22.5777 53.5474 22.5915C53.5679 22.5794 53.5879 22.5667 53.6082 22.554C53.5736 22.6218 53.5365 22.6884 53.4978 22.7534C53.3379 22.9176 53.1936 23.107 53.0703 23.3223C52.887 23.5164 52.6792 23.6856 52.4478 23.8217C52.6478 23.7123 52.8321 23.5875 53.0016 23.4493C52.979 23.4928 52.958 23.5373 52.9372 23.5827C49.7568 26.2575 47.4153 25.8924 44.7557 25.2109C44.4439 25.1311 44.0387 25.2256 43.5625 25.7456ZM52.8939 23.8669C53.1517 23.6355 53.4009 23.392 53.6414 23.1382C54.2039 22.779 54.8974 22.6354 55.5292 22.8491C55.4209 22.8709 55.3147 22.9051 55.2127 22.9527C55.4183 22.9129 55.6315 22.9236 55.8312 22.9826C56.169 23.1682 56.478 23.4717 56.7248 23.9177C56.8608 24.484 56.5634 25.0626 56.0737 25.3334C56.0687 25.3272 56.0635 25.3209 56.0581 25.3149C55.8122 24.4067 54.6069 23.5255 52.8939 23.8669ZM54.6231 21.9787C54.6357 21.9623 54.6482 21.9459 54.661 21.9294C54.6435 21.9479 54.6268 21.9655 54.6097 21.984C54.601 21.9871 54.5928 21.9905 54.5845 21.9937C54.6027 21.9345 54.624 21.8762 54.6476 21.8189C54.7093 21.7141 54.7795 21.6138 54.8571 21.5187C54.9089 21.5051 54.9607 21.493 55.0129 21.4819C55.4079 21.5578 55.7886 21.7027 56.1341 21.8984C55.667 21.7617 55.129 21.7873 54.6231 21.9787ZM62.627 19.9297C62.1508 19.186 61.3465 18.7653 60.4731 18.6157C60.4725 18.6153 60.4716 18.6151 60.4707 18.6149C60.2846 18.5832 60.0952 18.5639 59.905 18.5561C59.9033 18.5561 59.9011 18.5561 59.8987 18.5559C59.8671 18.5548 59.8355 18.5538 59.8038 18.5533C59.8023 18.5533 59.8012 18.5533 59.8001 18.5533C59.7683 18.5527 59.7364 18.5522 59.7046 18.5525C59.7037 18.5525 59.7031 18.5525 59.7026 18.5525C59.57 18.5529 59.4381 18.5593 59.307 18.571C59.3046 18.571 59.3029 18.5714 59.3007 18.5714C59.2359 18.5774 59.1714 18.5845 59.1072 18.5931C59.1062 18.5931 59.1051 18.5934 59.104 18.5934C59.0721 18.5977 59.0403 18.6024 59.0087 18.6073C59.0076 18.6073 59.0067 18.6073 59.0058 18.6076C58.9768 18.6121 58.9482 18.6168 58.9196 18.6218C58.9138 18.6228 58.9081 18.6237 58.9025 18.6248C58.7762 18.6474 58.6518 18.6749 58.5303 18.7077C58.5281 18.7081 58.5261 18.7085 58.5244 18.7092C58.4635 18.7255 58.4037 18.743 58.3446 18.7619C58.3428 18.7625 58.3411 18.763 58.3392 18.7636C58.28 18.7823 58.2219 18.8024 58.1645 18.8237C58.1624 18.8243 58.1604 18.825 58.1582 18.8258C57.926 18.9121 57.7078 19.0178 57.5104 19.1416C57.5076 19.1435 57.5048 19.1453 57.5017 19.1472C57.5022 19.147 57.5024 19.147 57.5028 19.1466C57.4751 19.1642 57.4476 19.1821 57.4205 19.2004C57.4025 19.2075 57.3843 19.215 57.3661 19.2228C57.3678 19.2154 57.3694 19.2079 57.3711 19.2006C58.9469 17.857 60.9476 18.2091 62.1198 19.1231C62.3146 19.3502 62.4857 19.6182 62.627 19.9297ZM57.3427 19.2329C57.3366 19.2352 57.3308 19.2378 57.3245 19.2406C57.331 19.2348 57.3373 19.2294 57.3438 19.2241C57.3434 19.2271 57.3431 19.2299 57.3427 19.2329ZM56.9735 19.1995C56.8712 19.3046 56.772 19.4165 56.6773 19.5366C56.6698 19.54 56.6624 19.5433 56.6548 19.5467C56.7521 19.4249 56.8587 19.3086 56.9735 19.1995ZM54.9091 20.5545C54.9563 20.5347 55.0047 20.5151 55.0543 20.4966C54.9624 20.8565 54.817 21.2035 54.6231 21.5182C54.604 21.5275 54.5848 21.5367 54.5657 21.5464C54.7297 21.2214 54.843 20.8875 54.9091 20.5545ZM54.174 21.7727C54.1759 21.7716 54.1776 21.7705 54.1798 21.7697C54.1636 21.8105 54.1467 21.8512 54.1291 21.8913C54.1447 21.8519 54.1594 21.8123 54.174 21.7727ZM54.5256 21.6231C54.5388 21.6183 54.5521 21.6136 54.5653 21.6089C54.5653 21.6093 54.5651 21.6095 54.5648 21.6097C54.5471 21.6231 54.5291 21.6366 54.5111 21.6502C54.5159 21.6414 54.5208 21.6321 54.5256 21.6231ZM54.5044 21.6625C54.5195 21.6523 54.5347 21.6424 54.5499 21.6325C54.5065 21.6973 54.4615 21.7602 54.414 21.8217C54.4134 21.8222 54.4125 21.8228 54.4123 21.8232C54.4446 21.7699 54.4751 21.7163 54.5044 21.6625ZM54.6894 21.6252C54.6831 21.6426 54.6768 21.6599 54.671 21.6775C54.6173 21.7854 54.5685 21.8988 54.5252 22.0183C54.3919 22.0749 54.2613 22.1435 54.1352 22.2241C54.1854 22.1595 54.2335 22.0943 54.2793 22.0284C54.3876 21.9283 54.4879 21.8254 54.5824 21.7206C54.6188 21.6891 54.6545 21.6573 54.6894 21.6252ZM54.6032 21.8982C54.5943 21.9304 54.5856 21.9632 54.578 21.9963C54.5676 22.0004 54.5577 22.0045 54.5473 22.0086C54.565 21.9713 54.5833 21.9345 54.6032 21.8982ZM58.5574 20.7422C58.5652 20.7491 58.5727 20.7562 58.5801 20.7633C58.584 20.7694 58.5879 20.7752 58.5916 20.7814C58.5805 20.7681 58.569 20.7552 58.5574 20.7422ZM52.7875 24.044C52.7942 24.0268 52.8009 24.0096 52.8079 23.9924C52.828 23.9581 52.8493 23.9243 52.8711 23.891C53.7281 23.7986 54.6218 24.086 55.1784 24.6033C54.5562 24.247 53.7547 24.0238 52.7875 24.044ZM57.2311 20.634C57.0166 20.6271 56.7917 20.6434 56.5588 20.6852C56.1073 20.7663 55.6241 20.9444 55.1212 21.2399C55.4854 20.9078 55.9454 20.6757 56.4225 20.6008C56.6912 20.5586 56.9653 20.5664 57.2311 20.634ZM59.2026 21.0036C59.7642 21.4939 60.1956 22.1795 60.3698 23.0455L59.2026 21.0036ZM58.4984 17.4532C58.478 17.5158 58.4588 17.5789 58.4408 17.6417C58.6711 17.4131 58.9185 17.2274 59.1759 17.0803C58.9424 17.1772 58.7146 17.3012 58.4984 17.4532ZM58.4126 17.744C58.4117 17.747 58.4107 17.7502 58.4098 17.7534C60.0372 16.5682 62.6972 16.5898 63.8271 19.1931C63.8148 18.8366 63.7498 18.512 63.6427 18.2197C62.5928 16.3633 59.8056 16.5896 58.4126 17.744ZM58.3745 17.8438C58.3771 17.8305 58.3795 17.8172 58.3821 17.8038C58.1665 17.9228 57.9576 18.0649 57.7594 18.2311C57.687 18.3561 57.622 18.4847 57.5652 18.6157C57.7325 18.3697 57.9362 18.1448 58.1663 17.9463C58.2445 17.8501 58.3253 17.7601 58.4085 17.6755C58.4022 17.7044 58.3964 17.733 58.3907 17.7618C58.2384 17.8901 58.1036 18.0296 57.9903 18.1786C58.1214 17.9917 58.2616 17.824 58.4087 17.6742C58.4219 17.6112 58.4358 17.5492 58.4503 17.4878C58.2798 17.6116 58.1169 17.7534 57.9632 17.9136C57.9017 18.0005 57.8436 18.089 57.7895 18.1796C57.978 18.0481 58.1738 17.9368 58.3745 17.8438ZM58.3892 17.7687C58.3897 17.7668 58.3901 17.7646 58.3905 17.7627C58.3751 17.7756 58.3597 17.7885 58.345 17.8017C58.3595 17.7907 58.3745 17.7797 58.3892 17.7687ZM60.4959 14.4822C60.433 14.5347 60.3704 14.5888 60.3091 14.6447C61.6195 13.8154 63.1819 13.785 64.0921 14.5106C63.1091 13.5575 61.7319 13.7265 60.4959 14.4822ZM57.3763 18.4618C57.362 18.4922 57.347 18.5225 57.3317 18.5527C57.3962 18.4918 57.4621 18.4336 57.5293 18.3781C57.5605 18.2774 57.5951 18.179 57.632 18.0832C57.539 18.205 57.4532 18.3316 57.3763 18.4618ZM57.0316 19.057C56.9824 19.1278 56.9304 19.1978 56.8758 19.2665C56.8758 19.2667 56.8758 19.2669 56.8758 19.2669C56.9213 19.2165 56.969 19.1661 57.019 19.116C57.0231 19.0962 57.0272 19.0766 57.0316 19.057ZM56.0956 19.2587C56.0522 19.3573 56.0046 19.4522 55.9528 19.5431C55.9433 19.5734 55.9333 19.604 55.9233 19.6343C55.9634 19.5809 56.0018 19.5273 56.0384 19.4733C56.0752 19.3945 56.1103 19.3149 56.1428 19.234C56.1272 19.2423 56.1114 19.2505 56.0956 19.2587ZM50.3704 24.8734C50.3985 24.8159 50.4243 24.758 50.4486 24.6997C50.6007 22.5809 48.9172 20.8357 46.9156 22.5499C47.4566 21.4302 48.5434 21.1226 49.388 21.5606C48.967 21.2735 48.4906 21.1308 48.0068 21.1981C47.8466 21.2425 47.6805 21.3021 47.5089 21.379C47.516 21.3635 47.5238 21.3488 47.5314 21.3338C47.2023 21.4784 46.8768 21.7309 46.5716 22.1123C46.778 21.5615 47.2086 21.1913 47.7203 21.0328C48.8078 19.6571 51.3848 21.2358 50.8113 23.7584C50.8141 23.7812 50.8169 23.8036 50.8195 23.8268C50.8117 23.8391 50.8039 23.8518 50.7961 23.8643C50.7948 23.8561 50.7931 23.8479 50.7916 23.8398C50.7246 24.1043 50.6243 24.3785 50.483 24.6607C50.4798 24.6799 50.4765 24.6995 50.4733 24.7188C51.5324 22.7996 51.1398 19.6754 48.5426 20.3432C50.2436 19.263 52.4166 21.7836 50.4655 24.7645C50.4492 24.8562 50.4302 24.9496 50.4083 25.045C50.4219 24.9638 50.4323 24.8827 50.4401 24.8024C50.3901 24.8775 50.3383 24.9526 50.2831 25.0284C50.3394 24.9466 50.3927 24.8613 50.443 24.7733C50.4441 24.7602 50.4456 24.7466 50.4462 24.7335C50.4219 24.78 50.3972 24.8267 50.3704 24.8734ZM50.9242 24.4076C51.0373 24.3691 51.1495 24.3236 51.2598 24.272C52.2957 22.6487 51.8168 19.9398 49.5405 19.7209C50.6128 19.172 51.728 20.0879 52.0292 21.4141C51.91 19.9514 51.0542 18.7018 49.3546 18.9733C50.0029 18.5613 50.6057 18.5165 51.1038 18.7255C50.7194 18.5273 50.2473 18.4485 49.6838 18.5385C52.3219 16.8619 54.2582 21.2802 51.3595 24.2233C51.3564 24.2248 51.3536 24.2266 51.3504 24.2281C51.3909 24.1768 51.429 24.1252 51.4661 24.0733C51.8784 23.525 52.1486 22.9456 52.2981 22.3773C52.1475 23.0831 51.8348 23.7453 51.3694 24.2182C53.0243 23.3737 54.2229 21.1607 52.7572 20.0793C54.5657 20.1118 54.0615 23.2975 51.3012 24.2894C51.2223 24.3854 51.1367 24.4799 51.0446 24.5727C50.9922 24.6287 50.9383 24.6825 50.8819 24.7333C50.9307 24.6861 50.9781 24.6388 51.0241 24.591C51.099 24.5034 51.1684 24.4104 51.2321 24.314C51.1324 24.3482 51.0297 24.3794 50.9242 24.4076ZM50.246 22.4615C50.5084 22.9865 50.6256 23.697 50.495 24.5843C50.633 24.2171 50.7014 23.8406 50.7064 23.4773C50.6013 23.112 50.4436 22.7674 50.246 22.4615ZM50.6887 23.0963C50.589 22.2006 50.09 21.4416 49.2916 21.1889C49.8974 21.5012 50.4315 22.1218 50.6887 23.0963ZM57.5024 18.4664C57.3951 18.5736 57.292 18.6887 57.1939 18.8118C57.1603 18.8855 57.1297 18.9599 57.1018 19.0351C57.203 18.9391 57.3122 18.8441 57.4285 18.752C57.4396 18.7034 57.4515 18.6553 57.4638 18.6076C57.437 18.6661 57.4107 18.7255 57.386 18.7862C57.4001 18.7748 57.4142 18.7636 57.4285 18.7522V18.7524C57.38 18.7907 57.3327 18.8295 57.287 18.8687C57.3496 18.7473 57.4164 18.6317 57.4868 18.5217C57.4918 18.5032 57.4972 18.4847 57.5024 18.4664Z" fill="#F20D0D"/>
<path d="M37.7794 26.9686L37.7266 26.7992C42.558 22.8699 42.6479 28.2806 42.0694 31.9252C42.03 32.1728 42.0389 32.4048 41.9804 32.624C42.3656 31.8753 43.1798 30.2893 43.5618 29.6642C44.1018 28.781 44.7136 28.2926 45.1619 28.2448C45.4995 28.2089 45.7575 28.3451 45.7517 29.178C45.7452 30.0934 45.7759 31.008 45.8045 31.9227C46.2329 31.0819 46.7711 30.2389 47.2382 29.4182C47.683 28.6364 48.1053 28.1854 48.9048 28.2575C49.3414 28.2967 49.6835 28.487 49.6746 29.1739C49.6456 31.4149 49.9756 33.1642 50.8895 34.3236C53.3385 37.431 57.1587 35.833 58.818 32.6554L59.1627 32.7518C58.1704 36.1834 52.6215 39.6131 49.2019 36.4243C48.229 35.517 47.3849 33.8074 46.9065 31.9732C46.4948 32.4834 45.6583 35.1924 45.0189 36.0872C44.7745 36.4288 44.279 36.471 43.9965 36.172C43.3816 35.6291 43.2457 32.9195 43.2141 32.2389C42.9883 32.7413 41.6573 36.2781 41.1837 37.8624C40.9952 38.4929 39.3615 38.6948 38.8517 38.5613C38.4383 37.0474 41.3986 25.8846 37.7794 26.9686Z" fill="white"/>
<path d="M27.7129 30.1113L27.6953 30.074C28.9671 28.4951 31.8297 27.7523 32.2338 30.2053C32.5701 32.2483 32.2843 35.3536 31.7992 37.7018C33.0951 35.5505 33.9288 33.8571 34.9326 31.6101C35.5766 30.1685 35.9854 30.2762 36.5615 30.1149L36.56 30.1154C37.0902 29.9668 37.9697 29.8777 37.7976 30.6378C37.4083 32.9137 36.3295 39.6563 39.1932 40.5341C34.9042 43.095 34.5647 37.8309 34.5485 35.0529C33.7661 36.8877 32.9776 38.0781 31.7606 39.9338C30.1311 42.4195 28.739 40.9095 28.9008 38.5921C29.0044 37.1111 30.2446 29.2048 27.7129 30.1113Z" fill="white"/>
<path d="M13.7068 23.9294L15.7792 23.0348C13.7276 27.607 18.3697 28.6034 20.7171 26.2085C22.9299 20.3041 30.8308 8.96209 37.5274 8.4683C39.2206 8.34345 40.6562 9.26022 40.1852 11.0085C38.7502 16.3343 30.339 22.8415 24.6543 25.3791C23.7008 27.6802 23.088 29.583 22.4963 31.9999C24.5159 29.9518 26.5246 30.1655 27.05 33.1003C27.4712 35.45 26.9642 38.9604 25.0649 41.9806C23.8468 43.8542 21.7933 45.0325 20.258 42.8778C17.6452 39.1035 18.4022 31.9907 20.1121 27.7848C15.4978 30.4925 12.532 27.2053 13.7068 23.9294ZM25.1971 23.8545C29.8225 21.1995 34.5902 16.3094 35.9769 12.2637C37.031 9.18746 35.7559 9.51401 33.508 11.3831C29.9326 14.3568 26.9872 19.3255 25.1971 23.8545ZM21.9898 33.7024C21.2074 35.7133 21.0832 39.4712 21.7107 41.5447C22.2134 43.2058 22.6447 42.7355 23.3086 41.2875C24.2416 38.9821 24.5373 36.5842 24.0908 34.1169C23.7987 32.5049 22.6367 32.724 21.9898 33.7024Z" fill="white"/>
<path d="M26.8324 42.2622L27.1825 43.6483C22.9482 53.6128 7.61906 54.3765 3.62459 43.693C-0.174876 33.5311 6.70516 16.0718 16.5446 12.2254C18.7362 11.3685 23.915 10.3342 24.1791 13.9124C24.443 17.4927 20.1511 21.3931 17.3509 22.8777L17.308 22.6816C19.3253 19.4855 20.2616 17.0809 20.5636 15.3987C21.0879 12.4799 19.238 12.0597 16.7457 13.8788C11.1737 17.9462 6.85097 28.1747 7.38592 36.913C8.20297 50.2611 21.2762 53.2876 26.8324 42.2622Z" fill="white"/>
<path fill-rule="evenodd" clip-rule="evenodd" d="M55.0508 7.87754C55.0508 7.11769 55.6568 6.51562 56.4218 6.51562C57.1867 6.51562 57.7929 7.11769 57.7929 7.87754C57.7929 8.6376 57.1867 9.23945 56.4218 9.23945C55.6568 9.23945 55.0508 8.6376 55.0508 7.87754ZM56.164 7.15622H56.4359C56.733 7.15622 56.7618 7.33252 56.7618 7.43885C56.7618 7.57425 56.6383 7.72169 56.3826 7.72169H56.164V7.15622ZM55.9289 6.95151V8.73361H56.164V7.9264H56.3659C56.5144 7.9264 56.5391 7.98387 56.5804 8.07407L56.8816 8.73361H57.1371L56.8279 8.02477C56.7867 7.93049 56.7124 7.84052 56.6259 7.82825V7.85278C56.8279 7.81576 57.0092 7.67649 57.0092 7.43885C57.0092 6.95969 56.5434 6.95151 56.4442 6.95151H55.9289Z" fill="#F20D0D"/>
<path fill-rule="evenodd" clip-rule="evenodd" d="M43.1562 25.7456C45.8444 26.9149 48.4538 26.5046 50.6692 25.2042C51.0135 25.2309 51.3469 25.3935 51.5783 25.6821C52.3698 26.6701 51.3887 28.0443 50.2133 27.7111C51.5471 28.472 52.9934 26.8279 52.0255 25.6201C51.7813 25.3153 51.4329 25.1386 51.0704 25.0999C52.1291 25.0531 53.5697 25.7654 53.2997 27.049C53.2354 27.3549 53.0592 27.614 52.8094 27.8088C53.2336 27.6147 53.5459 27.2821 53.6403 26.8621C53.8238 26.0455 53.1171 25.1999 52.0669 24.9797C51.6994 24.9027 51.3374 24.9126 51.0141 24.9924C51.1326 24.9165 51.2498 24.8381 51.366 24.7572C51.605 24.7195 51.8652 24.7139 52.1289 24.7408C52.128 24.7466 52.1269 24.7524 52.1258 24.7585C52.1271 24.7524 52.1282 24.7468 52.1295 24.741C53.233 24.854 54.3904 25.5349 54.2502 26.7909C54.2091 27.1577 54.0314 27.4819 53.7604 27.7387C54.2362 27.4631 54.5655 27.0376 54.6288 26.5332C54.752 25.5534 53.8258 24.639 52.5672 24.498C52.4679 24.487 52.3694 24.4812 52.2716 24.4801C52.2935 24.3378 52.3221 24.2014 52.3574 24.0711C52.2872 24.2018 52.23 24.3387 52.1878 24.4803C52.0099 24.4834 51.8366 24.503 51.6708 24.537C51.9089 24.3587 52.1412 24.1704 52.3678 23.9726C52.357 23.9965 52.3466 24.0206 52.3366 24.0451C52.3327 24.0451 52.3286 24.0451 52.3247 24.0453C52.3286 24.0455 52.3325 24.0458 52.3362 24.0458C52.2794 24.1822 52.23 24.3271 52.1891 24.4803C52.216 24.4799 52.243 24.4799 52.2699 24.4801C52.2896 24.332 52.3269 24.1876 52.3798 24.0479C53.5131 24.1065 54.6132 24.6827 55.2504 25.4763C55.0766 25.5032 54.8916 25.494 54.7011 25.4402C54.9082 25.5583 55.1182 25.6186 55.3214 25.6315C55.3552 25.9497 55.2846 26.2962 55.0764 26.6589C55.347 26.504 55.5245 26.2992 55.6178 26.0702C55.9496 26.8083 55.885 27.6502 55.1691 28.4189C56.4609 28.029 56.631 26.6624 55.8451 25.559C56.5918 25.2994 57.0853 24.4128 56.6858 23.618C56.613 23.3438 56.4849 23.1109 56.3164 22.9208C56.5198 23.1072 56.7027 23.346 56.8539 23.643C56.8368 23.4271 56.7909 23.2317 56.7215 23.0567C56.8255 23.1886 56.9215 23.3382 57.008 23.5068C56.9893 23.2773 56.9386 23.0713 56.8617 22.8877C57.5171 23.7771 57.6133 24.9014 56.5902 25.7559C58.735 25.3904 58.0683 21.8768 54.627 21.4775C54.6359 21.4756 54.6448 21.4737 54.6539 21.4717C56.9679 21.6523 59.0904 23.9622 57.3451 25.8358C59.6045 25.1541 58.4343 21.4829 54.713 21.4605C57.0383 21.0264 59.4208 22.8782 58.347 25.3185C59.1662 24.3079 59.1369 23.0543 58.5134 22.1621C58.9772 22.7516 59.1636 23.55 58.8694 24.4853C59.2654 23.8701 59.3707 23.2048 59.2492 22.6029C59.1441 22.0828 58.8698 21.6104 58.4659 21.2584C58.4046 21.0991 58.3229 20.9566 58.2252 20.8303C58.2391 20.8387 58.2529 20.8473 58.2666 20.8559C58.4261 21.0238 58.5706 21.2263 58.6943 21.4687C58.6845 21.348 58.6659 21.2337 58.6395 21.1256C58.7058 21.1816 58.7703 21.2406 58.8319 21.3021C58.8373 21.3122 58.8427 21.3224 58.8477 21.3327C58.8477 21.3273 58.8468 21.3219 58.8464 21.3165C59.4294 21.9072 59.7765 22.7536 59.6769 23.8593C59.8212 23.5836 59.9143 23.3109 59.9635 23.0455C59.9949 23.2011 60.0179 23.3627 60.0322 23.5298C60.0506 23.7517 60.4961 23.3976 60.4779 23.643C60.6731 23.1746 60.7333 22.7095 60.6852 22.2697C60.7615 22.5837 60.8025 22.9273 60.8003 23.302C60.9329 22.9706 61.0044 22.6472 61.0245 22.3368C60.916 21.2511 60.1687 20.4846 59.2314 20.0623C59.231 20.062 59.2305 20.0616 59.2297 20.0612C59.1224 20.013 59.0124 19.9693 58.9008 19.9301C58.8995 19.9297 58.8984 19.9294 58.8973 19.9288C58.8379 19.9081 58.7784 19.8888 58.7181 19.8705C58.7164 19.87 58.7142 19.8694 58.7123 19.8687C58.6843 19.8606 58.6564 19.8524 58.6282 19.8444C58.6267 19.844 58.6252 19.8436 58.6241 19.8431C58.6219 19.8427 58.6202 19.8425 58.6185 19.8416C58.5899 19.8339 58.5615 19.8263 58.5329 19.819C58.5322 19.8188 58.5316 19.8186 58.5309 19.8184C58.5305 19.8184 58.5305 19.8184 58.5301 19.8184C58.4703 19.8031 58.4102 19.7891 58.3498 19.7764C58.3478 19.776 58.3459 19.7753 58.3435 19.7749C58.3426 19.7749 58.3418 19.7747 58.3409 19.7745C58.3403 19.7745 58.34 19.7742 58.3396 19.7742C58.1546 19.7355 57.968 19.7088 57.7821 19.694C57.7789 19.6937 57.7761 19.6935 57.7732 19.6933C57.6502 19.6836 57.5278 19.6795 57.4066 19.6804C57.4027 19.6804 57.3993 19.6804 57.3956 19.6804C57.3932 19.6804 57.3908 19.6808 57.3887 19.6808C57.1817 19.6399 56.9644 19.6285 56.7445 19.6475C58.553 19.0921 60.2508 20.1298 60.9036 21.3378C60.7136 20.745 60.3223 20.2396 59.8106 19.8709C60.6504 20.2921 61.3107 21.0854 61.5192 22.3254C61.5918 22.0101 61.6137 21.7109 61.5931 21.4306C61.6659 21.5792 61.7317 21.7361 61.79 21.9007C61.8676 22.1197 62.2229 21.6465 62.2691 21.8986C62.3423 21.3757 62.2801 20.8912 62.1152 20.4607C62.2751 20.7571 62.4073 21.0929 62.5039 21.4709C62.5501 21.1024 62.5364 20.7577 62.4751 20.4396C62.4454 20.3604 62.4125 20.2835 62.377 20.2097C62.4597 17.894 59.9951 16.9135 57.9821 17.8372C57.9856 17.8234 57.9892 17.809 57.9927 17.795C60.0723 16.6625 62.7837 17.6695 62.6173 20.1514C62.1458 18.755 61.1385 18.0903 60.0428 17.9534C59.5763 17.5786 58.4579 17.7868 57.4056 18.4758C57.3137 18.5363 57.2246 18.5985 57.1393 18.662C57.1393 18.6625 57.1393 18.6625 57.1393 18.6627C57.1856 18.6278 57.2331 18.5934 57.2814 18.5598C57.4725 18.3852 57.6879 18.2358 57.921 18.1133C57.9201 18.1194 57.9193 18.1254 57.9184 18.1312C57.9193 18.1252 57.9204 18.1192 57.9217 18.1131C59.4362 17.3171 61.6956 17.6632 62.8092 19.7082C62.9158 19.9038 63.181 19.4019 63.2633 19.6339C63.2317 18.0817 62.0541 17.0633 60.6731 16.8511C59.6946 16.8392 58.6852 17.1815 58.0064 17.7433C58.0153 17.71 58.0246 17.6764 58.0341 17.6428C59.4769 16.2086 61.5857 16.4675 62.7219 17.3528C62.2461 16.8149 61.5727 16.4895 60.8451 16.3965C61.8054 16.4772 62.7529 16.9622 63.4837 18.0143C63.4484 17.8533 63.7396 17.6917 63.6865 17.5483C63.6579 17.4712 63.6258 17.3974 63.592 17.3253C63.6729 17.4224 63.7515 17.5253 63.8278 17.635C63.3632 15.5092 61.2581 14.9218 59.4869 15.6915C61.277 14.7917 63.7307 15.252 63.8518 17.457C64.9083 15.4147 61.5012 13.6044 58.909 16C58.9049 16.0028 58.9008 16.0054 58.8967 16.0079C58.899 16.0017 58.9023 15.995 58.9049 15.989C60.5479 14.3834 63.3983 13.6078 64.4503 16.2225C64.4498 15.9109 64.4006 15.6317 64.3112 15.3843C64.3634 15.4879 64.4134 15.5972 64.4606 15.7126C64.364 14.3602 63.2707 13.5624 61.9434 13.5762C62.9052 13.4346 63.8616 13.8328 64.5943 15.0651C64.3872 14.1376 63.7366 13.5504 62.9145 13.3528C63.4072 13.3982 63.9144 13.5443 64.4269 13.8115C63.7569 13.2228 63.0805 12.9177 62.3904 12.9289C62.8922 12.8564 63.4068 12.9188 63.9177 13.1532C62.8233 12.1697 61.6399 12.3312 60.2994 13.9165C60.2619 13.9415 60.2246 13.9673 60.1875 13.9938C60.4846 13.6117 60.8126 13.2303 61.1461 12.8848C61.9018 12.4003 62.7577 12.2188 63.654 12.5225C63.0998 12.12 62.552 11.9661 62.0071 12.089C62.2903 11.863 62.5596 11.6884 62.7969 11.5892C62.3031 11.7046 61.9608 11.8632 61.6377 12.0804L62.3156 11.1966L62.0843 10.7717L61.7237 11.3726C61.8084 11.1546 61.883 10.9333 61.9012 10.7867C61.9205 10.6343 61.722 10.5205 61.714 10.3409C61.6856 10.5196 61.6163 10.7389 61.5157 10.9852C61.5361 10.7499 61.527 10.5004 61.4793 10.2079C61.4767 10.319 61.3485 10.3926 61.3225 10.5254C61.2991 10.6449 61.2679 10.7729 61.2302 10.9075C61.22 10.6879 61.1853 10.4546 61.1179 10.1872C61.1487 10.582 61.0527 11.1275 60.8792 11.7233C60.8859 11.6744 60.8917 11.6256 60.8965 11.5769C60.9405 11.1227 60.9153 10.7114 60.7366 10.158C60.783 10.4781 60.7513 10.904 60.6655 11.3795C60.6417 10.8845 60.3509 10.0953 60.0329 10.0062C60.2112 10.1687 60.3204 10.5252 60.3635 10.9792C60.1555 10.5118 59.7442 10.1715 59.1471 9.94336C60.0612 10.6625 60.3199 11.728 60.1507 12.8646C60.2957 11.284 59.2403 9.87792 57.9559 10.305C59.663 10.7366 60.0903 12.4676 59.6147 13.9019C59.9185 11.7052 58.4208 9.99028 56.5631 10.5245C58.5478 10.5908 59.3356 11.7877 59.3343 13.2462C59.1395 11.6232 57.9869 10.4044 56.2327 10.8175C58.9066 11.2097 59.1887 13.6813 58.3673 15.7415C58.342 15.7787 58.3173 15.8168 58.2922 15.8551C59.5724 12.9625 57.2197 10.353 55.316 11.5201C57.9845 10.9968 58.7898 13.8272 58.1446 15.893C58.5719 13.7415 57.5793 11.5539 55.2788 11.8199C58.012 12.6956 58.3095 15.06 57.4753 16.9697C57.4764 16.9626 57.4777 16.9555 57.4792 16.9484C58.7565 13.6703 55.8037 11.1983 54.2856 12.9289C56.3911 12.2251 57.7297 14.3158 57.5529 16.2998C57.6149 14.3817 56.2865 12.6588 54.128 13.0172C54.2593 13.0469 54.3852 13.0816 54.5066 13.1201C54.4262 13.1156 54.3445 13.1132 54.2615 13.1156C54.1077 13.1194 54.0646 13.4479 53.901 13.4753C54.0414 13.5069 54.1757 13.5444 54.3048 13.5861C54.0591 13.584 53.7996 13.6132 53.5274 13.678C53.4161 13.8149 53.4657 14.0134 53.1788 14.2282C53.264 14.2448 53.3465 14.2637 53.4278 14.2835C54.1441 14.1623 54.9297 14.6096 55.4865 15.3505C55.487 15.351 55.4872 15.3514 55.4876 15.3521C55.5026 15.3719 55.5173 15.3919 55.532 15.4121C55.5353 15.4166 55.5383 15.4214 55.5416 15.4259C56.1684 16.455 56.236 17.8673 55.7935 19.085C55.7782 19.0958 55.7628 19.1065 55.7474 19.1171C55.828 18.9072 55.8902 18.6833 55.9333 18.4515C55.9335 18.4498 55.934 18.4481 55.9342 18.4463C55.945 18.3871 55.9545 18.3273 55.9632 18.2672C55.9634 18.2657 55.9636 18.2644 55.9636 18.2627C55.9719 18.2044 55.9786 18.1458 55.9842 18.0869C55.9849 18.0806 55.9855 18.0744 55.9862 18.0681C55.9883 18.0432 55.9903 18.018 55.9922 17.9928C55.9927 17.9872 55.9929 17.9814 55.9935 17.9758C55.9953 17.9497 55.9968 17.9239 55.9981 17.8979C55.9985 17.8918 55.9987 17.8858 55.9992 17.8796C56.0003 17.8529 56.0013 17.826 56.0022 17.7991C56.0024 17.7963 56.0024 17.7935 56.0026 17.7907C56.0033 17.7616 56.0037 17.7323 56.0039 17.7033C56.0042 17.7009 56.0042 17.6985 56.0039 17.6962C56.0048 17.5711 56.0002 17.4456 55.9903 17.3203C55.9905 17.3199 55.9903 17.3195 55.9903 17.3191C55.9903 17.3186 55.9903 17.3184 55.9903 17.3178C55.9851 17.2549 55.9786 17.1918 55.9708 17.129C55.9708 17.1288 55.9708 17.1288 55.9708 17.1288C55.9628 17.0657 55.9537 17.0028 55.9433 16.9402C55.9433 16.9398 55.9433 16.9396 55.9431 16.9393C55.927 16.8457 55.9082 16.7525 55.8856 16.6604C55.8854 16.6597 55.8852 16.6591 55.8852 16.6584C55.88 16.6367 55.8746 16.6152 55.869 16.5934C55.8687 16.5928 55.8685 16.5921 55.8681 16.5917C55.61 15.6018 54.9778 14.7392 53.9196 14.4473C53.608 14.4138 53.275 14.4286 52.9238 14.5016C53.2956 14.5636 53.6295 14.6624 53.9276 14.7909C53.4997 14.6686 53.0285 14.648 52.5303 14.7588C52.7773 14.7829 52.3496 15.1583 52.5667 15.2147C52.7301 15.2569 52.8861 15.3073 53.0352 15.3645C52.7635 15.3673 52.4773 15.4117 52.1791 15.5057C52.4504 15.5281 52.7024 15.574 52.9346 15.6401C52.6634 15.6429 52.378 15.687 52.0805 15.7808C52.5579 15.8202 52.9732 15.9317 53.3311 16.0992C52.8062 15.9171 52.1991 15.9115 51.5445 16.1522C52.3722 16.2208 51.6251 16.5967 51.8808 16.6195C54.2983 16.8352 55.0582 18.7544 54.6647 20.4275C54.6123 20.4592 54.5601 20.4921 54.5079 20.5266C54.9405 18.2573 53.2146 16.0372 50.8997 16.8885C53.7638 16.9899 54.5588 19.7742 53.7816 21.7492C53.7792 21.7507 53.7768 21.752 53.7744 21.7533C54.5219 19.667 53.5901 17.0659 51.1107 17.076C50.8689 17.0769 50.7732 17.3735 50.5112 17.4702C53.5216 17.5765 54.206 20.5926 53.2044 22.5493C53.1831 22.5633 53.1626 22.5777 53.1409 22.5915C53.1617 22.5794 53.1816 22.5667 53.202 22.554C53.1673 22.6218 53.1303 22.6884 53.0915 22.7534C52.9316 22.9176 52.7873 23.107 52.664 23.3223C52.4805 23.5164 52.2729 23.6856 52.0415 23.8217C52.2415 23.7123 52.4259 23.5875 52.5953 23.4493C52.5728 23.4928 52.5518 23.5373 52.531 23.5827C49.3505 26.2575 47.009 25.8924 44.3494 25.2109C44.0376 25.1311 43.6325 25.2256 43.1562 25.7456ZM52.4877 23.8669C52.7455 23.6355 52.9947 23.392 53.2352 23.1382C53.7976 22.779 54.4912 22.6354 55.123 22.8491C55.0146 22.8709 54.9085 22.9051 54.8064 22.9527C55.012 22.9129 55.2252 22.9236 55.425 22.9826C55.7628 23.1682 56.0718 23.4717 56.3185 23.9177C56.4546 24.484 56.1569 25.0626 55.6675 25.3334C55.6625 25.3272 55.6573 25.3209 55.6519 25.3149C55.4059 24.4067 54.2006 23.5255 52.4877 23.8669ZM54.2169 21.9787C54.2294 21.9623 54.242 21.9459 54.2548 21.9294C54.2372 21.9479 54.2206 21.9655 54.2032 21.984C54.1948 21.9871 54.1865 21.9905 54.1783 21.9937C54.1965 21.9345 54.2175 21.8762 54.2414 21.8189C54.3031 21.7141 54.3733 21.6138 54.4509 21.5187C54.5026 21.5051 54.5544 21.493 54.6067 21.4819C55.0016 21.5578 55.3823 21.7027 55.7279 21.8984C55.2608 21.7617 54.7228 21.7873 54.2169 21.9787ZM62.2208 19.9297C61.7445 19.186 60.9403 18.7653 60.0669 18.6157C60.0662 18.6153 60.0654 18.6151 60.0645 18.6149C59.8784 18.5832 59.689 18.5639 59.4988 18.5561C59.497 18.5561 59.4949 18.5561 59.4925 18.5559C59.4609 18.5548 59.4292 18.5538 59.3976 18.5533C59.3961 18.5533 59.395 18.5533 59.3939 18.5533C59.3621 18.5527 59.3302 18.5522 59.2983 18.5525C59.2975 18.5525 59.2968 18.5525 59.2964 18.5525C59.1638 18.5529 59.0319 18.5593 58.9008 18.571C58.8984 18.571 58.8967 18.5714 58.8945 18.5714C58.8297 18.5774 58.7651 18.5845 58.701 18.5931C58.6999 18.5931 58.6988 18.5934 58.6978 18.5934C58.6659 18.5977 58.6341 18.6024 58.6024 18.6073C58.6013 18.6073 58.6005 18.6073 58.5996 18.6076C58.5706 18.6121 58.542 18.6168 58.5134 18.6218C58.5075 18.6228 58.5019 18.6237 58.4963 18.6248C58.3699 18.6474 58.2456 18.6749 58.124 18.7077C58.1219 18.7081 58.1199 18.7085 58.1182 18.7092C58.0573 18.7255 57.9975 18.743 57.9383 18.7619C57.9366 18.7625 57.9349 18.763 57.9329 18.7636C57.8738 18.7823 57.8157 18.8024 57.7583 18.8237C57.7561 18.8243 57.7542 18.825 57.752 18.8258C57.5197 18.9121 57.3016 19.0178 57.1042 19.1416C57.1014 19.1435 57.0985 19.1453 57.0955 19.1472C57.0959 19.147 57.0962 19.147 57.0966 19.1466C57.0689 19.1642 57.0413 19.1821 57.0143 19.2004C56.9963 19.2075 56.9778 19.215 56.9599 19.2228C56.9616 19.2154 56.9631 19.2079 56.9648 19.2006C58.5407 17.857 60.5414 18.2091 61.7133 19.1231C61.9083 19.3502 62.0795 19.6182 62.2208 19.9297ZM56.9365 19.2329C56.9304 19.2352 56.9246 19.2378 56.9183 19.2406C56.9248 19.2348 56.931 19.2294 56.9375 19.2241C56.9371 19.2271 56.9369 19.2299 56.9365 19.2329ZM56.5673 19.1995C56.465 19.3046 56.3658 19.4165 56.2711 19.5366C56.2635 19.54 56.2561 19.5433 56.2485 19.5467C56.3458 19.4249 56.4524 19.3086 56.5673 19.1995ZM54.5029 20.5545C54.5501 20.5347 54.5984 20.5151 54.648 20.4966C54.5562 20.8565 54.4108 21.2035 54.2169 21.5182C54.1978 21.5275 54.1785 21.5367 54.1595 21.5464C54.3235 21.2214 54.4368 20.8875 54.5029 20.5545ZM53.7677 21.7727C53.7697 21.7716 53.7714 21.7705 53.7736 21.7697C53.7573 21.8105 53.7404 21.8512 53.7227 21.8913C53.7385 21.8519 53.7532 21.8123 53.7677 21.7727ZM54.1194 21.6231C54.1326 21.6183 54.1458 21.6136 54.159 21.6089C54.159 21.6093 54.1588 21.6095 54.1586 21.6097C54.1408 21.6231 54.1228 21.6366 54.1048 21.6502C54.1096 21.6414 54.1146 21.6321 54.1194 21.6231ZM54.0981 21.6625C54.1133 21.6523 54.1285 21.6424 54.1436 21.6325C54.1003 21.6973 54.0552 21.7602 54.0078 21.8217C54.0069 21.8222 54.0063 21.8228 54.0058 21.8232C54.0383 21.7699 54.0689 21.7163 54.0981 21.6625ZM54.2829 21.6252C54.2769 21.6426 54.2706 21.6599 54.2648 21.6775C54.211 21.7854 54.1623 21.8988 54.1189 22.0183C53.9857 22.0749 53.855 22.1435 53.7289 22.2241C53.7792 22.1595 53.8273 22.0943 53.873 22.0284C53.9814 21.9283 54.0817 21.8254 54.1761 21.7206C54.2125 21.6891 54.2483 21.6573 54.2829 21.6252ZM54.1969 21.8982C54.1878 21.9304 54.1794 21.9632 54.1718 21.9963C54.1614 22.0004 54.1514 22.0045 54.141 22.0086C54.1588 21.9713 54.177 21.9345 54.1969 21.8982ZM58.1511 20.7422C58.1589 20.7491 58.1665 20.7562 58.1739 20.7633C58.1778 20.7694 58.1817 20.7752 58.1853 20.7814C58.1743 20.7681 58.1628 20.7552 58.1511 20.7422ZM52.3813 24.044C52.388 24.0268 52.3947 24.0096 52.4016 23.9924C52.4218 23.9581 52.443 23.9243 52.4649 23.891C53.3218 23.7986 54.2156 24.086 54.7722 24.6033C54.1499 24.247 53.3485 24.0238 52.3813 24.044ZM56.8249 20.634C56.6104 20.6271 56.3855 20.6434 56.1526 20.6852C55.701 20.7663 55.2179 20.9444 54.715 21.2399C55.0792 20.9078 55.5392 20.6757 56.0163 20.6008C56.2849 20.5586 56.559 20.5664 56.8249 20.634ZM58.7963 21.0036C59.3579 21.4939 59.7893 22.1795 59.9635 23.0455L58.7963 21.0036ZM58.0922 17.4532C58.0718 17.5158 58.0525 17.5789 58.0345 17.6417C58.2649 17.4131 58.5123 17.2274 58.7697 17.0803C58.5361 17.1772 58.3084 17.3012 58.0922 17.4532ZM58.0064 17.744C58.0055 17.747 58.0044 17.7502 58.0035 17.7534C59.6309 16.5682 62.2909 16.5898 63.4209 19.1931C63.4085 18.8366 63.3435 18.512 63.2365 18.2197C62.1865 16.3633 59.3993 16.5896 58.0064 17.744ZM57.9682 17.8438C57.9708 17.8305 57.9732 17.8172 57.9758 17.8038C57.7602 17.9228 57.5514 18.0649 57.3531 18.2311C57.2808 18.3561 57.2157 18.4847 57.1588 18.6157C57.3262 18.3697 57.5299 18.1448 57.76 17.9463C57.8382 17.8501 57.9191 17.7601 58.0023 17.6755C57.996 17.7044 57.9901 17.733 57.9845 17.7618C57.8322 17.8901 57.6974 18.0296 57.5841 18.1786C57.7152 17.9917 57.8554 17.824 58.0025 17.6742C58.0157 17.6112 58.0296 17.5492 58.0441 17.4878C57.8736 17.6116 57.7106 17.7534 57.557 17.9136C57.4955 18.0005 57.4374 18.089 57.3832 18.1796C57.5717 18.0481 57.7676 17.9368 57.9682 17.8438ZM57.983 17.7687C57.9834 17.7668 57.9838 17.7646 57.9843 17.7627C57.9689 17.7756 57.9535 17.7885 57.9388 17.8017C57.9533 17.7907 57.9682 17.7797 57.983 17.7687ZM60.0896 14.4822C60.0268 14.5347 59.9642 14.5888 59.9029 14.6447C61.2133 13.8154 62.7756 13.785 63.6859 14.5106C62.7028 13.5575 61.3257 13.7265 60.0896 14.4822ZM56.97 18.4618C56.9557 18.4922 56.9408 18.5225 56.9254 18.5527C56.99 18.4918 57.0559 18.4336 57.123 18.3781C57.1542 18.2774 57.1889 18.179 57.2257 18.0832C57.1328 18.205 57.047 18.3316 56.97 18.4618ZM56.6253 19.057C56.5762 19.1278 56.5242 19.1978 56.4696 19.2665C56.4696 19.2667 56.4696 19.2669 56.4696 19.2669C56.5151 19.2165 56.5627 19.1661 56.6128 19.116C56.6169 19.0962 56.621 19.0766 56.6253 19.057ZM55.6893 19.2587C55.646 19.3573 55.5983 19.4522 55.5466 19.5431C55.537 19.5734 55.5271 19.604 55.5171 19.6343C55.5572 19.5809 55.5955 19.5273 55.6321 19.4733C55.669 19.3945 55.7041 19.3149 55.7366 19.234C55.721 19.2423 55.7049 19.2505 55.6893 19.2587ZM49.9641 24.8734C49.9923 24.8159 50.0181 24.758 50.0423 24.6997C50.1944 22.5809 48.5109 20.8357 46.5094 22.5499C47.0504 21.4302 48.1372 21.1226 48.9818 21.5606C48.5608 21.2735 48.0843 21.1308 47.6005 21.1981C47.4404 21.2425 47.2742 21.3021 47.1026 21.379C47.1098 21.3635 47.1176 21.3488 47.1252 21.3338C46.796 21.4784 46.4706 21.7309 46.1653 22.1123C46.3718 21.5615 46.8023 21.1913 47.3141 21.0328C48.4015 19.6571 50.9786 21.2358 50.405 23.7584C50.4079 23.7812 50.4107 23.8036 50.4133 23.8268C50.4055 23.8391 50.3977 23.8518 50.3899 23.8643C50.3886 23.8561 50.3869 23.8479 50.3853 23.8398C50.3184 24.1043 50.2181 24.3785 50.0768 24.6607C50.0736 24.6799 50.0703 24.6995 50.0671 24.7188C51.1261 22.7996 50.7335 19.6754 48.1363 20.3432C49.8374 19.263 52.0103 21.7836 50.0592 24.7645C50.043 24.8562 50.0239 24.9496 50.0021 25.045C50.0157 24.9638 50.0261 24.8827 50.0339 24.8024C49.9839 24.8775 49.9321 24.9526 49.8768 25.0284C49.9332 24.9466 49.9864 24.8613 50.0367 24.7733C50.0378 24.7602 50.0391 24.7466 50.04 24.7335C50.0157 24.78 49.991 24.8267 49.9641 24.8734ZM50.5179 24.4076C50.631 24.3691 50.7433 24.3236 50.8535 24.272C51.8894 22.6487 51.4106 19.9398 49.1343 19.7209C50.2066 19.172 51.3218 20.0879 51.6229 21.4141C51.5038 19.9514 50.6479 18.7018 48.9484 18.9733C49.5967 18.5613 50.1994 18.5165 50.6975 18.7255C50.3132 18.5273 49.8411 18.4485 49.2775 18.5385C51.9156 16.8619 53.852 21.2802 50.9532 24.2233C50.9502 24.2248 50.9474 24.2266 50.9441 24.2281C50.9846 24.1768 51.0228 24.1252 51.0598 24.0733C51.4721 23.525 51.7423 22.9456 51.8918 22.3773C51.7412 23.0831 51.4286 23.7453 50.9632 24.2182C52.6181 23.3737 53.8167 21.1607 52.3507 20.0793C54.1592 20.1118 53.6553 23.2975 50.8949 24.2894C50.8161 24.3854 50.7305 24.4799 50.6384 24.5727C50.586 24.6287 50.532 24.6825 50.4757 24.7333C50.5244 24.6861 50.5719 24.6388 50.6178 24.591C50.6928 24.5034 50.7621 24.4104 50.8258 24.314C50.7262 24.3482 50.6234 24.3794 50.5179 24.4076ZM49.8398 22.4615C50.1022 22.9865 50.2194 23.697 50.0887 24.5843C50.2267 24.2171 50.2952 23.8406 50.3002 23.4773C50.1951 23.112 50.0374 22.7674 49.8398 22.4615ZM50.2824 23.0963C50.1828 22.2006 49.6838 21.4416 48.8854 21.1889C49.4912 21.5012 50.0252 22.1218 50.2824 23.0963ZM57.0962 18.4664C56.9889 18.5736 56.8858 18.6887 56.7876 18.8118C56.754 18.8855 56.7233 18.9599 56.6955 19.0351C56.7967 18.9391 56.9059 18.8441 57.0223 18.752C57.0333 18.7034 57.0452 18.6553 57.0576 18.6076C57.0307 18.6661 57.0045 18.7255 56.9798 18.7862C56.9939 18.7748 57.008 18.7636 57.0223 18.7522V18.7524C56.9737 18.7907 56.9265 18.8295 56.8808 18.8687C56.9434 18.7473 57.0101 18.6317 57.0806 18.5217C57.0855 18.5032 57.091 18.4847 57.0962 18.4664Z" fill="white"/>
</svg>
