<svg width="22" height="20" viewBox="0 0 22 20" fill="none" xmlns="http://www.w3.org/2000/svg">
<path d="M1.14709 0.0145645C0.740917 -0.0666695 0.345798 0.196743 0.264565 0.602913C0.183331 1.00908 0.446743 1.4042 0.852913 1.48544L1.14709 0.0145645ZM3.8 4.25L3.05372 4.32463L3.05446 4.332L3.05534 4.33936L3.8 4.25ZM20.2855 7.10783L19.5579 6.92593L20.2855 7.10783ZM19.1628 11.5989L18.4352 11.417L19.1628 11.5989ZM3.6472 2.72203L2.90092 2.79665L3.6472 2.72203ZM0.852913 1.48544L1.90227 1.69531L2.19645 0.224437L1.14709 0.0145645L0.852913 1.48544ZM6.77435 15H15.7673V13.5H6.77435V15ZM19.8904 11.7808L21.0131 7.28973L19.5579 6.92593L18.4352 11.417L19.8904 11.7808ZM2.90092 2.79665L3.05372 4.32463L4.54628 4.17537L4.39348 2.6474L2.90092 2.79665ZM3.05534 4.33936L4.04394 12.5777L5.53325 12.3989L4.54466 4.16064L3.05534 4.33936ZM18.0542 3.5H3.8V5H18.0542V3.5ZM21.0131 7.28973C21.4944 5.36473 20.0385 3.5 18.0542 3.5V5C19.0626 5 19.8025 5.94765 19.5579 6.92593L21.0131 7.28973ZM15.7673 15C17.7175 15 19.4174 13.6727 19.8904 11.7808L18.4352 11.417C18.1291 12.6412 17.0292 13.5 15.7673 13.5V15ZM6.77435 13.5C6.1416 13.5 5.60864 13.0272 5.53325 12.3989L4.04394 12.5777C4.20979 13.9598 5.3823 15 6.77435 15V13.5ZM1.90227 1.69531C2.44102 1.80306 2.84626 2.24996 2.90092 2.79665L4.39348 2.6474C4.27321 1.44468 3.3817 0.461486 2.19645 0.224437L1.90227 1.69531Z" fill="white"/>
<path d="M12 12C12.4142 12 12.75 11.6642 12.75 11.25C12.75 10.8358 12.4142 10.5 12 10.5V12ZM8 10.5C7.58579 10.5 7.25 10.8358 7.25 11.25C7.25 11.6642 7.58579 12 8 12V10.5ZM8 12H12V10.5H8V12Z" fill="white"/>
<circle cx="7.5" cy="17.75" r="1.5" fill="white"/>
<circle cx="16.5" cy="17.75" r="1.5" fill="white"/>
</svg>
