<?xml version="1.0" encoding="UTF-8"?>
<!DOCTYPE svg PUBLIC "-//W3C//DTD SVG 1.1//EN" "http://www.w3.org/Graphics/SVG/1.1/DTD/svg11.dtd">
<!-- Creator: CorelDRAW 2018 (64-Bit) -->
<svg xmlns="http://www.w3.org/2000/svg" xml:space="preserve" width="1000px" height="3.52778E+06px" version="1.1" style="shape-rendering:geometricPrecision; text-rendering:geometricPrecision; image-rendering:optimizeQuality; fill-rule:evenodd; clip-rule:evenodd"
viewBox="0 0 1431.49 1431.49"
 xmlns:xlink="http://www.w3.org/1999/xlink">
 <defs>
  <style type="text/css">
   <![CDATA[
    .fil1 {fill:none}
    .fil2 {fill:#DA5C34;fill-rule:nonzero}
    .fil0 {fill:#DA5C34;fill-rule:nonzero}
   ]]>
  </style>
 </defs>
 <g id="Слой_x0020_1">
  <metadata id="CorelCorpID_0Corel-Layer"/>
  <g id="_2320739864384">
   <path class="fil0" d="M295.11 136.71c15.98,-11.58 38.32,-8.01 49.9,7.97 11.58,15.98 8.02,38.33 -7.97,49.91 -83.36,60.56 -149.73,139.29 -195.27,228.68 -45.52,89.34 -70.2,189.34 -70.2,292.48 0,177.88 72.1,338.93 188.67,455.5 116.58,116.57 277.62,188.67 455.51,188.67 177.88,0 338.93,-72.1 455.5,-188.67 116.57,-116.57 188.67,-277.62 188.67,-455.5 0,-177.89 -72.1,-338.93 -188.67,-455.5 -116.57,-116.57 -277.62,-188.67 -455.5,-188.67 -19.77,0 -35.79,-16.03 -35.79,-35.79 0,-19.77 16.02,-35.79 35.79,-35.79 197.64,0 376.58,80.11 506.1,209.64 129.53,129.53 209.64,308.46 209.64,506.11 0,197.64 -80.11,376.58 -209.64,506.1 -129.52,129.53 -308.46,209.64 -506.1,209.64 -197.65,0 -376.59,-80.11 -506.11,-209.64 -129.53,-129.52 -209.64,-308.46 -209.64,-506.1 0,-114.52 27.43,-225.61 78.03,-324.91 50.57,-99.27 124.35,-186.76 217.08,-254.13z"/>
   <rect class="fil1" width="1431.49" height="1431.49"/>
   <path class="fil2" d="M335.73 773.35l0 -45.52 174.49 -228.11 70.31 0 -171.97 228.11 -32.87 -10.11 280.71 0 0 55.63 -320.67 0zm194.22 80.42l0 -80.42 2.02 -55.63 0 -71.32 61.71 0 0 207.37 -63.73 0zm214.12 3.54c-11.47,0 -21.24,-3.96 -29.34,-11.88 -8.09,-7.93 -12.14,-17.96 -12.14,-30.1 0,-12.81 4.05,-23.01 12.14,-30.6 8.1,-7.58 17.87,-11.38 29.34,-11.38 11.46,0 21.24,3.8 29.33,11.38 8.1,7.59 12.14,17.79 12.14,30.6 0,12.14 -4.04,22.17 -12.14,30.1 -8.09,7.92 -17.87,11.88 -29.33,11.88zm211.59 1.52c-24.95,0 -49.31,-3.63 -73.09,-10.87 -23.77,-7.25 -43.75,-17.29 -59.93,-30.1l27.82 -51.08c12.81,10.45 28.4,18.88 46.78,25.29 18.38,6.4 37.51,9.61 57.41,9.61 23.26,0 41.56,-4.89 54.87,-14.67 13.32,-9.78 19.98,-22.93 19.98,-39.45 0,-11.13 -2.78,-20.91 -8.34,-29.34 -5.57,-8.43 -15.34,-14.83 -29.34,-19.22 -13.99,-4.38 -33.13,-6.57 -57.4,-6.57l-85.48 0 18.21 -192.71 207.87 0 0 55.13 -183.6 0 34.4 -31.36 -13.66 144.15 -34.39 -30.85 71.31 0c35.07,0 63.31,4.64 84.72,13.91 21.41,9.27 37.09,22.09 47.04,38.44 9.95,16.35 14.92,34.98 14.92,55.89 0,20.57 -5.06,39.45 -15.17,56.65 -10.12,17.19 -25.54,31.02 -46.28,41.47 -20.74,10.45 -46.96,15.68 -78.65,15.68z"/>
  </g>
 </g>
</svg>
