<svg width="19" height="19" viewBox="0 0 19 19" fill="none" xmlns="http://www.w3.org/2000/svg">
<path d="M12.48 12.956V14H6.444V13.184L9.864 9.884C10.28 9.484 10.56 9.14 10.704 8.852C10.848 8.556 10.92 8.26 10.92 7.964C10.92 7.524 10.764 7.184 10.452 6.944C10.148 6.696 9.708 6.572 9.132 6.572C8.204 6.572 7.488 6.876 6.984 7.484L6.168 6.776C6.496 6.376 6.924 6.064 7.452 5.84C7.988 5.616 8.584 5.504 9.24 5.504C10.12 5.504 10.82 5.716 11.34 6.14C11.86 6.556 12.12 7.124 12.12 7.844C12.12 8.292 12.024 8.716 11.832 9.116C11.64 9.516 11.276 9.972 10.74 10.484L8.172 12.956H12.48Z" fill="#545454"/>
<rect x="0.5" y="0.5" width="18" height="18" rx="9" stroke="#F20D0D"/>
</svg>
