<svg width="68" height="68" viewBox="0 0 68 68" fill="none" xmlns="http://www.w3.org/2000/svg">
<path d="M54.0092 59.4102C48.4719 64.9474 34.2913 59.7445 22.3359 47.7891C10.3806 35.8337 5.17761 21.6531 10.7148 16.1159L14.3607 12.47C16.8776 9.95309 21.0249 10.0196 23.6239 12.6186L29.271 18.2657C31.87 20.8647 31.9365 25.012 29.4196 27.5289L28.6365 28.312C27.2775 29.6709 27.1446 31.8631 28.4073 33.3933C29.6252 34.8692 30.9383 36.3393 32.362 37.763C33.7857 39.1867 35.2558 40.4998 36.7317 41.7177C38.2619 42.9804 40.4541 42.8475 41.813 41.4885L42.5961 40.7054C45.113 38.1885 49.2603 38.255 51.8593 40.854L57.5064 46.5011C60.1054 49.1001 60.1719 53.2474 57.655 55.7643L54.0092 59.4102Z" stroke="#F20D0D" stroke-width="4.25"/>
<path d="M49.9419 27.6274C49.2506 25.9411 48.2203 24.3611 46.851 22.9919C45.5591 21.6999 44.0796 20.7098 42.5001 20.0214" stroke="#F20D0D" stroke-width="4.25" stroke-linecap="round"/>
<path d="M42.498 10.377C46.2795 11.7469 49.8275 13.9477 52.8591 16.9793C55.9668 20.087 58.2015 23.7373 59.563 27.6255" stroke="#F20D0D" stroke-width="4.25" stroke-linecap="round"/>
</svg>
