<svg width="56" height="56" viewBox="0 0 56 56" fill="none" xmlns="http://www.w3.org/2000/svg">
<path fill-rule="evenodd" clip-rule="evenodd" d="M33.9921 4V8H25.9893H17.9864V6V4H15.9857H13.985V5.99812V7.99624L10.5938 8.01048C7.24963 8.02452 7.19701 8.02596 6.80243 8.11464C5.51201 8.40456 4.54198 8.94796 3.6413 9.88548C2.6269 10.9413 2.05825 12.2775 1.99231 13.76C1.91881 15.4136 2.70617 21.0659 4.06333 28.6271C4.19434 29.357 4.30154 29.9645 4.30154 29.9771C4.30154 29.9897 5.12983 30 6.14219 30H7.98285V31V32H9.98357H11.9843V31V30H14.7007H17.417L17.6472 29.33C17.9841 28.3494 18.173 27.8827 18.4688 27.3C19.3111 25.6412 20.286 24.5401 21.2638 24.1433L21.5677 24.02L23.8485 24.0074C26.3287 23.9938 26.4268 24.0004 26.8696 24.2099C27.1954 24.364 27.6129 24.7711 27.7618 25.08C28.0009 25.5758 27.9928 25.3882 27.9808 30.1044L27.9699 34.42L27.8747 34.6746C27.681 35.1925 27.1823 35.691 26.6642 35.8848L26.4094 35.98L15.8056 36.0012L5.20186 36.0224L4.80171 36.1135C3.50357 36.4089 2.54059 36.9487 1.64059 37.8855C0.847143 38.7114 0.352566 39.6551 0.092273 40.84L0 41.26V45V48.74L0.092273 49.16C0.374374 50.4441 0.919648 51.4274 1.84558 52.3217C2.85562 53.2972 4.18177 53.8858 5.592 53.9845L5.98214 54.0118V55.0059V56H9.98357H13.985V55V54H25.9893H37.9936V55V56H41.995H45.9964V55V54L46.1665 53.9999C46.7441 53.9995 47.7151 53.7854 48.3131 53.5267C49.0928 53.1893 49.6987 52.7729 50.282 52.1736C51.1173 51.3155 51.606 50.403 51.8853 49.18L51.9767 48.78L51.9882 36.39L51.9997 24H53.9998H56V19V14H53.8644H51.7289L51.5746 13.531C51.0097 11.8142 49.8358 10.294 48.3106 9.30436C47.8282 8.99132 46.9897 8.5914 46.4504 8.41712L45.9964 8.27044V6.13524V4H43.9957H41.995V6V8H39.9943H37.9936V4V0H35.9929H33.9921V4ZM9.98357 16V20H11.9843H13.985V15.9996V11.9993L29.3005 12.01L44.6159 12.0208L44.9561 12.1121C45.8981 12.3652 46.7837 12.9889 47.3142 13.7729C47.525 14.0843 47.788 14.6775 47.8861 15.0624L47.9771 15.42V31.9V48.38L47.8827 48.6536C47.701 49.1797 47.2027 49.6861 46.6713 49.8848L46.4166 49.98L26.091 49.9902C3.78999 50.0014 5.57175 50.02 5.06181 49.7699C4.77843 49.6309 4.34483 49.1971 4.20882 48.9165C3.9775 48.4392 3.98142 48.5067 3.98142 45C3.98142 42.237 3.99014 41.7428 4.04264 41.5384C4.23663 40.7833 4.83653 40.1979 5.57395 40.0442C5.72556 40.0126 8.71375 40 16.0577 39.9999C23.2571 39.9998 26.4371 39.9867 26.6895 39.956C28.728 39.7079 30.4621 38.4655 31.4019 36.58C31.5865 36.2096 31.7657 35.6765 31.8791 35.16L31.9714 34.74V30V25.26L31.8788 24.84C31.7474 24.2441 31.6226 23.8894 31.351 23.34C31.0394 22.7093 30.6809 22.2201 30.1576 21.7113C29.3196 20.8965 28.3544 20.381 27.1697 20.1156C26.7832 20.029 26.6835 20.0254 24.2487 20.0102C21.2073 19.9912 20.9082 20.0156 19.9271 20.3621C17.9766 21.051 16.1222 22.9466 14.8722 25.529L14.6452 25.998L11.1583 25.999L7.67142 26L7.64941 25.91C7.63729 25.8605 7.48295 24.947 7.30645 23.88C6.47419 18.8492 5.98314 15.207 5.98234 14.0584C5.98194 13.4834 6.18161 12.9948 6.57943 12.5971C6.85841 12.3182 7.1632 12.1425 7.5166 12.0568C7.65453 12.0234 8.09677 12.0057 8.85316 12.0034L9.98357 12V16ZM39.332 16.0558C38.6505 16.186 38.0979 16.4248 37.5867 16.81C36.8468 17.3672 36.3359 18.1446 36.1046 19.065C35.9716 19.5942 35.9795 20.4686 36.1221 21.002C36.4997 22.4141 37.5791 23.4947 38.9856 23.8688C39.4968 24.0048 40.3563 24.0216 40.8546 23.9053C42.3962 23.5456 43.5412 22.4011 43.901 20.86C44.0173 20.3619 44.0005 19.5027 43.8645 18.9917C43.4898 17.5844 42.397 16.4948 40.9966 16.1325C40.5221 16.0097 39.7574 15.9744 39.332 16.0558ZM39.274 30.0403C37.8338 30.2385 36.6609 30.8361 35.6527 31.8855C34.8574 32.7132 34.3573 33.6691 34.1068 34.84C34.0321 35.1894 34.0169 35.3844 34.0169 36C34.0169 36.8216 34.0834 37.2476 34.3194 37.94C34.8286 39.434 35.996 40.7362 37.4351 41.416C39.7641 42.516 42.4797 42.0231 44.2799 40.1736C45.1244 39.306 45.6235 38.367 45.8817 37.16C46.0115 36.5535 46.0114 35.445 45.8814 34.84C45.7549 34.251 45.6298 33.8939 45.356 33.34C44.5405 31.69 43.0017 30.5053 41.1747 30.1211C40.7187 30.0252 39.6989 29.9818 39.274 30.0403ZM40.4025 34.0442C40.7715 34.1211 41.1118 34.31 41.3977 34.5964C42.2705 35.471 42.1655 36.8522 41.169 37.6044C40.5749 38.053 39.7791 38.1158 39.074 37.7699C38.7906 37.6309 38.357 37.1971 38.221 36.9165C37.8237 36.0969 37.9628 35.225 38.5909 34.5971C39.0832 34.105 39.7369 33.9054 40.4025 34.0442Z" fill="#F20D0D"/>
</svg>
