<svg width="18" height="21" viewBox="0 0 18 21" fill="none" xmlns="http://www.w3.org/2000/svg">
<path d="M16.25 8.91667C16.25 11.3629 14.7887 13.9619 13.0314 16.0046C12.164 17.013 11.2537 17.851 10.4767 18.4302C10.0876 18.7203 9.74394 18.9365 9.46579 19.0765C9.32699 19.1464 9.21389 19.1926 9.12675 19.2203C9.03536 19.2493 8.99692 19.25 9 19.25V20.75C9.38124 20.75 9.78602 20.5947 10.1405 20.4162C10.5186 20.2258 10.9374 19.9577 11.3733 19.6328C12.2463 18.982 13.236 18.0669 14.1686 16.9829C16.0113 14.8409 17.75 11.8982 17.75 8.91667H16.25ZM9 19.25C9.00309 19.25 8.96464 19.2493 8.87325 19.2203C8.78611 19.1926 8.67301 19.1464 8.53421 19.0765C8.25606 18.9365 7.91244 18.7203 7.52326 18.4302C6.74629 17.851 5.83605 17.013 4.96856 16.0046C3.21128 13.9619 1.75 11.3629 1.75 8.91667H0.25C0.25 11.8982 1.98872 14.8409 3.83144 16.9829C4.76395 18.0669 5.75371 18.982 6.62674 19.6328C7.06256 19.9577 7.48144 20.2258 7.85954 20.4162C8.21398 20.5947 8.61876 20.75 9 20.75V19.25ZM1.75 8.91667C1.75 4.96601 4.98851 1.75 9 1.75V0.25C4.17493 0.25 0.25 4.12281 0.25 8.91667H1.75ZM9 1.75C13.0115 1.75 16.25 4.96601 16.25 8.91667H17.75C17.75 4.12281 13.8251 0.25 9 0.25V1.75Z" fill="#545454"/>
<circle r="3" transform="matrix(-1 0 0 1 9 8)" stroke="#545454" stroke-width="1.5"/>
</svg>
