<svg width="48" height="44" viewBox="0 0 48 44" fill="none" xmlns="http://www.w3.org/2000/svg">
<g clip-path="url(#clip0_1440_3399)">
<path fill-rule="evenodd" clip-rule="evenodd" d="M1.48165 5.35054C10.5616 6.92781 10.5541 4.24336 18.6795 2.66625C27.3196 0.989376 27.8058 4.59127 36.657 0.142178C37.5682 -0.315911 38.7024 0.379906 38.5618 1.55623C37.476 10.6462 40.0622 10.7176 41.1545 18.8391C42.2432 26.934 39.8897 28.4972 43.7686 36.7419C44.1614 37.5767 43.7265 38.8582 42.3551 38.6471C33.1326 37.2288 32.7622 40.1709 24.5185 41.3014C16.3756 42.4183 15.4766 39.9471 7.17975 43.8557C6.34511 44.2487 5.21631 43.8598 5.27486 42.4416C5.60941 34.3302 3.44714 31.8088 2.46274 24.444C1.51037 17.3188 2.72059 14.6135 0.0680129 7.25599C-0.244919 6.38796 0.572838 5.19269 1.48165 5.35054Z" fill="#F20D0D"/>
<path fill-rule="evenodd" clip-rule="evenodd" d="M32.1699 18.8793C34.155 19.7368 36.0819 19.4359 37.7179 18.4823C37.9723 18.5019 38.2184 18.6211 38.3893 18.8328C38.9738 19.5573 38.2493 20.5651 37.3813 20.3207C38.3662 20.8787 39.4342 19.673 38.7195 18.7873C38.5392 18.5638 38.2819 18.4342 38.0142 18.4058C38.796 18.3715 39.8598 18.8939 39.6605 19.8351C39.613 20.0594 39.4829 20.2495 39.2984 20.3924C39.6117 20.25 39.8422 20.0061 39.912 19.6981C40.0477 19.0992 39.5256 18.4792 38.7501 18.3177C38.4787 18.2612 38.2114 18.2684 37.9726 18.327C38.0602 18.2713 38.1467 18.2138 38.2325 18.1545C38.409 18.1269 38.6011 18.1227 38.7958 18.1425C38.7952 18.1467 38.7944 18.151 38.7936 18.1554C38.7946 18.151 38.7954 18.1469 38.7963 18.1426C39.6112 18.2255 40.4659 18.7248 40.3624 19.6459C40.332 19.9149 40.2008 20.1526 40.0006 20.3409C40.352 20.1388 40.5952 19.8268 40.6419 19.4569C40.733 18.7384 40.049 18.0678 39.1195 17.9644C39.0462 17.9564 38.9734 17.9521 38.9013 17.9513C38.9174 17.847 38.9386 17.7469 38.9646 17.6514C38.9128 17.7472 38.8706 17.8476 38.8394 17.9515C38.708 17.9537 38.58 17.9681 38.4576 17.993C38.6334 17.8623 38.805 17.7242 38.9723 17.5791C38.9643 17.5966 38.9566 17.6143 38.9493 17.6323C38.9464 17.6323 38.9434 17.6323 38.9405 17.6325C38.9434 17.6326 38.9462 17.6328 38.949 17.6328C38.907 17.7329 38.8706 17.8391 38.8403 17.9515C38.8602 17.9512 38.8802 17.9512 38.9002 17.9513C38.9146 17.8427 38.9421 17.7368 38.9811 17.6343C39.8181 17.6773 40.6304 18.0999 41.101 18.6819C40.9726 18.7016 40.836 18.6948 40.6954 18.6553C40.8483 18.742 41.0034 18.7862 41.1534 18.7957C41.1784 19.029 41.1262 19.2831 40.9725 19.5491C41.1723 19.4355 41.3034 19.2853 41.3723 19.1174C41.6173 19.6587 41.5696 20.276 41.041 20.8397C41.9949 20.5538 42.1205 19.5516 41.5402 18.7425C42.0915 18.5521 42.456 17.9019 42.161 17.3191C42.1072 17.118 42.0126 16.9472 41.8882 16.8078C42.0386 16.9445 42.1734 17.1196 42.2851 17.3374C42.2725 17.1791 42.2386 17.0358 42.1874 16.9074C42.2643 17.0042 42.335 17.1139 42.3989 17.2375C42.3851 17.0692 42.3477 16.9182 42.2909 16.7835C42.7749 17.4358 42.8459 18.2602 42.0904 18.8869C43.6742 18.6189 43.1819 16.0422 40.6406 15.7494C40.6472 15.748 40.6539 15.7466 40.6605 15.7452C42.3693 15.8776 43.9366 17.5715 42.6478 18.9455C44.3163 18.4456 43.4522 15.7534 40.7042 15.737C42.4213 15.4186 44.1806 16.7766 43.3877 18.5662C43.9926 17.825 43.971 16.9057 43.5106 16.2514C43.8531 16.6838 43.9909 17.2692 43.7734 17.9551C44.0659 17.504 44.1437 17.016 44.0539 16.5747C43.9763 16.1933 43.7738 15.8468 43.4755 15.5887C43.4302 15.4719 43.3699 15.3674 43.2978 15.2748C43.308 15.2809 43.3182 15.2872 43.3283 15.2935C43.4461 15.4167 43.5528 15.5652 43.6442 15.743C43.637 15.6544 43.6232 15.5706 43.6037 15.4913C43.6526 15.5324 43.7003 15.5756 43.7458 15.6208C43.7498 15.6282 43.7538 15.6356 43.7574 15.6432C43.7574 15.6392 43.7568 15.6353 43.7565 15.6313C44.187 16.0645 44.4434 16.6852 44.3698 17.4961C44.4763 17.2939 44.5451 17.0939 44.5814 16.8992C44.6046 17.0134 44.6216 17.1319 44.6322 17.2544C44.6458 17.4171 44.9747 17.1575 44.9613 17.3374C45.1054 16.9939 45.1499 16.6528 45.1144 16.3303C45.1709 16.5606 45.201 16.8126 45.1994 17.0874C45.2973 16.8443 45.3501 16.6072 45.365 16.3796C45.2848 15.5834 44.733 15.0212 44.0408 14.7115C44.0405 14.7114 44.0402 14.7111 44.0395 14.7107C43.9603 14.6754 43.879 14.6433 43.7966 14.6146C43.7957 14.6143 43.7949 14.6141 43.7941 14.6137C43.7502 14.5985 43.7062 14.5843 43.6618 14.5709C43.6605 14.5706 43.6589 14.5701 43.6574 14.5696C43.6368 14.5636 43.6162 14.5576 43.5954 14.5518C43.5942 14.5515 43.5931 14.5512 43.5923 14.5508C43.5907 14.5505 43.5894 14.5504 43.5882 14.5497C43.567 14.5441 43.5461 14.5385 43.525 14.5332C43.5245 14.533 43.524 14.5328 43.5235 14.5327C43.5232 14.5327 43.5232 14.5327 43.5229 14.5327C43.4787 14.5215 43.4344 14.5112 43.3899 14.5019C43.3883 14.5016 43.3869 14.5011 43.3851 14.5008C43.3846 14.5008 43.3838 14.5006 43.3832 14.5005C43.3827 14.5005 43.3826 14.5003 43.3822 14.5003C43.2456 14.4719 43.1078 14.4523 42.9706 14.4415C42.9682 14.4413 42.9661 14.4411 42.964 14.441C42.8731 14.4339 42.7827 14.4309 42.6933 14.4315C42.6904 14.4315 42.6878 14.4315 42.6851 14.4315C42.6834 14.4315 42.6816 14.4318 42.68 14.4318C42.5272 14.4018 42.3667 14.3935 42.2043 14.4074C43.5398 14.0001 44.7936 14.7611 45.2757 15.647C45.1354 15.2122 44.8464 14.8416 44.4685 14.5712C45.0886 14.8801 45.5763 15.4618 45.7302 16.3712C45.7838 16.14 45.8 15.9205 45.7848 15.715C45.8386 15.8239 45.8872 15.939 45.9302 16.0598C45.9875 16.2203 46.2499 15.8733 46.284 16.0582C46.3381 15.6748 46.2922 15.3194 46.1704 15.0037C46.2885 15.2211 46.3861 15.4673 46.4574 15.7445C46.4915 15.4743 46.4814 15.2216 46.4362 14.9883C46.4142 14.9302 46.3899 14.8738 46.3637 14.8197C46.4248 13.1215 44.6048 12.4025 43.1182 13.0798C43.1208 13.0697 43.1235 13.0591 43.1261 13.0489C44.6618 12.2184 46.664 12.9568 46.5411 14.7769C46.193 13.7529 45.4491 13.2654 44.6402 13.1651C44.2955 12.8902 43.4696 13.0429 42.6925 13.5482C42.6246 13.5925 42.5589 13.6381 42.4958 13.6847C42.4958 13.685 42.4958 13.685 42.4958 13.6852C42.5301 13.6596 42.5651 13.6343 42.6008 13.6097C42.7419 13.4817 42.901 13.3722 43.0731 13.2823C43.0725 13.2868 43.0718 13.2912 43.0712 13.2954C43.0718 13.291 43.0726 13.2866 43.0736 13.2822C44.192 12.6984 45.8605 12.9523 46.6829 14.4519C46.7616 14.5954 46.9574 14.2272 47.0182 14.3974C46.9949 13.2591 46.1253 12.5123 45.1054 12.3567C44.3829 12.348 43.6376 12.599 43.1362 13.011C43.1427 12.9865 43.1496 12.9619 43.1566 12.9373C44.2221 11.8855 45.7794 12.0754 46.6184 12.7246C46.267 12.3302 45.7698 12.0915 45.2325 12.0233C45.9416 12.0825 46.6413 12.4381 47.181 13.2097C47.1549 13.0916 47.3701 12.9731 47.3307 12.868C47.3096 12.8115 47.2859 12.7573 47.261 12.7044C47.3206 12.7756 47.3787 12.8511 47.435 12.9316C47.092 11.3726 45.5374 10.9418 44.2294 11.5063C45.5514 10.8465 47.3634 11.184 47.4528 12.801C48.233 11.3033 45.717 9.97578 43.8027 11.7325C43.7997 11.7346 43.7966 11.7365 43.7936 11.7384C43.7954 11.7338 43.7978 11.7289 43.7997 11.7245C45.013 10.5471 47.1179 9.97831 47.8947 11.8958C47.8944 11.6672 47.8581 11.4624 47.792 11.2811C47.8306 11.357 47.8675 11.4372 47.9024 11.5218C47.831 10.53 47.0237 9.945 46.0435 9.9551C46.7538 9.85124 47.46 10.1433 48.0011 11.047C47.8482 10.3668 47.3677 9.93616 46.7606 9.79125C47.1245 9.82456 47.4992 9.93174 47.8774 10.1276C47.3827 9.69591 46.8832 9.47223 46.3736 9.48044C46.7442 9.42724 47.1242 9.47302 47.5014 9.64492C46.6933 8.92369 45.8194 9.04208 44.8294 10.2047C44.8018 10.223 44.7742 10.2419 44.7469 10.2613C44.9662 9.98115 45.2085 9.70143 45.4547 9.44808C46.0128 9.09275 46.6448 8.95968 47.3067 9.18241C46.8974 8.88723 46.493 8.77436 46.0906 8.8645C46.2997 8.69875 46.4986 8.57073 46.6738 8.49796C46.3091 8.58257 46.0563 8.69891 45.8178 8.85818L46.3184 8.21004L46.1475 7.89844L45.8813 8.33916C45.944 8.17926 45.9989 8.01698 46.0123 7.90948C46.0266 7.79772 45.88 7.71422 45.8741 7.58257C45.8531 7.71359 45.8019 7.87444 45.7277 8.05503C45.7427 7.88249 45.736 7.69954 45.7008 7.48502C45.6989 7.56647 45.6042 7.62046 45.585 7.71785C45.5677 7.80546 45.5446 7.89938 45.5168 7.99804C45.5093 7.83703 45.4837 7.66592 45.4339 7.46986C45.4566 7.75937 45.3858 8.15937 45.2576 8.5963C45.2626 8.56047 45.2669 8.52464 45.2704 8.48896C45.3029 8.15589 45.2843 7.85424 45.1523 7.4484C45.1866 7.68312 45.1632 7.99551 45.0998 8.34421C45.0822 7.98115 44.8675 7.40246 44.6326 7.33711C44.7643 7.45629 44.845 7.71769 44.8768 8.05061C44.7232 7.70791 44.4197 7.45834 43.9786 7.29102C44.6536 7.8184 44.8446 8.59978 44.7197 9.43324C44.8267 8.27413 44.0474 7.24303 43.0989 7.55621C44.3595 7.8727 44.675 9.14216 44.3238 10.1939C44.5482 8.58304 43.4422 7.32543 42.0704 7.71722C43.536 7.76584 44.1178 8.6435 44.1168 9.71312C43.973 8.5229 43.1219 7.62914 41.8264 7.93206C43.801 8.21967 44.0093 10.0321 43.4027 11.543C43.384 11.5703 43.3658 11.5982 43.3472 11.6263C44.2926 9.50506 42.5552 7.59141 41.1494 8.44729C43.12 8.06355 43.7147 10.1392 43.2382 11.6541C43.5538 10.0763 42.8208 8.47207 41.1219 8.66718C43.1403 9.30933 43.36 11.0432 42.744 12.4437C42.7448 12.4385 42.7459 12.4332 42.7469 12.428C43.6901 10.0241 41.5096 8.2113 40.3885 9.48044C41.9434 8.96426 42.9318 10.4975 42.8013 11.9524C42.847 10.5458 41.8661 9.28233 40.2722 9.54516C40.3691 9.56694 40.4621 9.59236 40.5517 9.62061C40.4923 9.6173 40.432 9.61556 40.3707 9.6173C40.2571 9.62014 40.2253 9.86102 40.1045 9.88107C40.2082 9.90428 40.3074 9.93174 40.4027 9.96237C40.2213 9.96079 40.0296 9.98225 39.8288 10.0298C39.7464 10.1302 39.783 10.2757 39.5712 10.4332C39.6341 10.4454 39.695 10.4593 39.755 10.4738C40.284 10.3849 40.8642 10.713 41.2754 11.2563C41.2757 11.2566 41.2758 11.2569 41.2762 11.2574C41.2872 11.2719 41.2981 11.2866 41.309 11.3014C41.3114 11.3047 41.3138 11.3082 41.316 11.3115C41.7789 12.0662 41.8288 13.1019 41.5021 13.9949C41.4907 14.0028 41.4794 14.0107 41.468 14.0184C41.5275 13.8645 41.5734 13.7003 41.6053 13.5303C41.6054 13.5291 41.6058 13.5278 41.6059 13.5265C41.6139 13.4831 41.621 13.4392 41.6274 13.3952C41.6275 13.3941 41.6277 13.3931 41.6277 13.3919C41.6338 13.3491 41.6387 13.3062 41.6429 13.2629C41.6434 13.2583 41.6438 13.2538 41.6443 13.2492C41.6459 13.2309 41.6474 13.2124 41.6488 13.1939C41.6491 13.1898 41.6493 13.1856 41.6498 13.1815C41.651 13.1624 41.6522 13.1434 41.6531 13.1243C41.6534 13.1199 41.6536 13.1155 41.6539 13.1109C41.6547 13.0913 41.6555 13.0716 41.6562 13.0519C41.6563 13.0498 41.6563 13.0478 41.6565 13.0457C41.657 13.0244 41.6573 13.0029 41.6574 12.9816C41.6576 12.9799 41.6576 12.9782 41.6574 12.9764C41.6581 12.8847 41.6547 12.7927 41.6474 12.7008C41.6475 12.7005 41.6474 12.7002 41.6474 12.6999C41.6474 12.6995 41.6474 12.6994 41.6474 12.6989C41.6435 12.6528 41.6387 12.6066 41.633 12.5605C41.633 12.5603 41.633 12.5603 41.633 12.5603C41.627 12.5141 41.6203 12.468 41.6126 12.422C41.6126 12.4217 41.6126 12.4216 41.6125 12.4214C41.6006 12.3527 41.5867 12.2844 41.5701 12.2168C41.5699 12.2164 41.5698 12.2159 41.5698 12.2154C41.5659 12.1995 41.5619 12.1837 41.5578 12.1677C41.5576 12.1673 41.5574 12.1668 41.5571 12.1665C41.3666 11.4405 40.8997 10.808 40.1182 10.5939C39.8882 10.5693 39.6422 10.5802 39.3829 10.6337C39.6574 10.6792 39.904 10.7516 40.1242 10.8459C39.8082 10.7562 39.4602 10.7411 39.0923 10.8224C39.2747 10.84 38.959 11.1153 39.1192 11.1567C39.2398 11.1876 39.355 11.2246 39.4651 11.2665C39.2645 11.2686 39.0531 11.3011 38.833 11.3701C39.0333 11.3865 39.2194 11.4201 39.3909 11.4686C39.1906 11.4707 38.9798 11.503 38.7602 11.5718C39.1126 11.6007 39.4194 11.6825 39.6838 11.8053C39.296 11.6718 38.8477 11.6677 38.3643 11.8441C38.9755 11.8945 38.4238 12.1701 38.6126 12.1868C40.3979 12.345 40.959 13.7524 40.6685 14.9794C40.6298 15.0026 40.5912 15.0268 40.5528 15.052C40.8722 13.3879 39.5976 11.7598 37.8882 12.3842C40.0032 12.4585 40.5902 14.5003 40.0163 15.9486C40.0146 15.9497 40.0128 15.9507 40.011 15.9516C40.563 14.4217 39.8749 12.5142 38.044 12.5216C37.8654 12.5223 37.7949 12.7398 37.6013 12.8107C39.8243 12.8886 40.3298 15.1005 39.5901 16.5354C39.5744 16.5456 39.5592 16.5562 39.5434 16.5663C39.5586 16.5575 39.5733 16.5482 39.5883 16.5388C39.5627 16.5886 39.5354 16.6373 39.5067 16.685C39.3886 16.8055 39.2821 16.9444 39.191 17.1022C39.0557 17.2446 38.9022 17.3687 38.7314 17.4684C38.879 17.3883 39.0152 17.2967 39.1403 17.1954C39.1237 17.2272 39.1082 17.2599 39.0928 17.2932C36.7442 19.2547 35.015 18.987 33.051 18.4872C32.8208 18.4287 32.5216 18.498 32.1699 18.8793ZM39.0608 17.5016C39.2512 17.3319 39.4352 17.1534 39.6128 16.9673C40.0282 16.7038 40.5403 16.5985 41.0069 16.7553C40.9269 16.7712 40.8485 16.7963 40.7731 16.8312C40.925 16.802 41.0824 16.8099 41.2299 16.8531C41.4794 16.9892 41.7075 17.2118 41.8898 17.5388C41.9902 17.9542 41.7706 18.3785 41.409 18.577C41.4053 18.5725 41.4014 18.5679 41.3974 18.5635C41.2158 17.8975 40.3258 17.2512 39.0608 17.5016ZM40.3378 16.1169C40.347 16.1049 40.3563 16.0929 40.3658 16.0808C40.3528 16.0943 40.3405 16.1073 40.3278 16.1209C40.3214 16.1231 40.3154 16.1256 40.3093 16.128C40.3227 16.0845 40.3384 16.0418 40.3558 15.9998C40.4014 15.9229 40.4533 15.8493 40.5106 15.7796C40.5488 15.7696 40.587 15.7608 40.6256 15.7526C40.9173 15.8083 41.1984 15.9145 41.4536 16.058C41.1086 15.9578 40.7114 15.9766 40.3378 16.1169ZM46.2483 14.6143C45.8966 14.0689 45.3027 13.7605 44.6578 13.6508C44.6573 13.6504 44.6566 13.6503 44.656 13.6501C44.5186 13.6269 44.3787 13.6127 44.2382 13.607C44.237 13.607 44.2354 13.607 44.2336 13.6069C44.2102 13.6061 44.1869 13.6053 44.1635 13.605C44.1624 13.605 44.1616 13.605 44.1608 13.605C44.1373 13.6045 44.1138 13.6042 44.0902 13.6044C44.0896 13.6044 44.0891 13.6044 44.0888 13.6044C43.9909 13.6047 43.8934 13.6094 43.7966 13.6179C43.7949 13.6179 43.7936 13.6182 43.792 13.6182C43.7442 13.6227 43.6965 13.6279 43.6491 13.6342C43.6483 13.6342 43.6475 13.6343 43.6467 13.6343C43.6232 13.6375 43.5997 13.641 43.5763 13.6446C43.5755 13.6446 43.5749 13.6446 43.5742 13.6448C43.5528 13.6481 43.5317 13.6516 43.5106 13.6552C43.5062 13.656 43.5021 13.6566 43.4979 13.6574C43.4046 13.674 43.3128 13.6942 43.223 13.7182C43.2214 13.7185 43.22 13.7188 43.2187 13.7193C43.1738 13.7313 43.1296 13.7441 43.0859 13.7579C43.0846 13.7584 43.0834 13.7587 43.0819 13.7592C43.0382 13.7729 42.9954 13.7876 42.953 13.8033C42.9514 13.8037 42.9499 13.8042 42.9483 13.8048C42.7768 13.8681 42.6157 13.9456 42.4699 14.0364C42.4678 14.0378 42.4658 14.0391 42.4635 14.0405C42.4638 14.0403 42.464 14.0403 42.4643 14.04C42.4438 14.053 42.4235 14.0661 42.4035 14.0795C42.3902 14.0847 42.3768 14.0902 42.3634 14.0959C42.3646 14.0905 42.3658 14.085 42.367 14.0797C43.5307 13.0943 45.0082 13.3526 45.8738 14.0228C46.0176 14.1894 46.144 14.3859 46.2483 14.6143ZM42.3461 14.1033C42.3416 14.1051 42.3373 14.107 42.3326 14.109C42.3374 14.1048 42.3421 14.1008 42.3469 14.0969C42.3466 14.0991 42.3464 14.1011 42.3461 14.1033ZM42.0734 14.0789C41.9979 14.1559 41.9246 14.238 41.8547 14.3261C41.8491 14.3286 41.8437 14.331 41.8381 14.3335C41.9099 14.2441 41.9886 14.1589 42.0734 14.0789ZM40.549 15.0725C40.5838 15.058 40.6195 15.0437 40.6562 15.0301C40.5883 15.294 40.481 15.5485 40.3378 15.7793C40.3237 15.786 40.3094 15.7928 40.2954 15.7999C40.4165 15.5616 40.5002 15.3167 40.549 15.0725ZM40.0061 15.9658C40.0075 15.9651 40.0088 15.9643 40.0104 15.9636C39.9984 15.9936 39.9859 16.0235 39.973 16.0528C39.9845 16.0239 39.9954 15.9949 40.0061 15.9658ZM40.2658 15.8561C40.2755 15.8527 40.2853 15.8492 40.295 15.8457C40.295 15.846 40.2949 15.8462 40.2947 15.8463C40.2816 15.8561 40.2683 15.8661 40.255 15.876C40.2586 15.8695 40.2622 15.8628 40.2658 15.8561ZM40.2501 15.885C40.2613 15.8776 40.2725 15.8703 40.2837 15.8631C40.2517 15.9106 40.2184 15.9567 40.1834 16.0018C40.1829 16.0021 40.1822 16.0026 40.1821 16.0029C40.2059 15.9638 40.2285 15.9245 40.2501 15.885ZM40.3867 15.8577C40.3821 15.8705 40.3774 15.8831 40.3731 15.8961C40.3334 15.9752 40.2974 16.0583 40.2654 16.146C40.167 16.1875 40.0706 16.2378 39.9774 16.2969C40.0146 16.2495 40.0501 16.2017 40.0838 16.1534C40.1638 16.08 40.2379 16.0045 40.3077 15.9276C40.3346 15.9046 40.361 15.8812 40.3867 15.8577ZM40.323 16.0579C40.3165 16.0815 40.3101 16.1055 40.3045 16.1298C40.2968 16.1328 40.2894 16.1358 40.2818 16.1388C40.2949 16.1115 40.3083 16.0845 40.323 16.0579ZM43.243 15.2102C43.2488 15.2152 43.2544 15.2205 43.2598 15.2257C43.2627 15.2301 43.2656 15.2343 43.2683 15.2389C43.2602 15.2291 43.2517 15.2197 43.243 15.2102ZM38.9822 17.6315C38.9872 17.6189 38.9922 17.6062 38.9973 17.5936C39.0122 17.5685 39.0278 17.5437 39.044 17.5193C39.6768 17.4516 40.3368 17.6623 40.7478 18.0416C40.2883 17.7804 39.6965 17.6167 38.9822 17.6315ZM42.2637 15.1308C42.1053 15.1257 41.9392 15.1377 41.7672 15.1684C41.4338 15.2279 41.077 15.3584 40.7056 15.5752C40.9746 15.3316 41.3142 15.1614 41.6666 15.1065C41.865 15.0755 42.0674 15.0812 42.2637 15.1308ZM43.7195 15.4018C44.1342 15.7614 44.4528 16.2642 44.5814 16.8992L43.7195 15.4018ZM43.1995 12.7982C43.1845 12.8441 43.1702 12.8904 43.157 12.9365C43.327 12.7688 43.5098 12.6326 43.6998 12.5248C43.5274 12.5958 43.3592 12.6868 43.1995 12.7982ZM43.1362 13.0115C43.1355 13.0137 43.1347 13.016 43.1341 13.0184C44.3358 12.1493 46.3002 12.165 47.1346 14.0741C47.1254 13.8127 47.0774 13.5747 46.9984 13.3603C46.223 11.999 44.1648 12.1649 43.1362 13.0115ZM43.108 13.0847C43.1099 13.0749 43.1117 13.0651 43.1136 13.0553C42.9544 13.1426 42.8002 13.2468 42.6538 13.3687C42.6003 13.4604 42.5523 13.5546 42.5104 13.6508C42.6339 13.4703 42.7843 13.3054 42.9542 13.1598C43.012 13.0893 43.0717 13.0233 43.1331 12.9613C43.1285 12.9824 43.1242 13.0034 43.12 13.0246C43.0075 13.1186 42.908 13.2209 42.8243 13.3302C42.9211 13.1931 43.0246 13.0702 43.1333 12.9603C43.143 12.9141 43.1533 12.8686 43.164 12.8236C43.0381 12.9144 42.9178 13.0184 42.8043 13.1358C42.7589 13.1996 42.716 13.2645 42.676 13.331C42.8152 13.2345 42.9598 13.1529 43.108 13.0847ZM43.1189 13.0296C43.1192 13.0282 43.1195 13.0266 43.1198 13.0252C43.1085 13.0347 43.0971 13.0441 43.0862 13.0538C43.097 13.0457 43.108 13.0377 43.1189 13.0296ZM44.6746 10.6195C44.6282 10.658 44.5819 10.6976 44.5366 10.7387C45.5043 10.1305 46.6581 10.1082 47.3302 10.6403C46.6043 9.94137 45.5874 10.0653 44.6746 10.6195ZM42.3709 13.5379C42.3603 13.5602 42.3493 13.5824 42.3379 13.6045C42.3856 13.5598 42.4342 13.5172 42.4838 13.4765C42.5069 13.4026 42.5325 13.3305 42.5597 13.2602C42.491 13.3496 42.4277 13.4424 42.3709 13.5379ZM42.1163 13.9744C42.08 14.0263 42.0416 14.0776 42.0013 14.128C42.0013 14.1281 42.0013 14.1283 42.0013 14.1283C42.0349 14.0913 42.0701 14.0544 42.107 14.0176C42.1101 14.0031 42.1131 13.9887 42.1163 13.9744ZM41.4251 14.1223C41.3931 14.1946 41.3579 14.2642 41.3197 14.3308C41.3126 14.3531 41.3053 14.3755 41.2979 14.3977C41.3275 14.3586 41.3558 14.3193 41.3829 14.2797C41.4101 14.2219 41.436 14.1635 41.46 14.1041C41.4485 14.1103 41.4368 14.1163 41.4251 14.1223ZM37.1973 18.2397C37.2181 18.1976 37.2371 18.1551 37.255 18.1123C37.3674 16.5586 36.1242 15.2787 34.6461 16.5358C35.0456 15.7147 35.8482 15.4891 36.4718 15.8104C36.161 15.5998 35.8091 15.4951 35.4518 15.5445C35.3336 15.577 35.2109 15.6208 35.0842 15.6771C35.0894 15.6658 35.0952 15.655 35.1008 15.644C34.8578 15.7501 34.6174 15.9352 34.392 16.2149C34.5445 15.811 34.8624 15.5395 35.2403 15.4233C36.0434 14.4145 37.9464 15.5722 37.5229 17.422C37.525 17.4388 37.527 17.4552 37.529 17.4722C37.5232 17.4812 37.5174 17.4905 37.5117 17.4997C37.5107 17.4937 37.5094 17.4877 37.5083 17.4817C37.4589 17.6757 37.3848 17.8768 37.2805 18.0838C37.2781 18.0978 37.2757 18.1122 37.2733 18.1264C38.0554 16.719 37.7654 14.4279 35.8475 14.9175C37.1037 14.1254 38.7083 15.9739 37.2675 18.1598C37.2555 18.2271 37.2414 18.2956 37.2253 18.3655C37.2354 18.306 37.243 18.2465 37.2488 18.1876C37.2118 18.2427 37.1736 18.2978 37.1328 18.3534C37.1744 18.2934 37.2138 18.2309 37.2509 18.1663C37.2517 18.1567 37.2528 18.1467 37.2533 18.1371C37.2354 18.1712 37.2171 18.2055 37.1973 18.2397ZM37.6062 17.8981C37.6898 17.8699 37.7726 17.8366 37.8541 17.7987C38.619 16.6083 38.2654 14.6217 36.5845 14.4612C37.3763 14.0587 38.1998 14.7303 38.4222 15.7029C38.3342 14.6302 37.7022 13.7139 36.4472 13.913C36.9259 13.6108 37.371 13.578 37.7389 13.7313C37.455 13.5859 37.1064 13.5281 36.6902 13.5941C38.6384 12.3646 40.0683 15.6047 37.9277 17.763C37.9254 17.7641 37.9234 17.7654 37.921 17.7665C37.9509 17.7289 37.979 17.691 38.0064 17.653C38.3109 17.2509 38.5104 16.826 38.6208 16.4093C38.5096 16.9269 38.2787 17.4124 37.935 17.7592C39.1571 17.14 40.0422 15.5171 38.9598 14.724C40.2954 14.7478 39.923 17.0841 37.8846 17.8115C37.8264 17.8819 37.7632 17.9512 37.6952 18.0192C37.6565 18.0602 37.6166 18.0997 37.575 18.137C37.611 18.1024 37.6461 18.0677 37.68 18.0326C37.7354 17.9684 37.7866 17.9002 37.8336 17.8295C37.76 17.8546 37.6842 17.8774 37.6062 17.8981ZM37.1054 16.471C37.2992 16.856 37.3858 17.377 37.2893 18.0277C37.3912 17.7584 37.4418 17.4823 37.4454 17.2159C37.3678 16.948 37.2514 16.6953 37.1054 16.471ZM37.4323 16.9365C37.3587 16.2797 36.9902 15.7231 36.4006 15.5377C36.848 15.7668 37.2424 16.2219 37.4323 16.9365ZM42.464 13.5412C42.3848 13.6198 42.3086 13.7043 42.2362 13.7946C42.2114 13.8486 42.1888 13.9032 42.1682 13.9583C42.2429 13.8879 42.3235 13.8182 42.4094 13.7507C42.4176 13.715 42.4264 13.6798 42.4355 13.6448C42.4157 13.6877 42.3963 13.7313 42.3781 13.7758C42.3885 13.7674 42.3989 13.7592 42.4094 13.7508V13.751C42.3736 13.7791 42.3387 13.8075 42.305 13.8362C42.3512 13.7472 42.4005 13.6624 42.4525 13.5818C42.4562 13.5682 42.4602 13.5546 42.464 13.5412Z" fill="#F20D0D"/>
<path d="M27.8984 19.777L27.8594 19.6527C31.4272 16.7713 31.4936 20.7391 31.0664 23.4118C31.0373 23.5934 31.0439 23.7635 31.0007 23.9242C31.2851 23.3752 31.8864 22.2122 32.1685 21.7538C32.5672 21.1061 33.0191 20.7479 33.3501 20.7129C33.5994 20.6865 33.7899 20.7864 33.7856 21.3972C33.7808 22.0685 33.8035 22.7392 33.8247 23.41C34.141 22.7934 34.5384 22.1752 34.8834 21.5733C35.2119 21 35.5237 20.6693 36.1141 20.7222C36.4365 20.7509 36.6891 20.8905 36.6826 21.3942C36.6611 23.0376 36.9048 24.3204 37.5797 25.1706C39.3882 27.4494 42.2093 26.2775 43.4346 23.9473L43.6891 24.018C42.9563 26.5345 38.8587 29.0496 36.3335 26.7111C35.6151 26.0458 34.9917 24.7921 34.6384 23.447C34.3344 23.8212 33.7167 25.8077 33.2445 26.4639C33.064 26.7144 32.6981 26.7454 32.4895 26.5261C32.0354 26.128 31.9351 24.141 31.9117 23.6418C31.745 24.0103 30.7621 26.604 30.4123 27.7658C30.2731 28.2281 29.0667 28.3762 28.6903 28.2783C28.385 27.1681 30.5711 18.982 27.8984 19.777Z" fill="white"/>
<path d="M20.4641 22.0825L20.4512 22.0552C21.3904 20.8973 23.5043 20.3526 23.8027 22.1515C24.051 23.6497 23.84 25.9269 23.4817 27.6489C24.4387 26.0713 25.0544 24.8295 25.7957 23.1816C26.2712 22.1245 26.5731 22.2034 26.9985 22.0852L26.9974 22.0855C27.3889 21.9766 28.0384 21.9112 27.9113 22.4686C27.6238 24.1376 26.8272 29.0822 28.9419 29.7259C25.7747 31.6039 25.524 27.7436 25.512 25.7063C24.9342 27.0519 24.352 27.9248 23.4533 29.2857C22.2499 31.1086 21.2219 30.0012 21.3414 28.3018C21.4179 27.2157 22.3337 21.4178 20.4641 22.0825Z" fill="white"/>
<path d="M10.1219 17.5476L11.6523 16.8915C10.1372 20.2445 13.5652 20.9752 15.2987 19.2189C16.9327 14.889 22.7673 6.57155 27.7124 6.20944C28.9628 6.11788 30.023 6.79018 29.6751 8.07226C28.6155 11.9779 22.4041 16.7498 18.2062 18.6107C17.502 20.2982 17.0495 21.6936 16.6126 23.466C18.1039 21.964 19.5873 22.1207 19.9753 24.2729C20.2863 25.996 19.9119 28.5703 18.5094 30.7851C17.6099 32.1591 16.0934 33.0232 14.9596 31.4431C13.0302 28.6753 13.5892 23.4592 14.8519 20.3749C11.4444 22.3605 9.25435 19.9499 10.1219 17.5476ZM18.607 17.4926C22.0227 15.5457 25.5435 11.9596 26.5675 8.9927C27.3459 6.73682 26.4043 6.97629 24.7443 8.34693C22.1039 10.5277 19.9289 14.1714 18.607 17.4926ZM16.2385 24.7144C15.6607 26.1891 15.5691 28.9449 16.0324 30.4655C16.4036 31.6836 16.7222 31.3387 17.2124 30.2768C17.9014 28.5862 18.1198 26.8277 17.79 25.0184C17.5743 23.8363 16.7163 23.997 16.2385 24.7144Z" fill="white"/>
<path d="M19.8169 30.9923L20.0755 32.0087C16.9486 39.3161 5.6286 39.8761 2.67884 32.0416C-0.126916 24.5895 4.95372 11.786 12.2198 8.96532C13.8382 8.3369 17.6625 7.57842 17.8576 10.2024C18.0524 12.828 14.883 15.6883 12.8152 16.777L12.7835 16.6332C14.2732 14.2894 14.9646 12.526 15.1876 11.2924C15.5748 9.1519 14.2088 8.84377 12.3683 10.1778C8.25356 13.1606 5.0614 20.6614 5.45644 27.0695C6.0598 36.8581 15.7139 39.0776 19.8169 30.9923Z" fill="white"/>
<path fill-rule="evenodd" clip-rule="evenodd" d="M40.6523 5.77803C40.6523 5.22081 41.0999 4.7793 41.6648 4.7793C42.2296 4.7793 42.6773 5.22081 42.6773 5.77803C42.6773 6.33541 42.2296 6.77677 41.6648 6.77677C41.0999 6.77677 40.6523 6.33541 40.6523 5.77803ZM41.4744 5.24907H41.6752C41.8946 5.24907 41.9159 5.37835 41.9159 5.45633C41.9159 5.55562 41.8247 5.66375 41.6359 5.66375H41.4744V5.24907ZM41.3008 5.09895V6.40582H41.4744V5.81387H41.6235C41.7331 5.81387 41.7514 5.85601 41.7819 5.92215L42.0043 6.40582H42.193L41.9647 5.88601C41.9343 5.81687 41.8794 5.75088 41.8155 5.74189V5.75988C41.9647 5.73273 42.0986 5.6306 42.0986 5.45633C42.0986 5.10495 41.7546 5.09895 41.6813 5.09895H41.3008Z" fill="#F20D0D"/>
<path fill-rule="evenodd" clip-rule="evenodd" d="M31.8691 18.8793C33.8543 19.7368 35.7811 19.4359 37.4171 18.4823C37.6714 18.5019 37.9176 18.6211 38.0885 18.8328C38.673 19.5573 37.9485 20.5651 37.0805 20.3207C38.0655 20.8787 39.1335 19.673 38.4187 18.7873C38.2384 18.5638 37.9811 18.4342 37.7135 18.4058C38.4952 18.3715 39.5591 18.8939 39.3597 19.8351C39.3122 20.0594 39.1821 20.2495 38.9976 20.3924C39.3109 20.25 39.5415 20.0061 39.6112 19.6981C39.7467 19.0992 39.2248 18.4792 38.4493 18.3177C38.1779 18.2612 37.9106 18.2684 37.6719 18.327C37.7594 18.2713 37.8459 18.2138 37.9317 18.1545C38.1082 18.1269 38.3003 18.1227 38.4951 18.1425C38.4944 18.1467 38.4936 18.151 38.4928 18.1554C38.4938 18.151 38.4946 18.1469 38.4955 18.1426C39.3104 18.2255 40.1651 18.7248 40.0616 19.6459C40.0312 19.9149 39.9 20.1526 39.6999 20.3409C40.0512 20.1388 40.2944 19.8268 40.3411 19.4569C40.4322 18.7384 39.7482 18.0678 38.8187 17.9644C38.7455 17.9564 38.6727 17.9521 38.6005 17.9513C38.6167 17.847 38.6378 17.7469 38.6639 17.6514C38.612 17.7472 38.5698 17.8476 38.5386 17.9515C38.4072 17.9537 38.2792 17.9681 38.1568 17.993C38.3327 17.8623 38.5042 17.7242 38.6715 17.5791C38.6635 17.5966 38.6559 17.6143 38.6485 17.6323C38.6456 17.6323 38.6426 17.6323 38.6397 17.6325C38.6426 17.6326 38.6455 17.6328 38.6482 17.6328C38.6063 17.7329 38.5698 17.8391 38.5395 17.9515C38.5594 17.9512 38.5794 17.9512 38.5992 17.9513C38.6138 17.8427 38.6413 17.7368 38.6803 17.6343C39.5173 17.6773 40.3296 18.0999 40.8002 18.6819C40.6719 18.7016 40.5352 18.6948 40.3946 18.6553C40.5475 18.742 40.7026 18.7862 40.8527 18.7957C40.8776 19.029 40.8255 19.2831 40.6717 19.5491C40.8715 19.4355 41.0026 19.2853 41.0715 19.1174C41.3165 19.6587 41.2688 20.276 40.7402 20.8397C41.6941 20.5538 41.8197 19.5516 41.2394 18.7425C41.7907 18.5521 42.1552 17.9019 41.8602 17.3191C41.8064 17.118 41.7119 16.9472 41.5874 16.8078C41.7376 16.9445 41.8727 17.1196 41.9843 17.3374C41.9717 17.1791 41.9378 17.0358 41.8866 16.9074C41.9634 17.0042 42.0343 17.1139 42.0981 17.2375C42.0843 17.0692 42.0469 16.9182 41.9901 16.7835C42.4741 17.4358 42.5451 18.2602 41.7896 18.8869C43.3735 18.6189 42.8811 16.0422 40.3399 15.7494C40.3464 15.748 40.353 15.7466 40.3597 15.7452C42.0685 15.8776 43.6359 17.5715 42.3471 18.9455C44.0155 18.4456 43.1514 15.7534 40.4034 15.737C42.1205 15.4186 43.8799 16.7766 43.0869 18.5662C43.6919 17.825 43.6703 16.9057 43.2098 16.2514C43.5523 16.6838 43.6899 17.2692 43.4727 17.9551C43.7651 17.504 43.8429 17.016 43.7531 16.5747C43.6755 16.1933 43.473 15.8468 43.1747 15.5887C43.1295 15.4719 43.0691 15.3674 42.997 15.2748C43.0072 15.2809 43.0175 15.2872 43.0275 15.2935C43.1453 15.4167 43.252 15.5652 43.3434 15.743C43.3362 15.6544 43.3224 15.5706 43.3029 15.4913C43.3519 15.5324 43.3995 15.5756 43.445 15.6208C43.449 15.6282 43.453 15.6356 43.4567 15.6432C43.4567 15.6392 43.456 15.6353 43.4557 15.6313C43.8863 16.0645 44.1426 16.6852 44.069 17.4961C44.1755 17.2939 44.2443 17.0939 44.2807 16.8992C44.3039 17.0134 44.3208 17.1319 44.3314 17.2544C44.345 17.4171 44.6739 17.1575 44.6605 17.3374C44.8047 16.9939 44.8491 16.6528 44.8136 16.3303C44.8699 16.5606 44.9002 16.8126 44.8986 17.0874C44.9965 16.8443 45.0493 16.6072 45.0642 16.3796C44.984 15.5834 44.4322 15.0212 43.74 14.7115C43.7397 14.7114 43.7394 14.7111 43.7387 14.7107C43.6595 14.6754 43.5783 14.6433 43.4959 14.6146C43.4949 14.6143 43.4941 14.6141 43.4933 14.6137C43.4495 14.5985 43.4055 14.5843 43.361 14.5709C43.3597 14.5706 43.3581 14.5701 43.3567 14.5696C43.336 14.5636 43.3154 14.5576 43.2946 14.5518C43.2935 14.5515 43.2923 14.5512 43.2915 14.5508C43.2899 14.5505 43.2887 14.5504 43.2874 14.5497C43.2663 14.5441 43.2453 14.5385 43.2242 14.5332C43.2237 14.533 43.2232 14.5328 43.2227 14.5327C43.2224 14.5327 43.2224 14.5327 43.2221 14.5327C43.1779 14.5215 43.1336 14.5112 43.089 14.5019C43.0875 14.5016 43.0861 14.5011 43.0843 14.5008C43.0837 14.5008 43.0831 14.5006 43.0824 14.5005C43.0819 14.5005 43.0818 14.5003 43.0815 14.5003C42.9448 14.4719 42.8071 14.4523 42.6698 14.4415C42.6674 14.4413 42.6653 14.4411 42.6632 14.441C42.5723 14.4339 42.4819 14.4309 42.3925 14.4315C42.3896 14.4315 42.3871 14.4315 42.3843 14.4315C42.3826 14.4315 42.3808 14.4318 42.3792 14.4318C42.2264 14.4018 42.0659 14.3935 41.9035 14.4074C43.2391 14.0001 44.4928 14.7611 44.9749 15.647C44.8346 15.2122 44.5456 14.8416 44.1677 14.5712C44.7879 14.8801 45.2755 15.4618 45.4295 16.3712C45.4831 16.14 45.4992 15.9205 45.484 15.715C45.5378 15.8239 45.5864 15.939 45.6295 16.0598C45.6867 16.2203 45.9491 15.8733 45.9832 16.0582C46.0373 15.6748 45.9914 15.3194 45.8696 15.0037C45.9877 15.2211 46.0853 15.4673 46.1567 15.7445C46.1907 15.4743 46.1807 15.2216 46.1354 14.9883C46.1135 14.9302 46.0891 14.8738 46.0629 14.8197C46.124 13.1215 44.304 12.4025 42.8175 13.0798C42.82 13.0697 42.8227 13.0591 42.8253 13.0489C44.361 12.2184 46.3632 12.9568 46.2403 14.7769C45.8922 13.7529 45.1483 13.2654 44.3392 13.1651C43.9947 12.8902 43.1688 13.0429 42.3917 13.5482C42.3239 13.5925 42.2581 13.6381 42.1951 13.6847C42.1951 13.685 42.1951 13.685 42.1951 13.6852C42.2293 13.6596 42.2643 13.6343 42.3 13.6097C42.4411 13.4817 42.6002 13.3722 42.7723 13.2823C42.7717 13.2868 42.7711 13.2912 42.7704 13.2954C42.7711 13.291 42.7719 13.2866 42.7728 13.2822C43.8912 12.6984 45.5597 12.9523 46.3821 14.4519C46.4608 14.5954 46.6567 14.2272 46.7175 14.3974C46.6941 13.2591 45.8245 12.5123 44.8047 12.3567C44.0821 12.348 43.3367 12.599 42.8354 13.011C42.8419 12.9865 42.8488 12.9619 42.8559 12.9373C43.9213 11.8855 45.4786 12.0754 46.3176 12.7246C45.9663 12.3302 45.469 12.0915 44.9317 12.0233C45.6408 12.0825 46.3405 12.4381 46.8802 13.2097C46.8541 13.0916 47.0691 12.9731 47.0299 12.868C47.0088 12.8115 46.9851 12.7573 46.9602 12.7044C47.0199 12.7756 47.0779 12.8511 47.1343 12.9316C46.7912 11.3726 45.2367 10.9418 43.9287 11.5063C45.2506 10.8465 47.0626 11.184 47.152 12.801C47.9322 11.3033 45.4162 9.97578 43.5019 11.7325C43.4989 11.7346 43.4959 11.7365 43.4928 11.7384C43.4946 11.7338 43.497 11.7289 43.4989 11.7245C44.7122 10.5471 46.8171 9.97831 47.5939 11.8958C47.5936 11.6672 47.5573 11.4624 47.4912 11.2811C47.5298 11.357 47.5667 11.4372 47.6016 11.5218C47.5303 10.53 46.7229 9.945 45.7427 9.9551C46.453 9.85124 47.1592 10.1433 47.7003 11.047C47.5474 10.3668 47.0669 9.93616 46.4599 9.79125C46.8237 9.82456 47.1983 9.93174 47.5767 10.1276C47.0819 9.69591 46.5824 9.47223 46.0728 9.48044C46.4434 9.42724 46.8234 9.47302 47.2007 9.64492C46.3925 8.92369 45.5186 9.04208 44.5287 10.2047C44.501 10.223 44.4735 10.2419 44.4461 10.2613C44.6655 9.98115 44.9077 9.70143 45.1539 9.44808C45.712 9.09275 46.344 8.95968 47.0059 9.18241C46.5967 8.88723 46.1922 8.77436 45.7898 8.8645C45.9989 8.69875 46.1978 8.57073 46.373 8.49796C46.0083 8.58257 45.7555 8.69891 45.517 8.85818L46.0176 8.21004L45.8467 7.89844L45.5805 8.33916C45.6431 8.17926 45.6981 8.01698 45.7115 7.90948C45.7258 7.79772 45.5792 7.71422 45.5733 7.58257C45.5523 7.71359 45.5011 7.87444 45.4269 8.05503C45.4419 7.88249 45.4352 7.69954 45.4 7.48502C45.3981 7.56647 45.3034 7.62046 45.2842 7.71785C45.2669 7.80546 45.2439 7.89938 45.216 7.99804C45.2085 7.83703 45.1829 7.66592 45.1331 7.46986C45.1559 7.75937 45.085 8.15937 44.9568 8.5963C44.9618 8.56047 44.9661 8.52464 44.9696 8.48896C45.0021 8.15589 44.9835 7.85424 44.8515 7.4484C44.8858 7.68312 44.8624 7.99551 44.7991 8.34421C44.7815 7.98115 44.5667 7.40246 44.3319 7.33711C44.4635 7.45629 44.5442 7.71769 44.576 8.05061C44.4224 7.70791 44.1187 7.45834 43.6778 7.29102C44.3528 7.8184 44.5439 8.59978 44.4189 9.43324C44.5259 8.27413 43.7466 7.24303 42.7981 7.55621C44.0587 7.8727 44.3743 9.14216 44.0231 10.1939C44.2474 8.58304 43.1415 7.32543 41.7696 7.71722C43.2352 7.76584 43.817 8.6435 43.816 9.71312C43.6722 8.5229 42.821 7.62914 41.5256 7.93206C43.5002 8.21967 43.7085 10.0321 43.1019 11.543C43.0832 11.5703 43.065 11.5982 43.0464 11.6263C43.9919 9.50506 42.2544 7.59141 40.8487 8.44729C42.8192 8.06355 43.4139 10.1392 42.9375 11.6541C43.253 10.0763 42.52 8.47207 40.8211 8.66718C42.8395 9.30933 43.0592 11.0432 42.4432 12.4437C42.444 12.4385 42.445 12.4332 42.4461 12.428C43.3893 10.0241 41.2088 8.2113 40.0877 9.48044C41.6426 8.96426 42.6311 10.4975 42.5005 11.9524C42.5463 10.5458 41.5653 9.28233 39.9714 9.54516C40.0683 9.56694 40.1613 9.59236 40.2509 9.62061C40.1915 9.6173 40.1312 9.61556 40.0699 9.6173C39.9563 9.62014 39.9245 9.86102 39.8037 9.88107C39.9074 9.90428 40.0066 9.93174 40.1019 9.96237C39.9205 9.96079 39.7288 9.98225 39.5279 10.0298C39.4456 10.1302 39.4823 10.2757 39.2704 10.4332C39.3333 10.4454 39.3943 10.4593 39.4543 10.4738C39.9832 10.3849 40.5634 10.713 40.9746 11.2563C40.9749 11.2566 40.9751 11.2569 40.9754 11.2574C40.9864 11.2719 40.9973 11.2866 41.0082 11.3014C41.0106 11.3047 41.0128 11.3082 41.0152 11.3115C41.4781 12.0662 41.528 13.1019 41.2013 13.9949C41.1899 14.0028 41.1786 14.0107 41.1672 14.0184C41.2267 13.8645 41.2727 13.7003 41.3045 13.5303C41.3047 13.5291 41.305 13.5278 41.3051 13.5265C41.3131 13.4831 41.3202 13.4392 41.3266 13.3952C41.3267 13.3941 41.3269 13.3931 41.3269 13.3919C41.333 13.3491 41.3379 13.3062 41.3421 13.2629C41.3426 13.2583 41.3431 13.2538 41.3435 13.2492C41.3451 13.2309 41.3466 13.2124 41.348 13.1939C41.3483 13.1898 41.3485 13.1856 41.349 13.1815C41.3503 13.1624 41.3514 13.1434 41.3523 13.1243C41.3527 13.1199 41.3528 13.1155 41.3531 13.1109C41.3539 13.0913 41.3547 13.0716 41.3554 13.0519C41.3555 13.0498 41.3555 13.0478 41.3557 13.0457C41.3562 13.0244 41.3565 13.0029 41.3567 12.9816C41.3568 12.9799 41.3568 12.9782 41.3567 12.9764C41.3573 12.8847 41.3539 12.7927 41.3466 12.7008C41.3467 12.7005 41.3466 12.7002 41.3466 12.6999C41.3466 12.6995 41.3466 12.6994 41.3466 12.6989C41.3427 12.6528 41.3379 12.6066 41.3322 12.5605C41.3322 12.5603 41.3322 12.5603 41.3322 12.5603C41.3263 12.5141 41.3195 12.468 41.3119 12.422C41.3119 12.4217 41.3119 12.4216 41.3117 12.4214C41.2999 12.3527 41.2859 12.2844 41.2693 12.2168C41.2691 12.2164 41.269 12.2159 41.269 12.2154C41.2651 12.1995 41.2611 12.1837 41.257 12.1677C41.2568 12.1673 41.2567 12.1668 41.2563 12.1665C41.0658 11.4405 40.5989 10.808 39.8175 10.5939C39.5874 10.5693 39.3415 10.5802 39.0821 10.6337C39.3567 10.6792 39.6032 10.7516 39.8234 10.8459C39.5074 10.7562 39.1594 10.7411 38.7915 10.8224C38.9739 10.84 38.6581 11.1153 38.8184 11.1567C38.9391 11.1876 39.0543 11.2246 39.1643 11.2665C38.9637 11.2686 38.7523 11.3011 38.5322 11.3701C38.7325 11.3865 38.9186 11.4201 39.0901 11.4686C38.8898 11.4707 38.6791 11.503 38.4594 11.5718C38.8119 11.6007 39.1186 11.6825 39.3829 11.8053C38.9952 11.6718 38.5469 11.6677 38.0635 11.8441C38.6747 11.8945 38.1231 12.1701 38.3119 12.1868C40.0971 12.345 40.6583 13.7524 40.3677 14.9794C40.329 15.0026 40.2904 15.0268 40.2519 15.052C40.5714 13.3879 39.2968 11.7598 37.5874 12.3842C39.7024 12.4585 40.2895 14.5003 39.7155 15.9486C39.7138 15.9497 39.712 15.9507 39.7103 15.9516C40.2623 14.4217 39.5741 12.5142 37.7432 12.5216C37.5647 12.5223 37.4939 12.7398 37.3005 12.8107C39.5235 12.8886 40.029 15.1005 39.2893 16.5354C39.2736 16.5456 39.2584 16.5562 39.2424 16.5663C39.2578 16.5575 39.2725 16.5482 39.2875 16.5388C39.2619 16.5886 39.2346 16.6373 39.2059 16.685C39.0879 16.8055 38.9813 16.9444 38.8903 17.1022C38.7547 17.2446 38.6015 17.3687 38.4306 17.4684C38.5783 17.3883 38.7144 17.2967 38.8395 17.1954C38.8229 17.2272 38.8074 17.2599 38.792 17.2932C36.4434 19.2547 34.7143 18.987 32.7503 18.4872C32.52 18.4287 32.2208 18.498 31.8691 18.8793ZM38.76 17.5016C38.9504 17.3319 39.1344 17.1534 39.312 16.9673C39.7274 16.7038 40.2395 16.5985 40.7061 16.7553C40.6261 16.7712 40.5477 16.7963 40.4723 16.8312C40.6242 16.802 40.7816 16.8099 40.9291 16.8531C41.1786 16.9892 41.4067 17.2118 41.589 17.5388C41.6895 17.9542 41.4696 18.3785 41.1082 18.577C41.1045 18.5725 41.1007 18.5679 41.0967 18.5635C40.9151 17.8975 40.025 17.2512 38.76 17.5016ZM40.037 16.1169C40.0463 16.1049 40.0555 16.0929 40.065 16.0808C40.052 16.0943 40.0397 16.1073 40.0269 16.1209C40.0207 16.1231 40.0146 16.1256 40.0085 16.128C40.0219 16.0845 40.0375 16.0418 40.0551 15.9998C40.1007 15.9229 40.1525 15.8493 40.2098 15.7796C40.248 15.7696 40.2863 15.7608 40.3248 15.7526C40.6165 15.8083 40.8976 15.9145 41.1528 16.058C40.8079 15.9578 40.4106 15.9766 40.037 16.1169ZM45.9475 14.6143C45.5959 14.0689 45.0019 13.7605 44.357 13.6508C44.3565 13.6504 44.3559 13.6503 44.3552 13.6501C44.2178 13.6269 44.0779 13.6127 43.9375 13.607C43.9362 13.607 43.9346 13.607 43.9328 13.6069C43.9095 13.6061 43.8861 13.6053 43.8627 13.605C43.8616 13.605 43.8608 13.605 43.86 13.605C43.8365 13.6045 43.813 13.6042 43.7895 13.6044C43.7888 13.6044 43.7883 13.6044 43.788 13.6044C43.6901 13.6047 43.5927 13.6094 43.4959 13.6179C43.4941 13.6179 43.4928 13.6182 43.4912 13.6182C43.4434 13.6227 43.3957 13.6279 43.3483 13.6342C43.3475 13.6342 43.3467 13.6343 43.3459 13.6343C43.3224 13.6375 43.2989 13.641 43.2755 13.6446C43.2747 13.6446 43.2741 13.6446 43.2735 13.6448C43.252 13.6481 43.2309 13.6516 43.2098 13.6552C43.2055 13.656 43.2013 13.6566 43.1971 13.6574C43.1039 13.674 43.012 13.6942 42.9223 13.7182C42.9207 13.7185 42.9192 13.7188 42.9179 13.7193C42.873 13.7313 42.8288 13.7441 42.7851 13.7579C42.7839 13.7584 42.7826 13.7587 42.7811 13.7592C42.7375 13.7729 42.6946 13.7876 42.6522 13.8033C42.6506 13.8037 42.6491 13.8042 42.6475 13.8048C42.476 13.8681 42.3149 13.9456 42.1691 14.0364C42.1671 14.0378 42.165 14.0391 42.1627 14.0405C42.1631 14.0403 42.1632 14.0403 42.1635 14.04C42.1431 14.053 42.1227 14.0661 42.1027 14.0795C42.0895 14.0847 42.0759 14.0902 42.0626 14.0959C42.0639 14.0905 42.065 14.085 42.0663 14.0797C43.2299 13.0943 44.7074 13.3526 45.5728 14.0228C45.7168 14.1894 45.8432 14.3859 45.9475 14.6143ZM42.0453 14.1033C42.0408 14.1051 42.0365 14.107 42.0319 14.109C42.0367 14.1048 42.0413 14.1008 42.0461 14.0969C42.0458 14.0991 42.0456 14.1011 42.0453 14.1033ZM41.7727 14.0789C41.6971 14.1559 41.6239 14.238 41.5539 14.3261C41.5483 14.3286 41.5429 14.331 41.5373 14.3335C41.6091 14.2441 41.6879 14.1589 41.7727 14.0789ZM40.2482 15.0725C40.2831 15.058 40.3187 15.0437 40.3554 15.0301C40.2875 15.294 40.1802 15.5485 40.037 15.7793C40.0229 15.786 40.0087 15.7928 39.9946 15.7999C40.1157 15.5616 40.1994 15.3167 40.2482 15.0725ZM39.7053 15.9658C39.7067 15.9651 39.708 15.9643 39.7096 15.9636C39.6976 15.9936 39.6851 16.0235 39.672 16.0528C39.6837 16.0239 39.6946 15.9949 39.7053 15.9658ZM39.965 15.8561C39.9747 15.8527 39.9845 15.8492 39.9943 15.8457C39.9943 15.846 39.9941 15.8462 39.9939 15.8463C39.9808 15.8561 39.9675 15.8661 39.9543 15.876C39.9578 15.8695 39.9615 15.8628 39.965 15.8561ZM39.9493 15.885C39.9605 15.8776 39.9717 15.8703 39.9829 15.8631C39.9509 15.9106 39.9176 15.9567 39.8826 16.0018C39.8819 16.0021 39.8815 16.0026 39.8811 16.0029C39.9051 15.9638 39.9277 15.9245 39.9493 15.885ZM40.0858 15.8577C40.0813 15.8705 40.0767 15.8831 40.0723 15.8961C40.0327 15.9752 39.9967 16.0583 39.9647 16.146C39.8663 16.1875 39.7698 16.2378 39.6767 16.2969C39.7138 16.2495 39.7493 16.2017 39.7831 16.1534C39.8631 16.08 39.9371 16.0045 40.0069 15.9276C40.0338 15.9046 40.0602 15.8812 40.0858 15.8577ZM40.0223 16.0579C40.0155 16.0815 40.0093 16.1055 40.0037 16.1298C39.996 16.1328 39.9887 16.1358 39.981 16.1388C39.9941 16.1115 40.0075 16.0845 40.0223 16.0579ZM42.9423 15.2102C42.948 15.2152 42.9536 15.2205 42.9591 15.2257C42.9619 15.2301 42.9648 15.2343 42.9675 15.2389C42.9594 15.2291 42.9509 15.2197 42.9423 15.2102ZM38.6815 17.6315C38.6864 17.6189 38.6914 17.6062 38.6965 17.5936C38.7114 17.5685 38.7271 17.5437 38.7432 17.5193C39.376 17.4516 40.036 17.6623 40.4471 18.0416C39.9875 17.7804 39.3957 17.6167 38.6815 17.6315ZM41.9629 15.1308C41.8045 15.1257 41.6384 15.1377 41.4664 15.1684C41.133 15.2279 40.7762 15.3584 40.4048 15.5752C40.6738 15.3316 41.0135 15.1614 41.3658 15.1065C41.5642 15.0755 41.7666 15.0812 41.9629 15.1308ZM43.4187 15.4018C43.8335 15.7614 44.152 16.2642 44.2807 16.8992L43.4187 15.4018ZM42.8987 12.7982C42.8837 12.8441 42.8695 12.8904 42.8562 12.9365C43.0263 12.7688 43.209 12.6326 43.3991 12.5248C43.2266 12.5958 43.0584 12.6868 42.8987 12.7982ZM42.8354 13.0115C42.8347 13.0137 42.8339 13.016 42.8333 13.0184C44.0351 12.1493 45.9994 12.165 46.8338 14.0741C46.8247 13.8127 46.7767 13.5747 46.6976 13.3603C45.9223 11.999 43.864 12.1649 42.8354 13.0115ZM42.8072 13.0847C42.8091 13.0749 42.8109 13.0651 42.8128 13.0553C42.6536 13.1426 42.4994 13.2468 42.353 13.3687C42.2995 13.4604 42.2515 13.5546 42.2095 13.6508C42.3331 13.4703 42.4835 13.3054 42.6535 13.1598C42.7112 13.0893 42.7709 13.0233 42.8323 12.9613C42.8277 12.9824 42.8234 13.0034 42.8192 13.0246C42.7067 13.1186 42.6072 13.2209 42.5235 13.3302C42.6203 13.1931 42.7239 13.0702 42.8325 12.9603C42.8423 12.9141 42.8525 12.8686 42.8632 12.8236C42.7373 12.9144 42.617 13.0184 42.5035 13.1358C42.4581 13.1996 42.4152 13.2645 42.3752 13.331C42.5144 13.2345 42.6591 13.1529 42.8072 13.0847ZM42.8181 13.0296C42.8184 13.0282 42.8187 13.0266 42.8191 13.0252C42.8077 13.0347 42.7963 13.0441 42.7855 13.0538C42.7962 13.0457 42.8072 13.0377 42.8181 13.0296ZM44.3738 10.6195C44.3274 10.658 44.2811 10.6976 44.2359 10.7387C45.2035 10.1305 46.3573 10.1082 47.0295 10.6403C46.3035 9.94137 45.2866 10.0653 44.3738 10.6195ZM42.0701 13.5379C42.0595 13.5602 42.0485 13.5824 42.0371 13.6045C42.0848 13.5598 42.1335 13.5172 42.1831 13.4765C42.2061 13.4026 42.2317 13.3305 42.2589 13.2602C42.1903 13.3496 42.1269 13.4424 42.0701 13.5379ZM41.8155 13.9744C41.7792 14.0263 41.7408 14.0776 41.7005 14.128C41.7005 14.1281 41.7005 14.1283 41.7005 14.1283C41.7341 14.0913 41.7693 14.0544 41.8063 14.0176C41.8093 14.0031 41.8123 13.9887 41.8155 13.9744ZM41.1243 14.1223C41.0923 14.1946 41.0571 14.2642 41.0189 14.3308C41.0119 14.3531 41.0045 14.3755 40.9971 14.3977C41.0267 14.3586 41.0551 14.3193 41.0821 14.2797C41.1093 14.2219 41.1352 14.1635 41.1592 14.1041C41.1477 14.1103 41.1359 14.1163 41.1243 14.1223ZM36.8965 18.2397C36.9173 18.1976 36.9363 18.1551 36.9543 18.1123C37.0666 16.5586 35.8234 15.2787 34.3453 16.5358C34.7448 15.7147 35.5474 15.4891 36.1711 15.8104C35.8602 15.5998 35.5083 15.4951 35.1511 15.5445C35.0328 15.577 34.9101 15.6208 34.7834 15.6771C34.7887 15.6658 34.7944 15.655 34.8 15.644C34.557 15.7501 34.3167 15.9352 34.0912 16.2149C34.2437 15.811 34.5616 15.5395 34.9395 15.4233C35.7426 14.4145 37.6456 15.5722 37.2221 17.422C37.2242 17.4388 37.2263 17.4552 37.2282 17.4722C37.2224 17.4812 37.2167 17.4905 37.2109 17.4997C37.2099 17.4937 37.2087 17.4877 37.2075 17.4817C37.1581 17.6757 37.084 17.8768 36.9797 18.0838C36.9773 18.0978 36.9749 18.1122 36.9725 18.1264C37.7546 16.719 37.4647 14.4279 35.5467 14.9175C36.8029 14.1254 38.4075 15.9739 36.9667 18.1598C36.9547 18.2271 36.9407 18.2956 36.9245 18.3655C36.9346 18.306 36.9423 18.2465 36.948 18.1876C36.9111 18.2427 36.8728 18.2978 36.832 18.3534C36.8736 18.2934 36.913 18.2309 36.9501 18.1663C36.9509 18.1567 36.9519 18.1467 36.9525 18.1371C36.9346 18.1712 36.9163 18.2055 36.8965 18.2397ZM37.3055 17.8981C37.389 17.8699 37.4719 17.8366 37.5533 17.7987C38.3183 16.6083 37.9647 14.6217 36.2837 14.4612C37.0755 14.0587 37.8991 14.7303 38.1215 15.7029C38.0335 14.6302 37.4015 13.7139 36.1464 13.913C36.6251 13.6108 37.0703 13.578 37.4381 13.7313C37.1543 13.5859 36.8056 13.5281 36.3895 13.5941C38.3376 12.3646 39.7675 15.6047 37.6269 17.763C37.6247 17.7641 37.6226 17.7654 37.6202 17.7665C37.6501 17.7289 37.6783 17.691 37.7056 17.653C38.0101 17.2509 38.2096 16.826 38.32 16.4093C38.2088 16.9269 37.9779 17.4124 37.6343 17.7592C38.8563 17.14 39.7415 15.5171 38.6589 14.724C39.9944 14.7478 39.6223 17.0841 37.5839 17.8115C37.5256 17.8819 37.4624 17.9512 37.3944 18.0192C37.3557 18.0602 37.3159 18.0997 37.2743 18.137C37.3103 18.1024 37.3453 18.0677 37.3792 18.0326C37.4346 17.9684 37.4858 17.9002 37.5328 17.8295C37.4592 17.8546 37.3834 17.8774 37.3055 17.8981ZM36.8047 16.471C36.9984 16.856 37.085 17.377 36.9885 18.0277C37.0904 17.7584 37.141 17.4823 37.1447 17.2159C37.0671 16.948 36.9506 16.6953 36.8047 16.471ZM37.1315 16.9365C37.0579 16.2797 36.6895 15.7231 36.0999 15.5377C36.5472 15.7668 36.9416 16.2219 37.1315 16.9365ZM42.1632 13.5412C42.084 13.6198 42.0079 13.7043 41.9354 13.7946C41.9106 13.8486 41.8879 13.9032 41.8674 13.9583C41.9421 13.8879 42.0227 13.8182 42.1087 13.7507C42.1168 13.715 42.1256 13.6798 42.1347 13.6448C42.1149 13.6877 42.0955 13.7313 42.0773 13.7758C42.0877 13.7674 42.0981 13.7592 42.1087 13.7508V13.751C42.0728 13.7791 42.0379 13.8075 42.0042 13.8362C42.0504 13.7472 42.0997 13.6624 42.1517 13.5818C42.1554 13.5682 42.1594 13.5546 42.1632 13.5412Z" fill="white"/>
</g>
<defs>
<clipPath id="clip0_1440_3399">
<rect width="48" height="44" fill="white"/>
</clipPath>
</defs>
</svg>
