<svg width="80" height="80" viewBox="0 0 80 80" fill="none" xmlns="http://www.w3.org/2000/svg">
<circle r="11.3475" transform="matrix(-1 0 0 1 40.7111 28.0135)" stroke="#BCBCBC" stroke-width="5"/>
<path d="M20.8516 56.1973C20.8516 53.7566 22.3859 51.5794 24.6844 50.7585V50.7585C35.0474 47.0574 46.372 47.0574 56.735 50.7585V50.7585C59.0335 51.5794 60.5679 53.7566 60.5679 56.1973V59.9293C60.5679 63.2979 57.5843 65.8855 54.2496 65.4091L53.1377 65.2503C44.8942 64.0727 36.5252 64.0727 28.2817 65.2503L27.1699 65.4091C23.8351 65.8855 20.8516 63.2979 20.8516 59.9293V56.1973Z" stroke="#BCBCBC" stroke-width="5"/>
<path d="M57.7286 39.6736C62.6527 39.6736 66.6445 35.6818 66.6445 30.7577C66.6445 25.8336 62.6527 21.8418 57.7286 21.8418" stroke="#BCBCBC" stroke-width="5" stroke-linecap="round"/>
<path d="M67.493 60.0146L68.3666 60.1394C70.9867 60.5137 73.331 58.4805 73.331 55.8338V52.9015C73.331 50.9838 72.1254 49.2731 70.3194 48.6281C68.5179 47.9847 66.6794 47.4837 64.8203 47.125" stroke="#BCBCBC" stroke-width="5" stroke-linecap="round"/>
<path d="M22.2636 39.6736C17.3394 39.6736 13.3477 35.6818 13.3477 30.7577C13.3477 25.8336 17.3394 21.8418 22.2636 21.8418" stroke="#BCBCBC" stroke-width="5" stroke-linecap="round"/>
<path d="M12.4992 60.0146L11.6256 60.1394C9.00547 60.5137 6.66124 58.4805 6.66124 55.8338V52.9015C6.66124 50.9838 7.86679 49.2731 9.67279 48.6281C11.4743 47.9847 13.3128 47.4837 15.1719 47.125" stroke="#BCBCBC" stroke-width="5" stroke-linecap="round"/>
</svg>
