<svg width="20" height="20" viewBox="0 0 20 20" fill="none" xmlns="http://www.w3.org/2000/svg">
<path d="M18.75 14.5833C18.75 15.5037 18.0037 16.25 17.0833 16.25H2.91667C1.99625 16.25 1.25 15.5037 1.25 14.5833V5.41667C1.25 4.49625 1.99625 3.75 2.91667 3.75H17.0833C18.0037 3.75 18.75 4.49625 18.75 5.41667V14.5833Z" fill="#2100C4"/>
<path d="M6.32838 7.91643L5.23422 11.1798C5.23422 11.1798 4.9563 9.79935 4.9288 9.62602C4.30589 8.20477 3.38672 8.28393 3.38672 8.28393L4.47005 12.4998V12.4989H5.78714L7.60838 7.91643H6.32838ZM7.3713 12.4998H8.56755L9.29088 7.91643H8.07963L7.3713 12.4998ZM15.8376 7.91643H14.5788L12.6163 12.4998H13.8046L14.0496 11.8452H15.548L15.6755 12.4998H16.7642L15.8376 7.91643ZM14.3813 10.9698L15.0326 9.23768L15.3734 10.9698H14.3813ZM10.988 9.25227C10.988 8.99977 11.1955 8.81185 11.7905 8.81185C12.1771 8.81185 12.6201 9.09268 12.6201 9.09268L12.8142 8.1306C12.8142 8.1306 12.2484 7.91602 11.693 7.91602C10.4351 7.91602 9.7863 8.51768 9.7863 9.27935C9.7863 10.6568 11.4442 10.4681 11.4442 11.1756C11.4442 11.2968 11.348 11.5773 10.6576 11.5773C9.96505 11.5773 9.50797 11.3235 9.50797 11.3235L9.30172 12.2468C9.30172 12.2468 9.74463 12.4993 10.6005 12.4993C11.4584 12.4993 12.6484 11.8577 12.6484 10.936C12.6484 9.82727 10.988 9.74727 10.988 9.25227Z" fill="white"/>
<path d="M5.0876 10.3934L4.6851 8.41508C4.6851 8.41508 4.50302 7.98633 4.02969 7.98633C3.55635 7.98633 2.17969 7.98633 2.17969 7.98633C2.17969 7.98633 4.53844 8.68299 5.0876 10.3934Z" fill="#F5BC00"/>
</svg>
