<svg width="40" height="40" viewBox="0 0 40 40" fill="none" xmlns="http://www.w3.org/2000/svg">
<circle r="4" transform="matrix(-1 0 0 1 20 15)" stroke="white" stroke-width="1.5"/>
<path d="M13 24.9347C13 24.0743 13.5409 23.3068 14.3511 23.0175V23.0175C18.004 21.7128 21.996 21.7128 25.6489 23.0175V23.0175C26.4591 23.3068 27 24.0743 27 24.9347V26.2502C27 27.4376 25.9483 28.3498 24.7728 28.1818L23.8184 28.0455C21.2856 27.6837 18.7144 27.6837 16.1816 28.0455L15.2272 28.1818C14.0517 28.3498 13 27.4376 13 26.2502V24.9347Z" stroke="white" stroke-width="1.5"/>
<rect x="0.75" y="0.75" width="38.5" height="38.5" rx="19.25" stroke="white" stroke-width="1.5"/>
</svg>
