<svg width="20" height="20" viewBox="0 0 20 20" fill="none" xmlns="http://www.w3.org/2000/svg">
<path d="M13.3333 4.16797C12.5673 4.16797 11.8087 4.31885 11.101 4.612C10.3933 4.90516 9.75022 5.33484 9.20854 5.87651C8.66687 6.41819 8.23719 7.06125 7.94404 7.76898C7.65088 8.47672 7.5 9.23526 7.5 10.0013C7.5 10.7673 7.65088 11.5259 7.94404 12.2336C8.23719 12.9414 8.66687 13.5844 9.20854 14.1261C9.75022 14.6678 10.3933 15.0974 11.101 15.3906C11.8087 15.6838 12.5673 15.8346 13.3333 15.8346C14.0994 15.8346 14.8579 15.6838 15.5657 15.3906C16.2734 15.0974 16.9164 14.6678 17.4581 14.1261C17.9998 13.5844 18.4295 12.9414 18.7226 12.2336C19.0158 11.5259 19.1667 10.7673 19.1667 10.0013C19.1667 9.23526 19.0158 8.47672 18.7226 7.76898C18.4295 7.06125 17.9998 6.41819 17.4581 5.87651C16.9164 5.33484 16.2734 4.90516 15.5657 4.612C14.8579 4.31885 14.0994 4.16797 13.3333 4.16797Z" fill="#FF9800"/>
<path d="M6.66536 4.16797C5.89932 4.16797 5.14078 4.31885 4.43304 4.612C3.72531 4.90516 3.08225 5.33484 2.54058 5.87651C1.9989 6.41819 1.56922 7.06125 1.27607 7.76898C0.982915 8.47672 0.832031 9.23526 0.832031 10.0013C0.832031 10.7673 0.982915 11.5259 1.27607 12.2336C1.56922 12.9414 1.9989 13.5844 2.54058 14.1261C3.08225 14.6678 3.72531 15.0974 4.43304 15.3906C5.14078 15.6838 5.89932 15.8346 6.66536 15.8346C7.43141 15.8346 8.18995 15.6838 8.89769 15.3906C9.60542 15.0974 10.2485 14.6678 10.7902 14.1261C11.3318 13.5844 11.7615 12.9414 12.0547 12.2336C12.3478 11.5259 12.4987 10.7673 12.4987 10.0013C12.4987 9.23526 12.3478 8.47672 12.0547 7.76898C11.7615 7.06125 11.3318 6.41819 10.7902 5.87651C10.2485 5.33484 9.60542 4.90516 8.89769 4.612C8.18995 4.31885 7.43141 4.16797 6.66536 4.16797Z" fill="#D50000"/>
<path d="M7.5 10.0001C7.5 11.9814 8.49 13.7293 10 14.7835C11.51 13.7293 12.5 11.9814 12.5 10.0001C12.5 8.01888 11.51 6.27096 10 5.2168C8.49 6.27096 7.5 8.01888 7.5 10.0001Z" fill="#FF3D00"/>
</svg>
