<svg width="80" height="80" viewBox="0 0 80 80" fill="none" xmlns="http://www.w3.org/2000/svg">
<path d="M16.9067 26.6654C19.3657 22.4063 22.9545 18.9102 27.2765 16.5636C31.5984 14.2169 36.4851 13.1112 41.3963 13.3686C46.3075 13.626 51.0519 15.2365 55.1049 18.022C59.1578 20.8076 62.3616 24.6596 64.3619 29.1524M10.7734 18.3832L13.2048 28.915C13.6189 30.7088 15.4088 31.8272 17.2025 31.4131L27.7343 28.9817M63.0948 53.3317C60.6359 57.5907 57.047 61.0868 52.7251 63.4335C48.4031 65.7801 43.5164 66.8858 38.6052 66.6284C33.694 66.3711 28.9497 64.7606 24.8967 61.975C20.8437 59.1895 17.6399 55.3374 15.6396 50.8446M69.2281 61.6138L66.7967 51.082C66.3826 49.2882 64.5928 48.1698 62.799 48.5839L52.2672 51.0153" stroke="#BCBCBC" stroke-width="5" stroke-linecap="round"/>
</svg>
