<svg width="80" height="40" viewBox="0 0 80 40" fill="none" xmlns="http://www.w3.org/2000/svg">
<path d="M28 8.8C28 8.58783 28.0843 8.38434 28.2343 8.23431C28.3844 8.08429 28.5878 8 28.8 8H31.2001C31.3785 8.00005 31.5518 8.05976 31.6924 8.16964C31.8331 8.27952 31.9329 8.43325 31.9761 8.6064L32.6241 11.2H51.2005C51.3188 11.2001 51.4356 11.2264 51.5425 11.277C51.6495 11.3277 51.7438 11.4014 51.8188 11.493C51.8938 11.5845 51.9475 11.6915 51.9762 11.8063C52.0048 11.9211 52.0077 12.0408 51.9845 12.1568L50.3845 20.1568C50.3494 20.3313 50.2573 20.4891 50.1225 20.6053C49.9878 20.7215 49.8181 20.7894 49.6404 20.7984L34.6049 21.5536L35.0641 24H48.8004C49.0126 24 49.2161 24.0843 49.3661 24.2343C49.5161 24.3843 49.6004 24.5878 49.6004 24.8C49.6004 25.0122 49.5161 25.2157 49.3661 25.3657C49.2161 25.5157 49.0126 25.6 48.8004 25.6H34.4001C34.2136 25.5998 34.033 25.5345 33.8896 25.4153C33.7461 25.2961 33.6488 25.1305 33.6145 24.9472L31.2161 12.1712L30.5761 9.6H28.8C28.5878 9.6 28.3844 9.51571 28.2343 9.36569C28.0843 9.21566 28 9.01217 28 8.8ZM32.9633 12.8L34.3073 19.9664L48.938 19.232L50.2244 12.8H32.9633ZM36.0002 25.6C35.1515 25.6 34.3375 25.9371 33.7374 26.5373C33.1372 27.1374 32.8001 27.9513 32.8001 28.8C32.8001 29.6487 33.1372 30.4626 33.7374 31.0627C34.3375 31.6629 35.1515 32 36.0002 32C36.8489 32 37.6628 31.6629 38.2629 31.0627C38.8631 30.4626 39.2002 29.6487 39.2002 28.8C39.2002 27.9513 38.8631 27.1374 38.2629 26.5373C37.6628 25.9371 36.8489 25.6 36.0002 25.6ZM47.2004 25.6C46.3517 25.6 45.5377 25.9371 44.9376 26.5373C44.3375 27.1374 44.0003 27.9513 44.0003 28.8C44.0003 29.6487 44.3375 30.4626 44.9376 31.0627C45.5377 31.6629 46.3517 32 47.2004 32C48.0491 32 48.863 31.6629 49.4632 31.0627C50.0633 30.4626 50.4005 29.6487 50.4005 28.8C50.4005 27.9513 50.0633 27.1374 49.4632 26.5373C48.863 25.9371 48.0491 25.6 47.2004 25.6ZM36.0002 27.2C36.4245 27.2 36.8315 27.3686 37.1316 27.6686C37.4316 27.9687 37.6002 28.3757 37.6002 28.8C37.6002 29.2243 37.4316 29.6313 37.1316 29.9314C36.8315 30.2314 36.4245 30.4 36.0002 30.4C35.5758 30.4 35.1688 30.2314 34.8688 29.9314C34.5687 29.6313 34.4001 29.2243 34.4001 28.8C34.4001 28.3757 34.5687 27.9687 34.8688 27.6686C35.1688 27.3686 35.5758 27.2 36.0002 27.2ZM47.2004 27.2C47.6247 27.2 48.0317 27.3686 48.3318 27.6686C48.6318 27.9687 48.8004 28.3757 48.8004 28.8C48.8004 29.2243 48.6318 29.6313 48.3318 29.9314C48.0317 30.2314 47.6247 30.4 47.2004 30.4C46.776 30.4 46.3691 30.2314 46.069 29.9314C45.7689 29.6313 45.6004 29.2243 45.6004 28.8C45.6004 28.3757 45.7689 27.9687 46.069 27.6686C46.3691 27.3686 46.776 27.2 47.2004 27.2Z" fill="#545454"/>
<rect x="0.75" y="0.75" width="78.5" height="38.5" rx="8.96429" stroke="#F2F4F5" stroke-width="1.5"/>
</svg>
