<svg width="19" height="18" viewBox="0 0 19 18" fill="none" xmlns="http://www.w3.org/2000/svg">
<path fill-rule="evenodd" clip-rule="evenodd" d="M13.8174 0.299728C12.8334 -0.0804483 11.6748 0.126954 10.8812 0.921731L1.58132 10.2358C1.30766 10.5098 1.08049 10.8222 0.905216 11.1604C0.655113 11.6429 0.510599 12.1781 0.487373 12.7303L0.369219 15.5393C0.315418 16.8184 1.33703 17.8848 2.61628 17.8848L5.36842 17.8849C6.01787 17.885 6.64964 17.7164 7.20549 17.4037C7.51478 17.2298 7.80058 17.0113 8.05286 16.7525L17.286 7.27921C18.337 6.20084 18.326 4.47708 17.2612 3.4123L14.7693 0.920446C14.4894 0.640551 14.1643 0.433648 13.8174 0.299728ZM16.4368 5.9149C16.6692 5.44657 16.5898 4.8635 16.2005 4.47422L13.7087 1.98237C13.3036 1.57727 12.6898 1.50855 12.2139 1.77606C12.1167 1.83084 12.0252 1.89968 11.9424 1.98258L10.2788 3.64867L14.5583 7.92813L16.2121 6.23126C16.2948 6.14649 16.3629 6.05294 16.4167 5.95368C16.4237 5.94085 16.4304 5.92792 16.4368 5.9149ZM13.5106 9.00305L9.21833 4.71077L2.64246 11.2966C2.24416 11.6955 2.00999 12.2295 1.98629 12.7929L1.86814 15.602C1.85453 15.9255 2.04735 16.2082 2.32748 16.3258C2.33847 16.3304 2.3496 16.3347 2.36086 16.3388C2.4406 16.3678 2.52673 16.3836 2.61668 16.3836L5.36882 16.3837C5.97508 16.3838 6.55568 16.1388 6.979 15.7045L13.5106 9.00305ZM17.8818 17.8107C18.2959 17.8107 18.6316 17.4748 18.6316 17.0604C18.6316 16.646 18.2959 16.3101 17.8818 16.3101H11.7601C11.3461 16.3101 11.0104 16.646 11.0104 17.0604C11.0104 17.4748 11.3461 17.8107 11.7601 17.8107H17.8818Z" fill="#545454"/>
</svg>
