<svg width="160" height="160" viewBox="0 0 160 160" fill="none" xmlns="http://www.w3.org/2000/svg">
<rect x="0.75" y="0.75" width="158.5" height="158.5" rx="19.25" fill="white"/>
<path d="M54.4088 94.0916H56.5256V103.238H54.4088V94.0916ZM50.2536 103.238H48.1368V94.0916H50.2536V103.238ZM54.5656 99.4881H50.0968V97.698H54.5656V99.4881ZM62.097 103.343C61.2956 103.343 60.59 103.186 59.9802 102.872C59.3791 102.559 58.9131 102.132 58.5821 101.592C58.251 101.043 58.0855 100.42 58.0855 99.7233C58.0855 99.0177 58.2467 98.3949 58.569 97.8548C58.9 97.306 59.3486 96.8792 59.9149 96.5743C60.4811 96.2607 61.1214 96.1039 61.8357 96.1039C62.5238 96.1039 63.1423 96.252 63.6911 96.5481C64.2486 96.8356 64.6886 97.2537 65.0109 97.8025C65.3332 98.3426 65.4943 98.9916 65.4943 99.7495C65.4943 99.8279 65.49 99.9193 65.4813 100.024C65.4726 100.12 65.4638 100.211 65.4551 100.298H59.745V99.1092H64.3837L63.5997 99.462C63.5997 99.0961 63.5256 98.7782 63.3775 98.5081C63.2294 98.2381 63.0247 98.029 62.7634 97.8809C62.5021 97.7241 62.1972 97.6457 61.8487 97.6457C61.5003 97.6457 61.191 97.7241 60.921 97.8809C60.6597 98.029 60.455 98.2425 60.3069 98.5212C60.1588 98.7913 60.0847 99.1136 60.0847 99.4881V99.8017C60.0847 100.185 60.1675 100.525 60.333 100.821C60.5072 101.108 60.7468 101.331 61.0517 101.487C61.3653 101.635 61.7311 101.709 62.1493 101.709C62.5238 101.709 62.8505 101.653 63.1293 101.54C63.4167 101.426 63.6781 101.257 63.9133 101.03L64.9978 102.206C64.6755 102.572 64.2704 102.855 63.7826 103.055C63.2948 103.247 62.7329 103.343 62.097 103.343ZM68.317 103.238V97.4105L68.7744 97.8809H65.9389V96.2084H72.7205V97.8809H69.885L70.3424 97.4105V103.238H68.317ZM82.2377 103.395C82.2203 103.395 82.1724 103.395 82.094 103.395C82.0156 103.395 81.9416 103.395 81.8719 103.395C81.8022 103.395 81.7543 103.395 81.7281 103.395C80.2037 103.369 79.0233 103.042 78.1871 102.415C77.3508 101.788 76.9327 100.882 76.9327 99.6972C76.9327 98.5299 77.3465 97.6414 78.174 97.0316C79.0103 96.4131 80.2081 96.0995 81.7673 96.0908C81.7848 96.0908 81.8283 96.0908 81.898 96.0908C81.9764 96.0908 82.0505 96.0908 82.1201 96.0908C82.1898 96.0908 82.2334 96.0908 82.2508 96.0908C83.8275 96.0908 85.0471 96.3957 85.9095 97.0055C86.7806 97.6153 87.2161 98.5125 87.2161 99.6972C87.2161 100.899 86.7806 101.818 85.9095 102.454C85.0471 103.081 83.8232 103.395 82.2377 103.395ZM82.1724 101.827C82.8954 101.827 83.4834 101.753 83.9364 101.605C84.3894 101.448 84.7204 101.213 84.9295 100.899C85.1473 100.577 85.2561 100.176 85.2561 99.6972C85.2561 99.2355 85.1516 98.8566 84.9425 98.5604C84.7335 98.2555 84.3981 98.029 83.9364 97.8809C83.4834 97.7329 82.8954 97.6588 82.1724 97.6588C82.1463 97.6588 82.094 97.6588 82.0156 97.6588C81.9372 97.6588 81.8849 97.6588 81.8588 97.6588C81.1619 97.6588 80.5957 97.7372 80.1601 97.894C79.7246 98.0508 79.4066 98.2773 79.2063 98.5735C79.0059 98.8697 78.9057 99.2442 78.9057 99.6972C78.9057 100.168 79.0059 100.56 79.2063 100.873C79.4066 101.187 79.7246 101.422 80.1601 101.579C80.5957 101.736 81.1619 101.818 81.8588 101.827C81.8849 101.827 81.9372 101.827 82.0156 101.827C82.094 101.827 82.1463 101.827 82.1724 101.827ZM81.1401 105.773V93.5428H83.0087V105.773H81.1401ZM91.8892 103.343C91.1401 103.343 90.4737 103.186 89.89 102.872C89.3151 102.559 88.8577 102.132 88.518 101.592C88.187 101.043 88.0215 100.42 88.0215 99.7233C88.0215 99.0177 88.187 98.3949 88.518 97.8548C88.8577 97.306 89.3151 96.8792 89.89 96.5743C90.4737 96.2607 91.1401 96.1039 91.8892 96.1039C92.6297 96.1039 93.2917 96.2607 93.8753 96.5743C94.459 96.8792 94.9163 97.3017 95.2473 97.8417C95.5784 98.3818 95.7439 99.009 95.7439 99.7233C95.7439 100.42 95.5784 101.043 95.2473 101.592C94.9163 102.132 94.459 102.559 93.8753 102.872C93.2917 103.186 92.6297 103.343 91.8892 103.343ZM91.8892 101.67C92.2289 101.67 92.5338 101.592 92.8039 101.435C93.0739 101.278 93.2873 101.056 93.4441 100.769C93.6009 100.473 93.6793 100.124 93.6793 99.7233C93.6793 99.3139 93.6009 98.9655 93.4441 98.678C93.2873 98.3905 93.0739 98.1684 92.8039 98.0116C92.5338 97.8548 92.2289 97.7764 91.8892 97.7764C91.5495 97.7764 91.2446 97.8548 90.9745 98.0116C90.7045 98.1684 90.4867 98.3905 90.3212 98.678C90.1644 98.9655 90.086 99.3139 90.086 99.7233C90.086 100.124 90.1644 100.473 90.3212 100.769C90.4867 101.056 90.7045 101.278 90.9745 101.435C91.2446 101.592 91.5495 101.67 91.8892 101.67ZM98.3933 103.238V97.4105L98.8507 97.8809H96.0152V96.2084H102.797V97.8809H99.9613L100.419 97.4105V103.238H98.3933ZM106.883 103.343C106.134 103.343 105.467 103.186 104.884 102.872C104.309 102.559 103.851 102.132 103.512 101.592C103.18 101.043 103.015 100.42 103.015 99.7233C103.015 99.0177 103.18 98.3949 103.512 97.8548C103.851 97.306 104.309 96.8792 104.884 96.5743C105.467 96.2607 106.134 96.1039 106.883 96.1039C107.623 96.1039 108.285 96.2607 108.869 96.5743C109.452 96.8792 109.91 97.3017 110.241 97.8417C110.572 98.3818 110.737 99.009 110.737 99.7233C110.737 100.42 110.572 101.043 110.241 101.592C109.91 102.132 109.452 102.559 108.869 102.872C108.285 103.186 107.623 103.343 106.883 103.343ZM106.883 101.67C107.222 101.67 107.527 101.592 107.797 101.435C108.067 101.278 108.281 101.056 108.438 100.769C108.594 100.473 108.673 100.124 108.673 99.7233C108.673 99.3139 108.594 98.9655 108.438 98.678C108.281 98.3905 108.067 98.1684 107.797 98.0116C107.527 97.8548 107.222 97.7764 106.883 97.7764C106.543 97.7764 106.238 97.8548 105.968 98.0116C105.698 98.1684 105.48 98.3905 105.315 98.678C105.158 98.9655 105.08 99.3139 105.08 99.7233C105.08 100.124 105.158 100.473 105.315 100.769C105.48 101.056 105.698 101.278 105.968 101.435C106.238 101.592 106.543 101.67 106.883 101.67Z" fill="#F2F4F5"/>
<path d="M58.1055 67.6146C58.1055 63.3319 61.5773 59.86 65.8601 59.86C67.1009 59.86 68.2224 59.1205 68.7112 57.98L69.3181 56.5638C70.2447 54.4018 72.3706 53 74.7227 53H77.7055H80.6882C83.0404 53 85.1662 54.4018 86.0928 56.5638L86.6998 57.98C87.1886 59.1205 88.31 59.86 89.5508 59.86C93.8336 59.86 97.3055 63.3319 97.3055 67.6146V77.5C97.3055 82.9124 92.9179 87.3 87.5055 87.3H67.9055C62.4931 87.3 58.1055 82.9124 58.1055 77.5V67.6146Z" fill="#F2F4F5" stroke="#F2F4F5" stroke-width="2.28667"/>
<circle r="5.88" transform="matrix(-1 0 0 1 77.7059 71.6202)" fill="white"/>
<rect x="0.75" y="0.75" width="158.5" height="158.5" rx="19.25" stroke="#F20D0D" stroke-width="1.5"/>
</svg>
