<svg width="30" height="17" viewBox="0 0 30 17" fill="none" xmlns="http://www.w3.org/2000/svg">
<path d="M6.25 14H5.5C5.5 14.4142 5.83579 14.75 6.25 14.75V14ZM6.25 1V0.25C5.83579 0.25 5.5 0.585786 5.5 1L6.25 1ZM21.25 1H22C22 0.585786 21.6642 0.25 21.25 0.25V1ZM29.25 11H30C30 10.9194 29.987 10.8393 29.9615 10.7628L29.25 11ZM29.25 14V14.75C29.6642 14.75 30 14.4142 30 14H29.25ZM4.25 8.75C3.83579 8.75 3.5 9.08579 3.5 9.5C3.5 9.91421 3.83579 10.25 4.25 10.25V8.75ZM7.25 10.25C7.66421 10.25 8 9.91421 8 9.5C8 9.08579 7.66421 8.75 7.25 8.75V10.25ZM1.25 6.75C0.835786 6.75 0.5 7.08579 0.5 7.5C0.5 7.91421 0.835786 8.25 1.25 8.25V6.75ZM7.25 8.25C7.66421 8.25 8 7.91421 8 7.5C8 7.08579 7.66421 6.75 7.25 6.75V8.25ZM3.25 4.75C2.83579 4.75 2.5 5.08579 2.5 5.5C2.5 5.91421 2.83579 6.25 3.25 6.25V4.75ZM7.25 6.25C7.66421 6.25 8 5.91421 8 5.5C8 5.08579 7.66421 4.75 7.25 4.75V6.25ZM5.5 3.5C5.5 3.91421 5.83579 4.25 6.25 4.25C6.66421 4.25 7 3.91421 7 3.5H5.5ZM7 11.5C7 11.0858 6.66421 10.75 6.25 10.75C5.83579 10.75 5.5 11.0858 5.5 11.5H7ZM27.9167 7.75C28.3309 7.75 28.6667 7.41421 28.6667 7C28.6667 6.58579 28.3309 6.25 27.9167 6.25V7.75ZM24.25 7V6.25C23.8358 6.25 23.5 6.58579 23.5 7H24.25ZM24.25 8.5H23.5C23.5 8.88095 23.7856 9.20139 24.164 9.24506L24.25 8.5ZM28.4974 9.74506C28.9088 9.79254 29.2809 9.49745 29.3284 9.08597C29.3759 8.67448 29.0808 8.30242 28.6693 8.25494L28.4974 9.74506ZM6.25 1.75H21.25V0.25H6.25V1.75ZM20.5 1V2H22V1H20.5ZM4.25 10.25H7.25V8.75H4.25V10.25ZM1.25 8.25H7.25V6.75H1.25V8.25ZM20.5 2V5H22V2H20.5ZM20.5 5V14H22V5H20.5ZM21.25 5.75H27.25V4.25H21.25V5.75ZM27.25 5C27.9615 4.76283 27.9615 4.76275 27.9615 4.76267C27.9614 4.76264 27.9614 4.76255 27.9614 4.76248C27.9613 4.76234 27.9613 4.76218 27.9612 4.762C27.9611 4.76163 27.961 4.76117 27.9608 4.76061C27.9604 4.75951 27.9599 4.75805 27.9593 4.75623C27.9581 4.7526 27.9564 4.74756 27.9542 4.74119C27.9499 4.72844 27.9436 4.71035 27.9357 4.68754C27.9198 4.64195 27.8968 4.57729 27.8678 4.49853C27.81 4.34161 27.7271 4.12587 27.6269 3.89206C27.5273 3.6598 27.4067 3.4003 27.2728 3.15921C27.1446 2.92849 26.9794 2.66878 26.7803 2.46967L25.7197 3.53033C25.7706 3.58122 25.8554 3.69651 25.9616 3.88767C26.062 4.06845 26.1602 4.2777 26.2481 4.48294C26.3354 4.68663 26.4087 4.87714 26.4603 5.01709C26.486 5.08678 26.506 5.14321 26.5194 5.1816C26.5261 5.20078 26.5311 5.21541 26.5343 5.22488C26.5359 5.22961 26.5371 5.23306 26.5378 5.23513C26.5382 5.23617 26.5384 5.23686 26.5385 5.23721C26.5386 5.23738 26.5386 5.23746 26.5386 5.23746C26.5386 5.23745 26.5386 5.23743 26.5386 5.23738C26.5385 5.23736 26.5385 5.2373 26.5385 5.23729C26.5385 5.23723 26.5385 5.23717 27.25 5ZM26.7803 2.46967C26.5879 2.27719 26.3166 2.16936 26.1456 2.10781C25.9374 2.03284 25.6903 1.96482 25.4315 1.90321C24.9115 1.77939 24.28 1.6665 23.6795 1.57168C23.0759 1.47637 22.4898 1.3972 22.0556 1.34194C21.8382 1.31427 21.6582 1.29251 21.5323 1.27764C21.4693 1.2702 21.4198 1.26448 21.3859 1.2606C21.3689 1.25866 21.3559 1.25717 21.3469 1.25617C21.3425 1.25566 21.339 1.25528 21.3367 1.25502C21.3355 1.25488 21.3346 1.25478 21.3339 1.25471C21.3336 1.25467 21.3334 1.25465 21.3332 1.25463C21.3331 1.25462 21.333 1.25461 21.3329 1.2546C21.3329 1.25459 21.3328 1.25459 21.25 2C21.1672 2.74541 21.1672 2.74541 21.1672 2.74541C21.1672 2.74541 21.1672 2.74541 21.1672 2.74542C21.1673 2.74543 21.1675 2.74545 21.1677 2.74547C21.1682 2.74552 21.1689 2.7456 21.1699 2.74571C21.1718 2.74593 21.1749 2.74627 21.1789 2.74673C21.1871 2.74765 21.1993 2.74903 21.2154 2.75088C21.2477 2.75456 21.2953 2.76007 21.3564 2.76728C21.4785 2.78171 21.6539 2.80292 21.8662 2.82994C22.2914 2.88405 22.8616 2.96113 23.4455 3.05332C24.0325 3.146 24.6197 3.25186 25.0841 3.36242C25.3175 3.41799 25.504 3.47107 25.6376 3.51914C25.8084 3.58064 25.7871 3.59781 25.7197 3.53033L26.7803 2.46967ZM3.25 6.25H7.25V4.75H3.25V6.25ZM10.25 15.25C9.55964 15.25 9 14.6904 9 14H7.5C7.5 15.5188 8.73122 16.75 10.25 16.75V15.25ZM9 14C9 13.3096 9.55964 12.75 10.25 12.75V11.25C8.73122 11.25 7.5 12.4812 7.5 14H9ZM10.25 12.75C10.9404 12.75 11.5 13.3096 11.5 14H13C13 12.4812 11.7688 11.25 10.25 11.25V12.75ZM11.5 14C11.5 14.6904 10.9404 15.25 10.25 15.25V16.75C11.7688 16.75 13 15.5188 13 14H11.5ZM6.25 14.75H8.25V13.25H6.25V14.75ZM21.25 13.25H12.25V14.75H21.25V13.25ZM25.25 15.25C24.5596 15.25 24 14.6904 24 14H22.5C22.5 15.5188 23.7312 16.75 25.25 16.75V15.25ZM24 14C24 13.3096 24.5596 12.75 25.25 12.75V11.25C23.7312 11.25 22.5 12.4812 22.5 14H24ZM25.25 12.75C25.9404 12.75 26.5 13.3096 26.5 14H28C28 12.4812 26.7688 11.25 25.25 11.25V12.75ZM26.5 14C26.5 14.6904 25.9404 15.25 25.25 15.25V16.75C26.7688 16.75 28 15.5188 28 14H26.5ZM29.25 13.25H27.25V14.75H29.25V13.25ZM23.25 13.25H21.25V14.75H23.25V13.25ZM5.5 1V3.5H7V1H5.5ZM7 14V11.5H5.5V14H7ZM27.9167 6.25H24.25V7.75H27.9167V6.25ZM24.164 9.24506L28.4974 9.74506L28.6693 8.25494L24.336 7.75494L24.164 9.24506ZM28.5 11V14H30V11H28.5ZM23.5 7V7.75H25V7H23.5ZM23.5 7.75V8.5H25V7.75H23.5ZM26.5385 5.23717L27.5385 8.23717L28.9615 7.76283L27.9615 4.76283L26.5385 5.23717ZM27.5385 8.23717L28.5385 11.2372L29.9615 10.7628L28.9615 7.76283L27.5385 8.23717ZM24.2032 8.49854L28.2032 8.74854L28.2968 7.25146L24.2968 7.00146L24.2032 8.49854Z" fill="#545454"/>
</svg>
