<svg width="23" height="22" viewBox="0 0 23 22" fill="none" xmlns="http://www.w3.org/2000/svg">
<path d="M2.7 16.5V17.1948C2.7 17.4613 2.63796 17.7241 2.51881 17.9624V17.9624C1.81303 19.3739 3.22603 20.9096 4.69132 20.3235L5.62477 19.9501C5.87264 19.8509 6.13717 19.8 6.40414 19.8H11.5H16.5959C16.8628 19.8 17.1274 19.8509 17.3752 19.9501L18.3087 20.3235C19.774 20.9096 21.187 19.3739 20.4812 17.9624V17.9624C20.362 17.7241 20.3 17.4613 20.3 17.1948V11V9.9M2.7 16.5V11V4.80516C2.7 4.53872 2.63796 4.27593 2.51881 4.03761V4.03761C1.81303 2.62606 3.22603 1.09041 4.69132 1.67653L5.62477 2.04991C5.87264 2.14906 6.13717 2.2 6.40414 2.2H11.5H16.5959C16.8628 2.2 17.1274 2.14906 17.3752 2.04991L18.3087 1.67653C19.774 1.09041 21.187 2.62606 20.4812 4.03761V4.03761C20.362 4.27593 20.3 4.53872 20.3 4.80516V9.9M2.7 16.5C3.8 15.5833 7.32 13.64 12.6 13.2M20.3 9.9C18.4667 9.16667 13.7 7.92 9.3 8.8" stroke="#545454" stroke-width="1.5" stroke-linecap="round"/>
</svg>
