<svg width="40" height="40" viewBox="0 0 40 40" fill="none" xmlns="http://www.w3.org/2000/svg">
<rect x="0.75" y="0.75" width="38.5" height="38.5" rx="19.25" fill="white"/>
<path d="M10.5 13.9187C10.5 13.5572 10.6952 13.2238 11.0105 13.0468L19.5105 8.27483C19.8145 8.10414 20.1855 8.10414 20.4895 8.27483L28.9895 13.0468C29.3048 13.2238 29.5 13.5572 29.5 13.9187V20.8126C29.5 24.4283 27.5482 27.7624 24.3953 29.5324L20.4895 31.7252C20.1855 31.8959 19.8145 31.8959 19.5105 31.7252L15.6047 29.5324C12.4518 27.7624 10.5 24.4283 10.5 20.8126V13.9187Z" stroke="#545454" stroke-width="1.5"/>
<rect x="0.75" y="0.75" width="38.5" height="38.5" rx="19.25" stroke="#545454" stroke-width="1.5"/>
</svg>
