<svg width="40" height="40" viewBox="0 0 40 40" fill="none" xmlns="http://www.w3.org/2000/svg">
<path d="M37.5 29.1667C37.5 31.0075 36.0075 32.5 34.1667 32.5H5.83333C3.9925 32.5 2.5 31.0075 2.5 29.1667V10.8333C2.5 8.9925 3.9925 7.5 5.83333 7.5H34.1667C36.0075 7.5 37.5 8.9925 37.5 10.8333V29.1667Z" fill="#2100C4"/>
<path d="M12.6568 15.8329L10.4684 22.3595C10.4684 22.3595 9.9126 19.5987 9.8576 19.252C8.61177 16.4095 6.77344 16.5679 6.77344 16.5679L8.9401 24.9995V24.9979H11.5743L15.2168 15.8329H12.6568ZM14.7426 24.9995H17.1351L18.5818 15.8329H16.1593L14.7426 24.9995ZM31.6751 15.8329H29.1576L25.2326 24.9995H27.6093L28.0993 23.6904H31.0959L31.3509 24.9995H33.5284L31.6751 15.8329ZM28.7626 21.9395L30.0651 18.4754L30.7468 21.9395H28.7626ZM21.9759 18.5045C21.9759 17.9995 22.3909 17.6237 23.5809 17.6237C24.3543 17.6237 25.2401 18.1854 25.2401 18.1854L25.6284 16.2612C25.6284 16.2612 24.4968 15.832 23.3859 15.832C20.8701 15.832 19.5726 17.0354 19.5726 18.5587C19.5726 21.3137 22.8884 20.9362 22.8884 22.3512C22.8884 22.5937 22.6959 23.1545 21.3151 23.1545C19.9301 23.1545 19.0159 22.647 19.0159 22.647L18.6034 24.4937C18.6034 24.4937 19.4893 24.9987 21.2009 24.9987C22.9168 24.9987 25.2968 23.7154 25.2968 21.872C25.2968 19.6545 21.9759 19.4945 21.9759 18.5045Z" fill="white"/>
<path d="M10.1752 20.7868L9.37021 16.8302C9.37021 16.8302 9.00604 15.9727 8.05938 15.9727C7.11271 15.9727 4.35938 15.9727 4.35938 15.9727C4.35938 15.9727 9.07688 17.366 10.1752 20.7868Z" fill="#F5BC00"/>
</svg>
